<svg xmlns="http://www.w3.org/2000/svg" viewBox="0 0 600 130.23"><defs><style>.cls-1{fill:#fff;}</style></defs><g id="Calque_2" data-name="Calque 2"><g id="Layer_1" data-name="Layer 1"><path class="cls-1" d="M0,7.34V79.88A16.87,16.87,0,0,0,5.75,92.56l40.92,35.85a7.34,7.34,0,0,0,9.68,0L97.27,92.56A16.83,16.83,0,0,0,103,79.88V7.34A7.34,7.34,0,0,0,95.68,0H7.34A7.34,7.34,0,0,0,0,7.34ZM87,79.43H75.64V98.92H56.21V38a5.14,5.14,0,1,0-1.37,0V62.73H39.47a5.13,5.13,0,1,0,0,1.37H54.84V79.43H16.06V65.59L57.3,4.86H75.64V64H87Z"/><path class="cls-1" d="M140.56,105.49V24.75h21.93v80.74Zm116.26,0H228.21L198.72,48.6h-.5q1,13.42,1.05,20.49v36.4H179.94V24.75h28.5l29.38,56.11h.33q-.77-12.21-.77-19.61V24.75h19.44ZM363.18,63.57q0,20.22-11.13,31.15t-31.28,10.93H294.65V24.91h27.94q19.44,0,30,9.94T363.18,63.57Zm-22.64.78q0-11.1-4.39-16.46t-13.34-5.36h-6.35V87.76h4.86q9.94,0,14.58-5.77T340.54,64.35Zm86.65,41.3-4-15.13H397l-4.09,15.13h-24l26.34-81.07h29.11l26.67,81.07Zm-8.5-33-3.48-13.25q-1.21-4.43-3-11.44t-2.29-10q-.49,2.82-2,9.28t-6.49,25.46Zm76.71,33H473.58V42.75H453.87V24.91h61.19V42.75H495.4Zm80.74,0-4-15.13H545.94l-4.09,15.13h-24l26.34-81.07h29.11L600,105.65Zm-8.5-33-3.48-13.25q-1.21-4.43-3-11.44t-2.29-10q-.49,2.82-2,9.28t-6.49,25.46Z"/></g></g></svg>