<svg xmlns="http://www.w3.org/2000/svg" viewBox="0 0 149.48 116.89"><defs><style>.cls-1{fill:#1c2674;fill-rule:evenodd;}</style></defs><title>Airbus</title><g id="Layer_2" data-name="Layer 2"><g id="Layer_1-2" data-name="Layer 1"><path class="cls-1" d="M111.86,37.93A35,35,0,0,0,77.09,3.55c-19,0-34,15.81-34,34.78H36.39A38.2,38.2,0,0,1,73.93,0c20.94,0,38.32,17,38.32,37.93Z"/><path class="cls-1" d="M111.46,38.33A27.48,27.48,0,0,0,83.81,10.67c-15.41,0-26.48,12.24-26.48,27.66h-7.5c0-17.39,14.22-31.22,31.61-31.61,17,0,30.81,15.8,31.21,31.21l-1.19.4Z"/><path class="cls-1" d="M111.86,37.93c0-11.06-9.49-20.15-20.94-20.15S71.16,26.87,71.16,38.33H64.05c0-13.44,10.27-24.5,23.71-24.5s24.1,11.06,24.49,24.1Z"/><path class="cls-1" d="M37.18,38.33a34.38,34.38,0,1,0,68.75-.4h6.72c0,20.94-17,38.33-37.93,38.33A38.55,38.55,0,0,1,36.39,38.33Z"/><path class="cls-1" d="M37.18,37.93A27.49,27.49,0,0,0,64.84,65.59c15.41,0,26.87-12.25,26.47-27.66h7.51c0,17.39-14.22,31.61-31.21,31.61-17.39,0-31.22-15.81-31.22-31.21l.79-.4Z"/><path class="cls-1" d="M36.79,38.33A21.2,21.2,0,0,0,57.73,58.48c11.46,0,19.76-9.09,19.76-20.55H84.6c0,13.44-10.28,24.5-23.71,24.5a24,24,0,0,1-24.1-24.1Z"/><path class="cls-1" d="M16.89,108h-5.1L15.94,99l1,8.92ZM8,116.25l1.43-3.19h8l.48,3.19h8l-4.47-24.7H13.23L0,116.25Z"/><polygon class="cls-1" points="29.48 116.25 33.78 91.55 41.91 91.55 37.61 116.25 29.48 116.25 29.48 116.25"/><path class="cls-1" d="M53.54,97.6h4a3.51,3.51,0,0,1,2.55.64,1.74,1.74,0,0,1,.32,1.59,2.31,2.31,0,0,1-1.12,1.76,4,4,0,0,1-2.71.63H52.75l.79-4.62Zm-3.18,18.65,1.43-8.61H55a7.4,7.4,0,0,1,2.23.32,2.15,2.15,0,0,1,1,1.12,3.8,3.8,0,0,1,0,1.91L58,112.9a15.86,15.86,0,0,0-.32,3.35H66v-.8c-.16,0-.47,0-.47-.16-.16-.16-.16-.48,0-1.11l.63-3.83c.16-1.75.16-3-.32-3.66A5.94,5.94,0,0,0,63,104.62a8.11,8.11,0,0,0,2.07-.8,8.08,8.08,0,0,0,1.91-2.07,9.61,9.61,0,0,0,1.28-3.19,6.34,6.34,0,0,0,0-2.39,5.21,5.21,0,0,0-.8-1.91,7.58,7.58,0,0,0-1.6-1.6,10.83,10.83,0,0,0-2.7-.79,29.77,29.77,0,0,0-4.31-.32H46.85l-4.3,24.7Z"/><path class="cls-1" d="M83.5,97.13c1.12,0,1.92.16,2.23.16a1.59,1.59,0,0,1,1,.79A1.72,1.72,0,0,1,87,99.36,2.71,2.71,0,0,1,85.89,101a5.1,5.1,0,0,1-2.71.64h-3L81,97.13Zm-1.27,19.12a20.46,20.46,0,0,0,4-.32,15.32,15.32,0,0,0,2.55-.8,7.59,7.59,0,0,0,2.07-1.27,5.62,5.62,0,0,0,1.76-2.07,7.33,7.33,0,0,0,1.11-2.87,6.64,6.64,0,0,0-.48-3.67,4,4,0,0,0-2.7-2.07c2.39-1.43,3.82-3.19,4.14-5.26A4.23,4.23,0,0,0,92.75,93c-1.28-1-3.35-1.43-6.54-1.43H74.1l-4.3,24.7Zm.48-10.36a5.58,5.58,0,0,1,3,.64,1.69,1.69,0,0,1,.48,1.75A3.05,3.05,0,0,1,85.1,110a6.87,6.87,0,0,1-3.19.64H78.56l.8-4.78Z"/><path class="cls-1" d="M101.35,91.55h8l-2.71,15.3a5.11,5.11,0,0,0,0,2.23,2.15,2.15,0,0,0,1.12,1.27,4.36,4.36,0,0,0,2.07.48,4.17,4.17,0,0,0,2.87-1,5.54,5.54,0,0,0,1.59-3L117,91.55h8l-2.55,14.5a20.68,20.68,0,0,1-1.12,4.3,10.42,10.42,0,0,1-1.91,2.71,11.09,11.09,0,0,1-2.71,2.07,13.37,13.37,0,0,1-3.51,1.44,38.69,38.69,0,0,1-4.3.32,34.19,34.19,0,0,1-4.46-.32,7.64,7.64,0,0,1-3-1.44,6.38,6.38,0,0,1-2.07-2.07,6.26,6.26,0,0,1-.8-3.19,12.85,12.85,0,0,1,.32-4l2.55-14.34Z"/><path class="cls-1" d="M149.48,98.72h-7.81a2.4,2.4,0,0,0-.64-1.59,3.59,3.59,0,0,0-2.07-.48,4.2,4.2,0,0,0-2.23.48,1.8,1.8,0,0,0-.8,1.11c0,.48,0,.64.32,1a5.93,5.93,0,0,0,2.55,1l3,.8c2.71.8,4.62,1.75,5.58,3a5.41,5.41,0,0,1,1,4.46,9.56,9.56,0,0,1-1.59,3.67,10.83,10.83,0,0,1-2.71,2.7,15.77,15.77,0,0,1-3.67,1.6,21.47,21.47,0,0,1-4.62.48,14.71,14.71,0,0,1-4.62-.64,8.59,8.59,0,0,1-3.35-1.91,6.8,6.8,0,0,1-1.75-2.87,15.5,15.5,0,0,1-.16-2.87h7.81a2,2,0,0,0,.8,1.75,4,4,0,0,0,2.71.64,4.48,4.48,0,0,0,2.39-.48,1.8,1.8,0,0,0,.79-1.11,1.77,1.77,0,0,0-.31-1.28,5.9,5.9,0,0,0-2.55-1l-2.71-.63a15.75,15.75,0,0,1-3.83-1.44,5.62,5.62,0,0,1-2.55-2.55,6.13,6.13,0,0,1-.32-3.5,9.51,9.51,0,0,1,1.6-3.67,11.31,11.31,0,0,1,6.37-4,15.7,15.7,0,0,1,3.83-.48,16.35,16.35,0,0,1,4.14.48,10,10,0,0,1,2.87,1.27,5,5,0,0,1,1.43,1.76,4.83,4.83,0,0,1,.8,1.91,9.6,9.6,0,0,1,.32,2.39Z"/></g></g></svg>