<svg xmlns="http://www.w3.org/2000/svg" viewBox="0 0 728.84 345.65"><defs><style>.cls-1{fill:#fbcb8e;}.cls-2{fill:#2867b2;}</style></defs><title>Banque de france</title><g id="Layer_2" data-name="Layer 2"><g id="Layer_1-2" data-name="Layer 1"><g id="layer1"><path id="path14" class="cls-1" d="M407.46,0s-14.8,29.51-20.33,43.13c-8.93,21.7-14.66,50.72-14.66,50.72a321.41,321.41,0,0,0-15-50.51C351.23,27.19,336.72.11,336.72.11H292.64S308,20.54,318.21,43.45c6.2,13.88,14.91,36.31,17.87,52.54,1.6,8.74,5.09,24.92,4.71,41.31-.2,9.8-.28,24.19-4.17,41.41A262.52,262.52,0,0,1,319,231.14c-10.15,22.53-25.47,43.56-25.47,43.56l44.2.1s12.81-22,21-43.66a337,337,0,0,0,14.13-48.58,285.19,285.19,0,0,0,14.55,48.58,441.34,441.34,0,0,0,20.87,43.77h44.41s-15.12-21.26-25.47-43.55c-11.1-23.87-15.82-41.21-18.19-52.65a206.19,206.19,0,0,1-4.39-41.31c-.15-17.25,2.71-32.43,4.28-41.41,1.39-8,8.14-32.1,17.76-52.54A375.83,375.83,0,0,1,451.23,0ZM259.57,36.17s29.87,51,33,59.82c10.22,29.3,7.73,61,.32,82.72-4.52,13.21-33.17,60.78-33.17,60.78h45.16s22.52-47.64,25.68-61.42c6.06-26.4,5.58-49.31,1.07-75.23-2.85-16.41-27.4-66.67-27.4-66.67Zm181.17,0s-24.54,50.26-27.4,66.67c-4.51,25.92-5,48.83,1.08,75.23,3.15,13.78,25.68,61.31,25.68,61.31h45.16s-28.56-47.46-33.07-60.67c-7.43-21.71-9.91-53.43.32-82.72,3.09-8.84,33-59.82,33-59.82Zm32.85,32.64a103,103,0,0,0-15.3,27.39,128.08,128.08,0,0,0-7.49,41.2,116.19,116.19,0,0,0,6.74,41.31c6.37,17.59,15.73,28,15.73,28h47.19s-35.88-26.64-35.52-69.45c.33-39,35.74-68.49,35.74-68.49Zm-249.33.11S259.66,98.31,260,137.3c.35,42.81-35.42,69.45-35.42,69.45h47.08s9.35-10.45,15.73-28a115.47,115.47,0,0,0,6.85-41.31,128.12,128.12,0,0,0-7.6-41.2,102.72,102.72,0,0,0-15.19-27.28Z"/><path id="path24" class="cls-2" d="M441.38,103.59s-1.68,0-1.6,1.07c.13,1.52,1.21.37,2.89,2.67,1.49,2.1,1.49,5.67,1.49,5.67l.22,47.41a11.24,11.24,0,0,1-1.5,5.78c-1.34,2-2.83,1.51-3,2.57s1.29,1.17,1.29,1.17,16,.21,16.91,0,1.37-.78,1-1.6-1.91-.11-3.21-2.68a14.22,14.22,0,0,1-1.18-5l-.11-21.18,15.41.1s3.15.28,4.07,1.71c1.05,1.61,1.43,2.37,2.35,2.57s1-1.39,1-1.39l.1-15.09s0-1.17-1.39-.85c-.74.14-.85,2.39-3.1,3.21a43.86,43.86,0,0,1-4.82,1.28l-13.69-.11v-19l14,.1a20.29,20.29,0,0,1,5.67.65c2.45.88,2.35,3.44,3.74,3.63,1.12.15,1-1,1-1v-9.52a3.27,3.27,0,0,0-.22-1.71c-.3-.45-2.35-.33-2.35-.33l-34.89-.1ZM.82,105.73s-.75-.06-.75,1.07c0,.55,1.9,1.32,2.89,2.67,1.64,2.26,1.39,6,1.39,6v45.26a17,17,0,0,1-.64,5c-1,3.21-2.6,2.5-3.43,3.64A1,1,0,0,0,.71,171l25.68.22s8.25.34,14.45-4.71c2.74-2.21,6-5.95,6.1-13.7.05-4.93-1.6-9.44-4.07-12.2-2.69-3-7.6-5.45-7.6-5.45a17.31,17.31,0,0,0,6.64-6.43c1.26-2.27,1.6-5.29,1.28-9.31-.69-8.86-9.49-13-15.09-13.37-4.73-.28-27.28-.32-27.28-.32Zm588.77,3c-.41.06-.64,1-.64,1l.43,52.11a7.77,7.77,0,0,1-1.29,4c-1,1.31-2,1.43-1.92,2.35,0,.66.53.65.53.65h14.77s.89.05.75-1-1.93,0-3.21-3a14.94,14.94,0,0,1-1-4.18l-.11-30.39,37.24,40.35s1.21.63,1.6.21a1.66,1.66,0,0,0,.33-1.18L637,119.1a14.06,14.06,0,0,1,1-4.6c.78-1.47,2.47-1.32,2.57-2.25s-.54-.85-.54-.85H624.26s-.51.06-.53.85c-.05,1.13,1.86,0,2.89,1.61a16.21,16.21,0,0,1,1.5,3.64l.42,32.64L590.77,109a1.51,1.51,0,0,0-1.18-.32Zm-33.39.86c-.62,0-1.07.86-1.07.86l-23.64,54.68s-.84,1.69-1.93,2a1.92,1.92,0,0,0-1.39,1.18l-2.78-2.25s-12.29-17.6-14.77-21.19a2.58,2.58,0,0,1-.32-1,24.87,24.87,0,0,0,6.42-3.42,15.9,15.9,0,0,0,5.46-11.13,17.25,17.25,0,0,0-3.11-11c-3.49-5.5-12.41-6.42-12.41-6.42l-24.72-.1s-1.25.1-1.29,1c0,1.08,1.83,1,2.79,2.78a10.22,10.22,0,0,1,.85,4.82l.32,41.73a9.84,9.84,0,0,1-.75,3.85c-.84,1.85-2.56,1.83-2.67,2.57a1.08,1.08,0,0,0,.86,1.18h14.76s1.17-.11,1.18-1-.6-.39-2-2a8.68,8.68,0,0,1-1.61-4.49l-.43-41.09a1.52,1.52,0,0,1,.43-1.5c.91-.74,7.55-.85,11.77.21,3.91,1,6.21,5.25,6.1,9.31a8.9,8.9,0,0,1-6.52,8.67c-4.32,1.43-8.41,0-8.89.86-.75,1.32,1.72,4.38,1.72,4.38l14.87,22.48s2.17,3.46,4.71,4.17c2.3.63,11.77,0,11.77,0l-.64-.54c1.92.27,13.48-.1,13.48-.1s.74.25.54-1c-.24-1.48-1.84-.43-1.72-3.21.08-1.83,4.5-11.23,4.5-11.23h21s4.25,8,4.18,11.34c-.06,2.4-1.78,2.06-1.82,3.21s1.17.86,1.17.86h14.24s1.37-.25.53-1.61c-.32-.57-1.69.41-4.39-5-1-2.13-23.11-51.68-23.11-51.68s-.84-1.12-1.61-1.18Zm114,.43a27.5,27.5,0,0,0-9.42,1.39c-10.63,3.95-14.55,10.91-17.12,17.12S640.36,147,645,155.7c7.15,13.31,18.22,15.29,26,15.41a41.16,41.16,0,0,0,16.16-2.78l1.28-8.35s-.05-2.09-.86-2.14A2.15,2.15,0,0,0,685.8,159a22.88,22.88,0,0,1-9.42,3.85c-5.58,1-11.22.58-16.37-3.32-6.59-5-8.21-12.14-8.35-18.83-.2-10,4.62-17.11,10-20.23,6.47-3.77,13.79-2.51,18.41-1.39s5.48,3.53,7,3.53c1,0,1.18-1.28,1.18-1.28l-.11-8.88s.08-.93-.75-1.07c-1.27-.22-1.26.6-2.35.64a14.57,14.57,0,0,1-4.07-.86,51.2,51.2,0,0,0-10.7-1.17Zm-565.77.75c-.41.06-.75,1-.75,1l.54,52.11a7.82,7.82,0,0,1-1.28,4c-1,1.31-2,1.42-1.93,2.36a.74.74,0,0,0,.53.75h14.77a.84.84,0,0,0,.75-1.07c-.14-1-1.93.09-3.21-2.89a15.28,15.28,0,0,1-1-4.28l-.22-30.39L150,172.61s1.1.62,1.5.21a2,2,0,0,0,.43-1.17l-.11-50.51a13,13,0,0,1,.86-4.6c.78-1.47,2.47-1.33,2.56-2.25s-.42-.86-.42-.86H139.08a1,1,0,0,0-.65,1c-.05,1.12,2-.09,3,1.49a15.71,15.71,0,0,1,1.5,3.64l.32,32.64-37.67-41.09a1.47,1.47,0,0,0-1.18-.32Zm619.81.21-31.14.21s-1.24.46-.43,1.29,2.28,1.16,2.79,3.32.75,4,.75,4l.1,41.09s-.07,3.58-1,5.13-2.62,1-2.46,2,1.39,1.07,1.39,1.07l33.17-.11a35.09,35.09,0,0,0,.75-4.49c.57-3.92,1.21-7.46-.11-7.28-1.62.21-.7,1.44-2.88,2.78a8,8,0,0,1-4.61,1.18l-11.23.21a4.71,4.71,0,0,1-2.68-.85c-.65-.55-.64-2.89-.64-2.89v-15s9-.13,12,.1,4.11.64,5.13,1.61c.78.72,1.54,2.19,2.36,2.14.55-.05.75-1.29.75-1.29l-.11-13.59s-.13-1.16-1-.85-1.76,1.75-2.47,2.57a6,6,0,0,1-3.1,1.39l-13.7.32s-.27-12.06-.21-15.63c0-.65,1.07-.85,1.07-.85l12.2.11s3.63-.15,4.49.64c1.19,1.05,2,3.08,3.43,3.1.91,0,.85-1.5.85-1.5l-.1-8.34s0-1.1-.54-1.4a11.1,11.1,0,0,0-2.89-.21ZM70.8,111.4c-.62,0-1.07,1-1.07,1L46.08,167s-.94,1.7-2,2c-1.46.45-2,1.62-.64,1.92s13.8-.1,13.8-.1.74.25.54-1c-.24-1.48-1.73-.43-1.61-3.21.08-1.84,4.5-11.13,4.5-11.13l21-.1s4.14,8.1,4.07,11.45c-.05,2.39-1.78,1.95-1.82,3.1S85,171,85,171l14.24-.1s1.38-.25.53-1.61c-.32-.57-1.58.41-4.28-5-1-2.13-23.22-51.68-23.22-51.68s-.74-1.13-1.5-1.18Zm114.29.32c-5.56.07-11.17,1.29-15.2,3.75-6.71,4-14.13,11.89-14.12,25.78,0,18.25,11.84,26.81,18.08,28.9a35.48,35.48,0,0,0,16.38,1.71s11.65,6.71,13.59,7.49,5.17,2.89,7.38,2.78C214.38,182,219,177,219,177s.82-1.12.32-1.61-.9-.07-2.46.22c-2.28.41-7.57-2.63-9.31-3.43s-6.63-3.64-6.63-3.64a33.11,33.11,0,0,0,10.16-9.95c2.87-4.55,4.1-11.15,4.18-16.59.2-13.83-7.65-23.45-15.41-27.39-3.75-1.9-9.21-3-14.77-2.89Zm226.76.43-31.14.32s-1.25.35-.43,1.18,2.27.73,2.78,2.89.75,3.95.75,3.95l.11,41.1s-.08,3.69-1,5.24-2.62.89-2.46,1.93,1.39,1.17,1.39,1.17l32.86-.21a44.92,44.92,0,0,0,.75-4.49c.57-3.92,1.21-7.46-.11-7.28-1.63.21-.7,1.44-2.89,2.78a7.82,7.82,0,0,1-4.28,1.29l-11.24.21a5.12,5.12,0,0,1-2.67-1c-.65-.55-.65-2.89-.65-2.89v-15s9-.13,12,.1,4.11.63,5.14,1.61c.77.72,1.22,2.19,2,2.14.56-.05.75-1.29.75-1.29V132.37s-.14-1.16-1-.85-1.54,1.74-2.25,2.57a6,6,0,0,1-3.1,1.39l-13.7.32s-.29-11.53-.22-15.09c0-.66,1.07-.86,1.07-.86h12.31s3.53,0,4.39.75c1.19,1.06,1.72,3,3.1,3,.9,0,.86-1.39.86-1.39l-.11-8.46s0-1-.53-1.28a9.62,9.62,0,0,0-2.57-.32Zm-71.7.1c-5.27,0-10,.14-10.38.43-.69.5-.62.88-.11,1.61s1.12-.54,2.36,1.92a11.19,11.19,0,0,1,1.17,4.71l.43,39.17s.16,5.51-1.18,6.74-2.57,1.52-2.56,2.25c0,1.17,1.6,1.07,1.6,1.07l24.19-.32s7.12-.93,11.55-3.75c4.22-2.67,7.88-5.82,9.53-9.42,4.34-9.43,3.29-16,2.67-21.08A26,26,0,0,0,370,118.35c-3.81-3.31-11.9-5.59-16.38-5.88C351.27,112.32,345.42,112.24,340.15,112.25Zm-39.27.43-31.25.22s-1.25.45-.43,1.28,2.27.73,2.78,2.89.75,4,.75,4l.22,41.09s-.19,3.58-1.07,5.14-2.63,1-2.47,2,1.4,1.07,1.4,1.07l32.85-.1a36,36,0,0,0,.75-4.5c.57-3.91,1.21-7.45-.11-7.28-1.63.22-.71,1.45-2.89,2.79a6.82,6.82,0,0,1-4.17,1.17l-11.24.22a4.91,4.91,0,0,1-2.78-.86c-.66-.55-.54-2.89-.54-2.89l-.1-15s8.95-.12,12,.11,4.22.64,5.25,1.6c.77.73,1.1,2.19,1.92,2.14.56,0,.86-1.28.86-1.28l-.11-13.59s-.13-1.16-1-.86-1.53,1.75-2.25,2.57a5.92,5.92,0,0,1-3.1,1.39l-13.7.32s-.29-11.52-.21-15.09c0-.65,1.07-.85,1.07-.85h12.3s3.52-.14,4.39.64c1.19,1.06,1.73,3.09,3.1,3.1.91,0,.86-1.39.86-1.39l-.11-8.45s0-1.1-.53-1.39a8,8,0,0,0-2.46-.22Zm-50.09.22a1,1,0,0,0-.74.53c-.3.62.19,1.32,1.81,2,1.28.53,1.72,4.06,1.72,4.06s.73,26.36.32,32c-.24,3.19-.61,5.37-1.61,7.06-.82,1.31-3.28,5.38-10.81,5.46-5.35,0-8.63-1.81-10.91-5.57a13.69,13.69,0,0,1-1.71-6.63L228.54,122s.26-4.76,1.39-5.88,2.18-1.3,2.14-2.25a.54.54,0,0,0-.64-.54l-15.73.11a.69.69,0,0,0-.65.86c.17,1,1.93.92,2.68,2.35a17.69,17.69,0,0,1,1.18,5.46l.53,32s.06,6.43,4.5,10.8c6.63,6.51,12.3,7.07,18.4,7.07,6.35,0,13.66-2.45,17.87-8.67a19.56,19.56,0,0,0,3.11-11.24V121a16.51,16.51,0,0,1,1.07-4.6c.83-1.75,2.16-1.41,2.46-2.46a.86.86,0,0,0-.54-1.07H251.12a.69.69,0,0,0-.33,0Zm-229.64.53c3.42.07,7.36.69,9.31,2.89a9.05,9.05,0,0,1-2.14,14c-5.4,2.83-13.48,1.82-13.48,1.82v-18.3A38.23,38.23,0,0,1,21.15,113.43Zm163.51,6.1c13.49,0,19.19,8.48,20.55,18.3,1.77,12.87-4.59,25.85-18.3,26.43a19.43,19.43,0,0,1-17.55-8.67c-5.22-7.9-5.05-22.33,2-30C174.8,122,177,120.27,184.66,119.53Zm164.48.43c4.47,0,9.46.68,13.16,3.53,1.46,1.14,7.71,5.43,7.92,16.59.23,13-4.62,18.08-10.17,20.54C353.78,163.4,347,163,345,161.91s-1.92-2.25-1.92-2.25l-.43-38.74s2.06-1,6.53-1Zm207.6,6.74,7.6,19.48H548.82ZM71.23,128.63l7.6,19.47L63.42,148l7.81-19.37ZM17.4,140.51a48.46,48.46,0,0,1,8.67.42c5.67,1.13,7.85,3.18,9.53,7,1.16,2.6,1.07,8.79-1.72,11.77-4.73,5.06-15.6,3.94-17.44,3a3.36,3.36,0,0,1-1.71-2.36V141.25s0-.64,2.67-.74ZM464.18,294a3.15,3.15,0,0,0-2,1.39,1.5,1.5,0,0,0-.32,1,2.4,2.4,0,0,0,.11.86,3.89,3.89,0,0,0,1.5,1.82l.64.43,8.56,4.38a.43.43,0,0,0,.32.11.43.43,0,0,0,.32-.21l.75-1.07c.1-.14.21-.25.21-.32A.76.76,0,0,0,474,302L467,295l-.43-.43a3.08,3.08,0,0,0-2.35-.64ZM301.41,305.52a18.3,18.3,0,0,0-13.91,6.2,21.25,21.25,0,0,0-5.67,15,18,18,0,0,0,5.67,13.48,19.21,19.21,0,0,0,13.91,5.46,18.23,18.23,0,0,0,13.91-6.1,21.19,21.19,0,0,0,5.57-15,18,18,0,0,0-5.57-13.49A19.28,19.28,0,0,0,301.41,305.52Zm38.53.53a14.89,14.89,0,0,0-9.53,3.11,9.08,9.08,0,0,0-3.74,7.49,10,10,0,0,0,2.67,7.17c1.88,2,5,3.72,9.1,5.24a17.29,17.29,0,0,1,5.56,3.1,4.83,4.83,0,0,1,1.82,3.64,5.23,5.23,0,0,1-2.46,4.39,9.89,9.89,0,0,1-6.1,1.6,8,8,0,0,1-5.35-2,9.87,9.87,0,0,1-3-4.71c-.06-.14-.1-.26-.21-.32a.69.69,0,0,0-.43-.11l-.43.33c-.13,0-.37.43-.43.64a3.24,3.24,0,0,0-.21.75l.11,5.45a1.66,1.66,0,0,0,.21.65,1.29,1.29,0,0,0,.54.42,21.3,21.3,0,0,0,3.74,1.4,21.81,21.81,0,0,0,5,.53c4.5,0,8.07-1,10.7-3.1a10.36,10.36,0,0,0,4-8.56,9.8,9.8,0,0,0-2.46-6.75,19.6,19.6,0,0,0-7.81-4.7,22.5,22.5,0,0,1-6.85-3.43,4.16,4.16,0,0,1-1.82-3.64,4.69,4.69,0,0,1,1.71-4,8.23,8.23,0,0,1,5.14-1.39c2.27,0,3.89.05,5.35,1.39a9.07,9.07,0,0,1,2.57,5.14.52.52,0,0,0,.21.32.37.37,0,0,0,.32.11l.75-.11c.14,0,.35-.22.43-.32.23-.21.24-.42.32-.75l-.1-5.67a1.89,1.89,0,0,0-.33-1,2.23,2.23,0,0,0-.85-.65,16.31,16.31,0,0,0-3.32-1.28,20.9,20.9,0,0,0-4.81-.43Zm66.77,0a14.82,14.82,0,0,0-9.52,3.11,9.43,9.43,0,0,0-3.86,7.59,10.08,10.08,0,0,0,2.79,7.17c1.86,2,4.85,3.73,9,5.25a18,18,0,0,1,5.67,3,4.8,4.8,0,0,1,1.82,3.64,5.23,5.23,0,0,1-2.47,4.39,10.16,10.16,0,0,1-6.2,1.71,7.88,7.88,0,0,1-5.25-2.14,10,10,0,0,1-3-4.71c-.06-.14-.09-.25-.22-.32a.7.7,0,0,0-.42-.11l-.43.33c-.13,0-.46.42-.54.64a2.57,2.57,0,0,0-.1.75l.1,5.45a1.47,1.47,0,0,0,.22.65,1.19,1.19,0,0,0,.53.42,20.15,20.15,0,0,0,3.75,1.4,20.82,20.82,0,0,0,4.92.53c4.5,0,8.16-1,10.81-3.1a10.39,10.39,0,0,0,4-8.56,9.48,9.48,0,0,0-2.46-6.64,19.39,19.39,0,0,0-7.82-4.71,22.39,22.39,0,0,1-6.84-3.53,4.16,4.16,0,0,1-1.82-3.64,4.69,4.69,0,0,1,1.71-4,8.27,8.27,0,0,1,5.14-1.39c2.27,0,3.89,0,5.35,1.39a9.12,9.12,0,0,1,2.56,5.14.57.57,0,0,0,.22.32.4.4,0,0,0,.32.11l.75-.11c.13,0,.34-.22.43-.32a1.43,1.43,0,0,0,.32-.75l-.11-5.67a1.83,1.83,0,0,0-.32-1,2.35,2.35,0,0,0-.86-.65,16.93,16.93,0,0,0-3.31-1.17,20.14,20.14,0,0,0-4.82-.54Zm81.44,0s-.69.22-.22.75,1.3.53,1.61,1.93.53,2.57.53,2.57v2l.11,26.43a5.17,5.17,0,0,1-.75,2.57c-.59.85-1.11.89-1.07,1.5,0,.41.21.43.21.43h8.78a.52.52,0,0,0,.53-.65c-.09-.63-1.16,0-1.92-1.92a12.94,12.94,0,0,1-.64-2.68l-.11-19.58,10.7,21.51a6.34,6.34,0,0,0,.43.53,1.21,1.21,0,0,0,.32.32,1.06,1.06,0,0,0,.21.11,2.08,2.08,0,0,0,.75.11h.32a1.2,1.2,0,0,0,.64-.22,1.94,1.94,0,0,0,1.07-1.07l10.81-21.51-.21,19.8a9.21,9.21,0,0,1-.54,2.68c-.74,1.93-1.85,1.29-1.92,1.92s.43.65.43.65H527s.31,0,.32-.43c0-.61-.57-.65-1.18-1.5a5.35,5.35,0,0,1-.74-2.57l.21-28.89c0-.3.17-1,.43-2.14.29-1.39,1.14-1.29,1.6-1.82s-.21-.86-.21-.86h-4.17a5.31,5.31,0,0,0-2.14,1.07l-12.95,25.79-13-25.14c-.53-.43-2-1.69-3.21-1.72h-3.85Zm-128.42.32c-2.19,0-4.49.15-4.92.22-.86.13-.52.56.43.75a2.59,2.59,0,0,1,1.28,1l13.06,18.83.1,12.52a6.75,6.75,0,0,1-.53,2.46c-.55,1.22-1.65,1.23-1.71,1.72a.67.67,0,0,0,.53.75h9.53s.75-.09.75-.65-.35-.22-1.29-1.28a5.49,5.49,0,0,1-1-3l-.22-12.2c3-4.23,12.26-17.18,12.85-18,1.74-2.36,2.58-2,2.78-2.25.55-.58-.32-.64-.32-.64h-10s-.78-.14-.74.32,1.16.35,1.17,1.39c.06,1.45-8.56,14.12-8.56,14.12s-9.68-13.43-9.74-14.23c-.07-1.2.92-.76,1.07-1.39s-.32-.43-.32-.43-2.08,0-4.28,0Zm-161.26.11-20.23.11s-.86.32-.32.85,1.49.74,1.82,2.14.53,2.57.53,2.57l.11,26.75a10.59,10.59,0,0,1-.75,3.32c-.53.94-1.71.73-1.6,1.39s1,.65,1,.65l21.51-.11a11.31,11.31,0,0,0,.53-2.89c.38-2.54.75-4.82-.1-4.71-1.06.13-.41.95-1.82,1.82a5.26,5.26,0,0,1-3,.75l-7.27.11a3.22,3.22,0,0,1-1.82-.54c-.42-.37-.32-1.82-.32-1.82l-.11-9.74s5.84-.15,7.81,0,2.76.44,3.42,1.07.86,1.44,1.4,1.4c.36,0,.53-.86.53-.86v-8.88s-.11-.63-.64-.43S198,320.5,197.5,321a4.19,4.19,0,0,1-2,1l-8.88.1s-.26-7.74-.22-10.05c0-.42.75-.54.75-.54H195s2.33-.07,2.89.43c.78.69,1.35,2,2.25,2,.59,0,.53-1,.53-1l-.1-5.46s0-.77-.32-1a6.51,6.51,0,0,0-1.82-.11Zm31.78,0a.74.74,0,0,0-.43.43c-.2.41.12.82,1.18,1.28.82.35,1.07,2.68,1.07,2.68s.48,17.11.21,20.76a10.21,10.21,0,0,1-1.07,4.49c-.54.85-2.07,3.57-7,3.64-3.48,0-5.58-1.19-7.07-3.64a9.34,9.34,0,0,1-1.17-4.28l-.11-19.47s.12-3,.86-3.75,1.4-.87,1.39-1.5a.33.33,0,0,0-.43-.32H207.56s-.62,0-.53.54c.1.68,1.33.66,1.82,1.6a11.19,11.19,0,0,1,.75,3.53l.32,20.76a11,11,0,0,0,2.89,7.07c4.31,4.22,8,4.6,12,4.6a13.79,13.79,0,0,0,11.56-5.67,12.67,12.67,0,0,0,2-7.28l.11-20.12a10.67,10.67,0,0,1,.64-3.1c.54-1.15,1.4-.82,1.61-1.5a.65.65,0,0,0-.33-.75h-9.84a1,1,0,0,0-.32,0Zm193.8,0a3.15,3.15,0,0,0-1,.11c-.37.19-.32.85-.32.85l-.11,5.57s0,.86.54.85c.89,0,1.26-1.23,2-1.92.57-.5,2.89-.43,2.89-.43l4.92-.11.22,28.15a6.51,6.51,0,0,1-.54,2.46c-.53,1.19-1.64,1.23-1.71,1.71a.67.67,0,0,0,.54.75h9.63s.75-.08.75-.64-.36-.22-1.29-1.29a6,6,0,0,1-1.07-3V311.4h4.71s2.32-.07,2.89.43c.76.69,1,2,1.93,2,.57,0,.64-1,.64-1l-.11-5.46s.06-.67-.32-.85a4.8,4.8,0,0,0-1.6-.11l-11,.11-12-.11Zm-175.72.11s-.83,0-.85.53c0,.71,1.19.81,1.82,1.93a7.13,7.13,0,0,1,.64,3.1l.21,27.08a7,7,0,0,1-.53,2.56c-.54,1.21-1.64,1.13-1.71,1.61a.67.67,0,0,0,.53.75H258s.75,0,.75-.54-.34-.31-1.28-1.39a5.3,5.3,0,0,1-1-2.89l-.32-26.64a1.21,1.21,0,0,1,.32-1.07c.6-.5,4.85-.59,7.59.1,2.55.64,4,3.47,4,6.1a5.74,5.74,0,0,1-4.28,5.57c-2.8.93-5.36.1-5.67.64-.49.85,1.07,2.78,1.07,2.78l9.63,14.66s1.46,2.22,3.11,2.68c1.48.42,7.59,0,7.59,0l-2.89-2.36s-8-11.46-9.63-13.8a1.86,1.86,0,0,1-.21-.54,16.3,16.3,0,0,0,4.28-2.24,10.27,10.27,0,0,0,3.42-7.28,10.81,10.81,0,0,0-1.92-7.06c-2.27-3.59-8.13-4.28-8.13-4.28Zm227.94,0L456,306.8s-.85.22-.32.75,1.5.51,1.82,1.93.54,2.56.54,2.56l.1,26.65a11,11,0,0,1-.75,3.42c-.53.95-1.61.62-1.49,1.29a1,1,0,0,0,.85.75l21.4-.22s0-.11.43-2.89c.37-2.53.87-4.81,0-4.7-1,.14-.5.94-1.92,1.82a4.67,4.67,0,0,1-2.79.74l-7.27.22a3.48,3.48,0,0,1-1.72-.64c-.42-.36-.42-1.82-.42-1.82l-.11-9.74s5.83-.15,7.81,0,2.75.43,3.43,1.07c.5.47.76,1.43,1.28,1.39.37,0,.53-.85.53-.85l-.1-8.78s-.11-.74-.64-.53-.93,1.07-1.4,1.6a4.2,4.2,0,0,1-2,1l-8.88.22s-.16-7.53-.11-9.85c0-.42.64-.53.64-.53h8s2.22-.08,2.78.43c.77.69,1.13,2,2,2,.58,0,.53-1,.53-1v-5.46s.05-.67-.32-.86a6.72,6.72,0,0,0-1.71-.21Zm79.83,0-20.23.21s-.85.2-.32.75,1.49.52,1.82,1.93.54,2.56.54,2.56l.1,26.65a11,11,0,0,1-.75,3.42c-.54.93-1.71.61-1.6,1.29s1,.75,1,.75l21.3-.11a13.67,13.67,0,0,0,.53-2.89c.37-2.54.76-4.93-.1-4.81-1.06.12-.4,1-1.82,1.82a5.3,5.3,0,0,1-2.79.85l-7.27.11a3.51,3.51,0,0,1-1.72-.64c-.41-.35-.42-1.82-.42-1.82l-.11-9.74s5.83-.15,7.81,0,2.74.44,3.43,1.07c.49.46.76,1.51,1.28,1.5s.53-.86.53-.86l-.1-8.88s-.13-.74-.64-.54-.92,1.07-1.4,1.61a4.2,4.2,0,0,1-2,1l-8.88.22s-.16-7.54-.11-9.85c0-.42.64-.53.64-.53h7.92s2.33-.09,2.89.42c.76.68,1.14,2,2,2,.59,0,.53-1,.53-1v-5.45s0-.67-.32-.86a6.29,6.29,0,0,0-1.71-.21Zm-255.54,4.49c8.75,0,12.49,5.5,13.37,11.88,1.15,8.36-3,16.75-11.88,17.12a12.67,12.67,0,0,1-11.45-5.56C287.22,329.38,287.41,320,292,315,294.2,312.66,295.56,311.57,300.56,311.08Z"/></g></g></g></svg>