<svg xmlns="http://www.w3.org/2000/svg" viewBox="0 0 330.59 63.61"><defs><style>.cls-1{fill:#010101;}.cls-2{fill:#ec2227;}.cls-3{fill:#e6a024;}</style></defs><title>Fnac darty</title><g id="Layer_2" data-name="Layer 2"><g id="Layer_1-2" data-name="Layer 1"><g id="g10"><path id="path42" class="cls-1" d="M204.22,23.77,210.6,8.58,217,23.77ZM207.52.55,191.07,38.19h7.1l3.46-8.31h17.89L223,38.19h7L213.68.55Z"/><path id="path54" class="cls-1" d="M246.1,19.76h-8.53V6.88h8.53c4.63,0,8.26,2.48,8.26,6.44s-3.63,6.44-8.26,6.44m14.75-6.44c0-7.6-6.11-12.55-14.53-12.55H231V38.19h6.6V25.87h8.26l9.24,12.32h8L252.93,24.71a11.79,11.79,0,0,0,7.92-11.39"/><path id="path58" class="cls-1" d="M261.24,6.88h13.05V38.19h6.6V6.88h13V.77H261.24Z"/><path id="path62" class="cls-1" d="M323.27.77,312.2,19.1,301.2.77h-7.32l15,24.82v12.6h6.72V25.59l15-24.82Z"/><path id="path66" class="cls-1" d="M31.88.77h5L58.41,26.58V.77H65V38.19H59.78L38.49,13v25.2H31.88Z"/><path id="path70" class="cls-1" d="M80.38,23.77,86.76,8.58l6.38,15.19ZM83.68.55,67.22,38.19h7.1l3.47-8.31H95.68l3.52,8.31h7L89.84.55Z"/><path id="path74" class="cls-1" d="M123.16,6.33c5.89,0,10,3.3,11.39,9h6.82C139.61,6.05,132.57,0,123.16,0a19.14,19.14,0,0,0-19.48,19.48A19.14,19.14,0,0,0,123.16,39c9.41,0,16.45-6.05,18.21-15.3h-6.82c-1.43,5.67-5.5,9-11.39,9-7.32,0-12.77-5.4-12.77-13.16s5.45-13.15,12.77-13.15"/><path id="path76" class="cls-2" d="M226.68,63.61H159.53V59.48h67.15Z"/><path id="path78" class="cls-3" d="M159.53,63.61H92.38V59.48h67.15Z"/><path id="path82" class="cls-1" d="M29.84.77H0V38.19H6.6V23.77H24.33v-6.1H6.6V6.88H29.84Z"/><path id="path86" class="cls-1" d="M174.26,32.08h-6.9V6.88h6.9c7.49,0,13.21,5.39,13.21,12.44,0,7.21-5.72,12.76-13.21,12.76M173.88.77h-13.1V38.19h13.1c11.5,0,20-8,20-18.87,0-10.68-8.47-18.55-20-18.55"/></g></g></g></svg>