<?xml version="1.0" encoding="utf-8"?>
<!-- Generator: Adobe Illustrator 22.0.0, SVG Export Plug-In . SVG Version: 6.00 Build 0)  -->
<svg version="1.1" baseProfile="tiny" id="Layer_1" xmlns="http://www.w3.org/2000/svg" xmlns:xlink="http://www.w3.org/1999/xlink"
	 x="0px" y="0px" viewBox="0 0 281.1 355.2" xml:space="preserve">
<g>
	<path fill="#F8971D" d="M242.9,137.6c-0.2-0.5-0.4-1-0.6-1.5c-17.2,19.7-59.6,32.4-97.7,29.6c-22.5-1.7-64-13.3-85-26.1
		c22.1,21.2,48.1,37.4,77.4,46.1c34.9,10.4,72.1,9.7,93.1-1.2C245.5,174,249,155.5,242.9,137.6"/>
	<path fill="#034EA2" d="M194.9,13.7c68.7,40.6,27.9,168.2-26.8,209.2C117.2,261,63.1,243.4,51.4,208.3
		c10.2,15.2,30.6,20.8,48.6,14.7c50.2-20.1,76.1-111.1,79.4-142.7c2.2-27.2-1.3-45.5-10.8-57c-10.8-11.4-27.4-17-51.6-9.4
		C133.7,0.3,169.4-1.3,194.9,13.7"/>
	<path fill="#ED1A3B" d="M233.3,182.6c0.3-0.2,0.6-0.4,0.8-0.5c0,0,0.1-0.1,0.1-0.1c1.4-0.9,2.8-2,4.1-3.1c0.6-0.6,1.2-1.2,1.8-1.8
		c26.7-27.1,32.4-102.5-33.5-138.3c-23.5-12.7-77.9-30.5-132.3-3c-18,9.1-36.5,28-46.5,53.6c7.3-12.2,20.1-20.4,45.2-24
		c25.1-3.2,59.6,0.7,93.4,12.7c21.8,8,39.5,18,53.2,29.2c11.4,9.8,18.7,19,22.5,28.9c0.2,0.5,0.4,1,0.6,1.5
		c6.1,17.9,2.6,36.4-12.7,46.8c0,0,0,0,0,0c0.7-0.4,1.4-0.8,2.2-1.2c0.1-0.1,0.2-0.1,0.3-0.2C232.9,182.8,233.1,182.7,233.3,182.6"
		/>
	<path fill="#F8971D" d="M36.5,132.7c1.3,2,4.1,5.4,6,7.5c13.2-31,85.5-51.2,106.8-50.9c-47.9-15.4-94.9-8.1-113.7,8.3
		C28.7,105.2,26.5,116.7,36.5,132.7"/>
	<path fill="#4495D1" d="M177.5,203.1c-38.5-2.2-94.6-17-134.3-62c-0.2-0.2-0.5-0.5-0.7-0.8c-1.9-2.1-4.7-5.5-6-7.6
		c-9.9-16-7.8-27.5-0.9-35.1c0,0,0,0,0,0c-1.2,1.1-2.8,2.5-4.5,4.8c-10.2,13.2-11.4,34.5-4.5,57.1c15.1,49.1,81.3,78.7,135.1,70.5
		c34.4-5.2,55.8-24.5,64.8-32.4C207,203.1,192.6,203.9,177.5,203.1"/>
	<path fill="#ED1A3B" d="M84.5,309.3c-18.2,0-28.7,7.8-28.7,21.4c0,13.6,10.5,21.4,28.7,21.4c18.2,0,28.6-7.8,28.6-21.4
		C113.1,317.1,102.7,309.3,84.5,309.3 M84.5,342.2c-10,0-15-3.9-15-11.5c0-7.6,5-11.5,15-11.5c10,0,15,3.9,15,11.5
		C99.5,338.4,94.4,342.2,84.5,342.2z"/>
	<path fill="#ED1A3B" d="M116.8,310.3v9.2c0,0,16.4,0,17.2,0c0,0.9,0,28.3,0,28.3c0,2.7,4.1,3.7,7.6,3.7c3.5,0,7.6-1,7.6-3.7
		c0,0,0-24.6,0-28.3c0.9,0,17.3,0,17.3,0v-9.2H116.8"/>
	<path fill="#ED1A3B" d="M258.4,341.6c-4.2,0-7.1-0.7-8.7-2c-2-1.7-2.3-4.3-2.4-6.3l0-20c0-2.6-3.9-3.6-7.3-3.6
		c-3.4,0-7.3,0.9-7.3,3.6v19.4c0,7.4,2.4,12.6,7.1,15.4c5.8,3.4,16.4,3.3,26.7,3.2l12.7-0.1l0-1.9v-7.7H258.4"/>
	<path fill="#ED1A3B" d="M22.6,338.6c0,7.2,6.1,12.1,16.4,13V308h23.2v-10H1.8v10h20.8V338.6"/>
	<path fill="#ED1A3B" d="M226.8,351.2l-0.3-1.7c-3.4-16.8-22.5-35.9-26.4-38.7c-1.3-0.9-2.6-1.1-4.4-1.1c-1.8,0-3.2,0.2-4.4,1.1
		c-3.9,2.8-23,21.9-26.4,38.7l-0.3,1.7H178l0.3-1.2c0.5-2.4,1.4-5,2.6-7.6h29.6c1.2,2.6,2.1,5.2,2.6,7.6l0.2,1.2H226.8 M185.6,333.8
		c2.8-4.3,6.3-8.5,10.1-12.2c3.8,3.7,7.2,7.9,10,12.2H185.6z"/>
</g>
</svg>
