<?xml version="1.0" encoding="utf-8"?>
<!-- Generator: Adobe Illustrator 22.0.0, SVG Export Plug-In . SVG Version: 6.00 Build 0)  -->
<svg version="1.1" baseProfile="tiny" id="Layer_1" xmlns="http://www.w3.org/2000/svg" xmlns:xlink="http://www.w3.org/1999/xlink"
	 x="0px" y="0px" viewBox="0 0 829.3 246.9" xml:space="preserve">
<g>
	<g>
		<path fill="#F8971D" d="M223,137.4c-0.2-0.5-0.4-1-0.6-1.5c-17.2,19.7-59.6,32.4-97.7,29.6c-22.5-1.7-64-13.3-85-26.1
			c22.1,21.2,48.1,37.4,77.4,46.1c34.9,10.4,72.1,9.7,93.1-1.2C225.6,173.8,229.1,155.3,223,137.4"/>
		<path fill="#034EA2" d="M174.9,13.6c68.7,40.6,27.9,168.2-26.8,209.2c-50.8,38.1-104.9,20.6-116.7-14.6
			C41.6,223.4,62,229,80,222.9c50.2-20.1,76.1-111.1,79.4-142.7c2.2-27.2-1.3-45.5-10.8-57c-10.8-11.4-27.4-17-51.6-9.4
			C113.8,0.1,149.5-1.5,174.9,13.6"/>
		<path fill="#ED1A3B" d="M213.4,182.4c0.3-0.2,0.6-0.4,0.8-0.5l0.1-0.1c1.4-0.9,2.8-2,4.1-3.1c0.6-0.6,1.2-1.2,1.8-1.8
			c26.7-27.1,32.4-102.5-33.5-138.3c-23.5-12.7-77.9-30.5-132.3-3c-18,9.1-36.5,28-46.5,53.6C15.2,77,28,68.8,53.1,65.2
			c25.1-3.2,59.6,0.7,93.4,12.7c21.8,8,39.5,18,53.2,29.2c11.4,9.8,18.7,19,22.5,28.9c0.2,0.5,0.4,1,0.6,1.5
			c6.1,17.9,2.6,36.4-12.7,46.8l0,0c0.7-0.4,1.4-0.8,2.2-1.2c0.1-0.1,0.2-0.1,0.3-0.2C213,182.7,213.2,182.6,213.4,182.4"/>
		<path fill="#F8971D" d="M16.6,132.5c1.3,2,4.1,5.4,6,7.5c13.2-31,85.5-51.2,106.8-50.9C81.5,73.7,34.5,81,15.7,97.4
			C8.8,105.1,6.6,116.5,16.6,132.5"/>
		<path fill="#4495D1" d="M157.6,202.9c-38.5-2.2-94.6-17-134.3-62c-0.2-0.2-0.5-0.5-0.7-0.8c-1.9-2.1-4.7-5.5-6-7.6
			c-9.9-16-7.8-27.5-0.9-35.1l0,0c-1.2,1.1-2.8,2.5-4.5,4.8C1,115.4-0.2,136.7,6.7,159.3C21.8,208.4,88,238,141.8,229.8
			c34.4-5.2,55.8-24.5,64.8-32.4C187.1,203,172.7,203.8,157.6,202.9"/>
	</g>
	<g>
		<path fill="#ED1A3B" d="M454,89.6c-35,0-55.1,15-55.1,41.1s20.1,41.1,55.1,41.1s55.1-15,55.1-41.1S489,89.6,454,89.6 M454,152.8
			c-19.2,0-28.9-7.4-28.9-22.1s9.7-22.1,28.9-22.1c19.1,0,28.9,7.4,28.9,22.1C482.8,145.4,473.1,152.8,454,152.8z"/>
		<path fill="#ED1A3B" d="M516.2,91.5v17.7c0,0,31.5,0,33.2,0c0,1.7,0,54.4,0,54.4c0,5.2,7.9,7.1,14.6,7.1c6.8,0,14.6-1.9,14.6-7.1
			c0,0,0-47.3,0-54.5c1.7,0,33.2,0,33.2,0V91.4L516.2,91.5"/>
		<path fill="#ED1A3B" d="M788.3,151.7c-8,0-13.6-1.3-16.7-3.9c-3.9-3.3-4.4-8.3-4.5-12.1V97.3c0-5-7.5-6.9-14-6.9
			S739,92.2,739,97.2v37.2c0,14.2,4.5,24.2,13.6,29.6c11.2,6.5,31.6,6.3,51.3,6.1l24.4-0.1v-3.6v-14.8L788.3,151.7"/>
		<path fill="#ED1A3B" d="M335,145.9c0,13.9,11.7,23.3,31.5,24.9V87H411V67.7H295.1V87H335V145.9"/>
		<path fill="#ED1A3B" d="M727.7,170.1l-0.7-3.2c-6.5-32.2-43.2-69-50.7-74.4c-2.4-1.8-5-2.1-8.5-2.2c-3.5,0.1-6.1,0.4-8.6,2.2
			c-7.5,5.4-44.1,42.2-50.7,74.4l-0.7,3.2h25.9l0.5-2.3c1-4.7,2.7-9.6,5-14.6h57c2.2,5,4,10,5,14.6l0.5,2.3H727.7 M648.5,136.7
			c5.5-8.3,12.1-16.3,19.4-23.5c7.3,7.2,13.9,15.3,19.3,23.5H648.5z"/>
	</g>
</g>
</svg>
