<svg xmlns="http://www.w3.org/2000/svg" xmlns:xlink="http://www.w3.org/1999/xlink" viewBox="0 0 289.52 289.52"><defs><style>.cls-1{fill:none;}.cls-2{clip-path:url(#clip-path);}.cls-3{fill:url(#radial-gradient);}.cls-4{fill:#fff;}</style><clipPath id="clip-path"><rect id="SVGID" class="cls-1" width="289.52" height="289.52"/></clipPath><radialGradient id="radial-gradient" cx="-3044.69" cy="3479.36" r="12.77" gradientTransform="translate(76026.27 -86548.58) scale(24.88)" gradientUnits="userSpaceOnUse"><stop offset="0" stop-color="#ee2c28"/><stop offset="0.04" stop-color="#ee2c28"/><stop offset="0.25" stop-color="#e92b29"/><stop offset="0.46" stop-color="#df2927"/><stop offset="0.67" stop-color="#cc2028"/><stop offset="0.87" stop-color="#b02028"/><stop offset="1" stop-color="#9b1c29"/></radialGradient></defs><title>SFR</title><g id="Layer_2" data-name="Layer 2"><g id="Layer_1-2" data-name="Layer 1"><g class="cls-2"><rect class="cls-3" width="289.52" height="289.52"/></g><g class="cls-2"><path class="cls-4" d="M65,170.7l11.75-6.89c5.33,8.57,11.18,11.81,20.38,11.81,7.94,0,15.87-6.08,15.87-14.18,0-9.33-7.7-11.76-20.21-14.83-9.38-2.31-25.94-9.26-25.94-25.94,0-13.84,12.8-25.13,29.59-25.53,15.34-.35,23.8,6.71,29.76,15.22l-11.75,6.78c-4.81-5.44-9.73-8.74-17.84-8.57-9,.23-14.3,4.52-14.3,11.64,0,8.68,7.87,11.17,20.15,14.53,12.85,3.53,26.93,9.32,26.06,27-.7,13.78-13.09,27.22-31.21,27.39C81.82,189.35,71.69,183,65,170.7"/></g><g class="cls-2"><polygon class="cls-4" points="143.2 97.05 198.09 97.05 198.09 111.29 157.9 111.29 157.96 135.9 192.53 135.84 192.59 149.91 157.9 149.85 157.9 186.97 143.14 186.97 143.2 97.05"/></g><g class="cls-2"><path class="cls-4" d="M210.36,97.05h30.87c18.82-.64,33.23,5.56,33.47,25.76.11,13.15-5.5,22.41-20.21,25.95L277.94,187H260.1l-19.91-36.19H225.25L225.3,187h-15Zm28,40.12c10.31,0,21.14-.29,20.9-14.12-.17-10.66-8.39-12.74-19.34-12.63l-14.59.12v26.58Z"/></g></g></g></svg>