<svg xmlns="http://www.w3.org/2000/svg" xmlns:xlink="http://www.w3.org/1999/xlink" viewBox="0 0 775.65 773.5"><defs><style>.cls-1{isolation:isolate;}.cls-2,.cls-3{fill:#231f20;mix-blend-mode:multiply;}.cls-2{opacity:0.05;}.cls-3,.cls-41,.cls-42,.cls-43,.cls-44,.cls-45{opacity:0.1;}.cls-10,.cls-11,.cls-12,.cls-13,.cls-14,.cls-15,.cls-16,.cls-17,.cls-18,.cls-19,.cls-20,.cls-21,.cls-22,.cls-23,.cls-24,.cls-25,.cls-4,.cls-5,.cls-6,.cls-7,.cls-8,.cls-9{fill:none;}.cls-22,.cls-23,.cls-24,.cls-25,.cls-4,.cls-5,.cls-6{stroke:#fff;stroke-miterlimit:10;}.cls-10,.cls-11,.cls-12,.cls-13,.cls-14,.cls-15,.cls-16,.cls-17,.cls-18,.cls-19,.cls-20,.cls-21,.cls-22,.cls-23,.cls-4,.cls-5,.cls-6,.cls-7,.cls-8,.cls-9{stroke-linecap:round;}.cls-4{stroke-width:3.24px;stroke-dasharray:0 8.12;}.cls-10,.cls-11,.cls-12,.cls-13,.cls-14,.cls-15,.cls-16,.cls-17,.cls-18,.cls-19,.cls-20,.cls-21,.cls-5,.cls-7,.cls-8,.cls-9{stroke-width:2.43px;}.cls-5{stroke-dasharray:0 7.76;}.cls-23,.cls-24,.cls-25,.cls-6{stroke-width:1.62px;}.cls-10,.cls-11,.cls-12,.cls-13,.cls-14,.cls-15,.cls-16,.cls-17,.cls-18,.cls-19,.cls-20,.cls-21,.cls-7,.cls-8,.cls-9{stroke-linejoin:round;}.cls-7{stroke:url(#Dégradé_sans_nom_142);}.cls-8{stroke-dasharray:0 7.08;stroke:url(#Dégradé_sans_nom_142-2);}.cls-9{stroke:url(#Dégradé_sans_nom_142-3);}.cls-10{stroke:url(#Dégradé_sans_nom_142-4);}.cls-11{stroke-dasharray:0 7.21;stroke:url(#Dégradé_sans_nom_142-5);}.cls-12{stroke:url(#Dégradé_sans_nom_142-6);}.cls-13{stroke:url(#Dégradé_sans_nom_142-7);}.cls-14{stroke-dasharray:0 7.24;stroke:url(#Dégradé_sans_nom_142-8);}.cls-15{stroke:url(#Dégradé_sans_nom_142-9);}.cls-16{stroke:url(#Dégradé_sans_nom_142-10);}.cls-17{stroke-dasharray:0 7.39;stroke:url(#Dégradé_sans_nom_142-11);}.cls-18{stroke:url(#Dégradé_sans_nom_142-12);}.cls-19{stroke:url(#Dégradé_sans_nom_142-13);}.cls-20{stroke-dasharray:0 7.05;stroke:url(#Dégradé_sans_nom_142-14);}.cls-21{stroke:url(#Dégradé_sans_nom_142-15);}.cls-22{stroke-width:6.48px;}.cls-22,.cls-23,.cls-24,.cls-46{opacity:0.8;}.cls-26{fill:#000e34;}.cls-27{fill:url(#Dégradé_sans_nom_142-16);}.cls-28{fill:url(#Dégradé_sans_nom_142-17);}.cls-29{fill:url(#Dégradé_sans_nom_142-18);}.cls-30{fill:url(#Dégradé_sans_nom_142-19);}.cls-31{fill:url(#Dégradé_sans_nom_142-20);}.cls-32{fill:url(#Dégradé_sans_nom_142-21);}.cls-33,.cls-34,.cls-47{fill:#fff;}.cls-34{font-size:13.78px;font-family:Akrobat-Black, Akrobat;font-weight:800;}.cls-35{letter-spacing:-0.01em;}.cls-36{letter-spacing:0em;}.cls-37{letter-spacing:0em;}.cls-38{letter-spacing:-0.01em;}.cls-39{letter-spacing:0em;}.cls-40{letter-spacing:-0.01em;}.cls-41{fill:url(#Dégradé_sans_nom_149);}.cls-42{fill:url(#Dégradé_sans_nom_149-2);}.cls-43{fill:url(#Dégradé_sans_nom_149-3);}.cls-44{fill:url(#Dégradé_sans_nom_149-4);}.cls-45{fill:url(#Dégradé_sans_nom_149-5);}.cls-47{opacity:0.3;}</style><linearGradient id="Dégradé_sans_nom_142" x1="249.14" y1="559.35" x2="354.01" y2="559.35" gradientUnits="userSpaceOnUse"><stop offset="0" stop-color="#e6bc24"/><stop offset="0.42" stop-color="#e6a727"/><stop offset="1" stop-color="#e5842b"/></linearGradient><linearGradient id="Dégradé_sans_nom_142-2" x1="249.14" y1="583.86" x2="354.01" y2="583.86" xlink:href="#Dégradé_sans_nom_142"/><linearGradient id="Dégradé_sans_nom_142-3" x1="249.14" y1="604.63" x2="354.01" y2="604.63" xlink:href="#Dégradé_sans_nom_142"/><linearGradient id="Dégradé_sans_nom_142-4" x1="221.08" y1="277.56" x2="264.62" y2="277.56" xlink:href="#Dégradé_sans_nom_142"/><linearGradient id="Dégradé_sans_nom_142-5" x1="221.08" y1="387.96" x2="264.62" y2="387.96" xlink:href="#Dégradé_sans_nom_142"/><linearGradient id="Dégradé_sans_nom_142-6" x1="221.08" y1="495.59" x2="264.62" y2="495.59" xlink:href="#Dégradé_sans_nom_142"/><linearGradient id="Dégradé_sans_nom_142-7" x1="444.64" y1="358.05" x2="567.09" y2="358.05" xlink:href="#Dégradé_sans_nom_142"/><linearGradient id="Dégradé_sans_nom_142-8" x1="444.64" y1="284.05" x2="567.09" y2="284.05" xlink:href="#Dégradé_sans_nom_142"/><linearGradient id="Dégradé_sans_nom_142-9" x1="444.64" y1="215.97" x2="567.09" y2="215.97" xlink:href="#Dégradé_sans_nom_142"/><linearGradient id="Dégradé_sans_nom_142-10" x1="172.65" y1="167.3" x2="369.47" y2="167.3" xlink:href="#Dégradé_sans_nom_142"/><linearGradient id="Dégradé_sans_nom_142-11" x1="172.65" y1="249.27" x2="369.47" y2="249.27" xlink:href="#Dégradé_sans_nom_142"/><linearGradient id="Dégradé_sans_nom_142-12" x1="172.65" y1="334.05" x2="369.47" y2="334.05" xlink:href="#Dégradé_sans_nom_142"/><linearGradient id="Dégradé_sans_nom_142-13" x1="569.72" y1="542.19" x2="609.34" y2="542.19" xlink:href="#Dégradé_sans_nom_142"/><linearGradient id="Dégradé_sans_nom_142-14" x1="569.72" y1="511.28" x2="609.34" y2="511.28" xlink:href="#Dégradé_sans_nom_142"/><linearGradient id="Dégradé_sans_nom_142-15" x1="569.72" y1="482.59" x2="609.34" y2="482.59" xlink:href="#Dégradé_sans_nom_142"/><linearGradient id="Dégradé_sans_nom_142-16" x1="314.33" y1="374.43" x2="457.54" y2="403.26" xlink:href="#Dégradé_sans_nom_142"/><linearGradient id="Dégradé_sans_nom_142-17" x1="314.33" y1="60.45" x2="457.54" y2="89.27" xlink:href="#Dégradé_sans_nom_142"/><linearGradient id="Dégradé_sans_nom_142-18" x1="46.81" y1="460.35" x2="100.07" y2="324.32" xlink:href="#Dégradé_sans_nom_142"/><linearGradient id="Dégradé_sans_nom_142-19" x1="461.85" y1="691.38" x2="317.42" y2="713.27" xlink:href="#Dégradé_sans_nom_142"/><linearGradient id="Dégradé_sans_nom_142-20" x1="703.32" y1="315.58" x2="699.8" y2="461.62" xlink:href="#Dégradé_sans_nom_142"/><linearGradient id="Dégradé_sans_nom_142-21" x1="384.86" y1="388.37" x2="390.79" y2="389.56" xlink:href="#Dégradé_sans_nom_142"/><linearGradient id="Dégradé_sans_nom_149" x1="386.95" y1="83.66" x2="429.17" y2="0.11" gradientUnits="userSpaceOnUse"><stop offset="0" stop-color="#fff"/><stop offset="0.15" stop-color="#fcfcfc"/><stop offset="0.28" stop-color="#f1f1f1"/><stop offset="0.4" stop-color="#dfdfdf"/><stop offset="0.51" stop-color="#c6c6c6"/><stop offset="0.63" stop-color="#a5a5a5"/><stop offset="0.74" stop-color="#7d7d7d"/><stop offset="0.85" stop-color="#4e4e4e"/><stop offset="0.96" stop-color="#181818"/><stop offset="1"/></linearGradient><linearGradient id="Dégradé_sans_nom_149-2" x1="699.96" y1="399.77" x2="742.18" y2="316.22" xlink:href="#Dégradé_sans_nom_149"/><linearGradient id="Dégradé_sans_nom_149-3" x1="386" y1="398.15" x2="428.23" y2="314.6" xlink:href="#Dégradé_sans_nom_149"/><linearGradient id="Dégradé_sans_nom_149-4" x1="386.27" y1="711.56" x2="428.5" y2="628.01" xlink:href="#Dégradé_sans_nom_149"/><linearGradient id="Dégradé_sans_nom_149-5" x1="72.36" y1="399.5" x2="114.58" y2="315.95" xlink:href="#Dégradé_sans_nom_149"/></defs><title>element principale</title><g class="cls-1"><g id="Layer_2" data-name="Layer 2"><g id="Calque_1" data-name="Calque 1"><circle class="cls-2" cx="387.83" cy="386.75" r="169.67"/><circle class="cls-3" cx="387.83" cy="386.75" r="315.13"/><circle class="cls-4" cx="387.83" cy="386.75" r="313.99"/><circle class="cls-5" cx="387.83" cy="386.75" r="96.3"/><circle class="cls-6" cx="387.83" cy="386.75" r="113.86"/><line class="cls-7" x1="250.35" y1="559.35" x2="250.35" y2="559.35"/><path class="cls-8" d="M256,563.67a219.65,219.65,0,0,0,93.36,40.38"/><line class="cls-9" x1="352.8" y1="604.63" x2="352.8" y2="604.63"/><line class="cls-10" x1="263.41" y1="277.56" x2="263.41" y2="277.56"/><path class="cls-11" d="M258.77,283.08a165.55,165.55,0,0,0,2,209.76"/><line class="cls-12" x1="263.1" y1="495.59" x2="263.1" y2="495.59"/><line class="cls-13" x1="565.88" y1="358.05" x2="565.88" y2="358.05"/><path class="cls-14" d="M564.59,350.93A180.62,180.62,0,0,0,449.27,217.17"/><line class="cls-15" x1="445.86" y1="215.97" x2="445.86" y2="215.97"/><line class="cls-16" x1="368.26" y1="167.3" x2="368.26" y2="167.3"/><path class="cls-17" d="M360.91,168.07c-90.14,11-163.48,76.41-186.14,162.4"/><line class="cls-18" x1="173.86" y1="334.05" x2="173.86" y2="334.05"/><line class="cls-19" x1="570.94" y1="542.19" x2="570.94" y2="542.19"/><path class="cls-20" d="M575.42,536.75a240.3,240.3,0,0,0,31.28-50.94"/><line class="cls-21" x1="608.13" y1="482.59" x2="608.13" y2="482.59"/><path class="cls-6" d="M171.7,431.79A219.41,219.41,0,0,0,207,513.39"/><path class="cls-6" d="M437.85,622.55a239.52,239.52,0,0,0,76.75-30.81"/><path class="cls-6" d="M539.68,484.33a179.58,179.58,0,0,0,25.4-63.46"/><path class="cls-6" d="M508.87,203.11a218.71,218.71,0,0,0-77.95-32.06"/><path class="cls-6" d="M366.27,222.61a164.57,164.57,0,0,0-72.7,28"/><circle class="cls-22" cx="387.83" cy="386.75" r="282.1"/><circle class="cls-23" cx="387.83" cy="386.75" r="292.1"/><line class="cls-24" x1="387.83" y1="317.01" x2="387.83" y2="142.51"/><line class="cls-24" x1="336.5" y1="337.02" x2="143.86" y2="144.38"/><line class="cls-25" x1="316.34" y1="384.21" x2="145.01" y2="384.21"/><line class="cls-24" x1="336.5" y1="436.64" x2="139.24" y2="633.85"/><line class="cls-24" x1="387.83" y1="458.49" x2="387.83" y2="631"/><line class="cls-24" x1="434.96" y1="440.06" x2="628.36" y2="633.46"/><line class="cls-24" x1="458.27" y1="384.21" x2="632.78" y2="384.21"/><line class="cls-24" x1="435.52" y1="333.98" x2="626.88" y2="142.62"/><polygon class="cls-26" points="412.42 456.49 363.23 456.49 325.55 424.88 317.01 376.43 341.6 333.83 387.83 317.01 434.05 333.83 458.64 376.43 450.1 424.88 412.42 456.49"/><path class="cls-27" d="M387.83,317l46.22,16.82,24.59,42.6-8.54,48.44-37.68,31.62H363.23l-37.68-31.62L317,376.43l24.59-42.6L387.83,317m0-3a3.12,3.12,0,0,0-1,.18L340.57,331a3,3,0,0,0-1.58,1.33l-24.6,42.6a3.09,3.09,0,0,0-.36,2l8.54,48.44a3,3,0,0,0,1,1.79l37.68,31.62a3,3,0,0,0,1.94.71h49.19a3,3,0,0,0,1.95-.71l37.68-31.62a3,3,0,0,0,1-1.79L461.62,377a3,3,0,0,0-.36-2l-24.59-42.6a3.1,3.1,0,0,0-1.59-1.33l-46.22-16.82a3,3,0,0,0-1-.18Z"/><polygon class="cls-26" points="412.42 142.51 363.23 142.51 325.55 110.89 317.01 62.45 341.6 19.85 387.83 3.02 434.05 19.85 458.64 62.45 450.1 110.89 412.42 142.51"/><path class="cls-28" d="M387.83,3l46.22,16.83,24.59,42.6-8.54,48.44-37.68,31.62H363.23l-37.68-31.62L317,62.45l24.59-42.6L387.83,3m0-3a3.12,3.12,0,0,0-1,.18L340.57,17A3,3,0,0,0,339,18.34l-24.6,42.6a3.05,3.05,0,0,0-.36,2l8.54,48.44a3.07,3.07,0,0,0,1,1.8l37.68,31.61a3,3,0,0,0,1.94.71h49.19a3,3,0,0,0,1.95-.71l37.68-31.61a3.05,3.05,0,0,0,1-1.8L461.62,63a2.94,2.94,0,0,0-.36-2l-24.59-42.6A3,3,0,0,0,435.08,17L388.86.18a3,3,0,0,0-1-.18Z"/><polygon class="cls-26" points="144.66 377.99 136.12 426.44 98.44 458.05 49.25 458.05 11.56 426.44 3.02 377.99 27.62 335.39 73.84 318.57 120.06 335.39 144.66 377.99"/><path class="cls-29" d="M73.84,318.57l46.22,16.82,24.6,42.6-8.54,48.44L98.44,458.05H49.25L11.57,426.43,3,378l24.6-42.6,46.22-16.82m0-3a3,3,0,0,0-1,.18L26.58,332.55A3.07,3.07,0,0,0,25,333.88L.41,376.48a3,3,0,0,0-.36,2L8.59,427a3,3,0,0,0,1,1.79L47.3,460.37a3,3,0,0,0,2,.71H98.44a3,3,0,0,0,1.94-.71l37.68-31.62a3,3,0,0,0,1-1.79l8.54-48.44a3.09,3.09,0,0,0-.36-2l-24.6-42.6a3,3,0,0,0-1.58-1.33L74.88,315.73a3.12,3.12,0,0,0-1-.18Z"/><polygon class="cls-26" points="341.6 647.82 387.83 631 434.05 647.82 458.64 690.42 450.1 738.86 412.42 770.48 363.23 770.48 325.55 738.86 317.01 690.42 341.6 647.82"/><path class="cls-30" d="M387.83,631l46.22,16.82,24.59,42.6-8.54,48.44-37.68,31.62H363.23l-37.68-31.62L317,690.42l24.59-42.6L387.83,631m0-3a3.12,3.12,0,0,0-1,.18L340.57,645a3,3,0,0,0-1.58,1.33l-24.6,42.6a3.05,3.05,0,0,0-.36,2l8.54,48.45a3,3,0,0,0,1,1.79l37.68,31.62a3,3,0,0,0,1.94.7h49.19a3.09,3.09,0,0,0,1.95-.7l37.68-31.62a3,3,0,0,0,1-1.79l8.54-48.45a2.94,2.94,0,0,0-.36-2l-24.59-42.6a3,3,0,0,0-1.59-1.33l-46.22-16.83a3,3,0,0,0-1-.18Z"/><polygon class="cls-26" points="639.54 426.44 631 377.99 655.59 335.39 701.81 318.57 748.04 335.39 772.63 377.99 764.09 426.44 726.41 458.05 677.22 458.05 639.54 426.44"/><path class="cls-31" d="M701.81,318.57,748,335.39,772.63,378l-8.54,48.44-37.68,31.62H677.22l-37.68-31.62L631,378l24.59-42.6,46.22-16.82m0-3a3,3,0,0,0-1,.18l-46.22,16.82a3.06,3.06,0,0,0-1.59,1.33l-24.59,42.6a3,3,0,0,0-.36,2L636.56,427a3,3,0,0,0,1,1.79l37.68,31.62a3,3,0,0,0,2,.71h49.19a3,3,0,0,0,1.94-.71L766,428.75a3,3,0,0,0,1-1.79l8.54-48.44a3.09,3.09,0,0,0-.36-2l-24.6-42.6a3,3,0,0,0-1.58-1.33l-46.22-16.82a3.12,3.12,0,0,0-1-.18Z"/><path class="cls-32" d="M387.83,392a3,3,0,1,1,3-3A3,3,0,0,1,387.83,392Z"/><path class="cls-26" d="M387.83,387.46a1.51,1.51,0,1,1-1.51,1.51,1.51,1.51,0,0,1,1.51-1.51m0-3a4.54,4.54,0,1,0,4.53,4.54,4.55,4.55,0,0,0-4.53-4.54Z"/><path class="cls-33" d="M406.11,59.7a13,13,0,0,0-10.17,4.93l-.48-.26-.11,0-5.64-2V60.16a.8.8,0,0,0-.41-.73l-.06,0h0L386,58.06v-.55a14.19,14.19,0,0,0,8.88-12.6,4.26,4.26,0,0,0,2.72-5,3.35,3.35,0,0,0-2.22-2.42l.27-3.91a15.05,15.05,0,1,0-30,0l.27,3.91a3.36,3.36,0,0,0-2.24,2.42,4.25,4.25,0,0,0,2.75,5,14.26,14.26,0,0,0,9,12.62V58l-3.27,1.34h0a.36.36,0,0,0-.11,0,.85.85,0,0,0-.47.73v2.15l-5.59,2-.07,0a8,8,0,0,0-4.4,6.49s0,0,0,.07V81a.88.88,0,0,0,.85.86h13.86l4.11,3.27a.85.85,0,0,0,1,0l4.11-3.27H397a13,13,0,1,0,9.13-22.19ZM385.57,80.23,383.4,68.5l.94.62a.82.82,0,0,0,1.12-.19l3.78-5.05,4,1.44a8.05,8.05,0,0,0-2.94,5.54.21.21,0,0,0,0,.07v9.3ZM383,66.2h0l-.81-.53,5.93-4v.94l-3.48,4.67L383,66.22Zm9,4.77a6.71,6.71,0,0,1,2.95-4.81,13,13,0,0,0,.7,14.07h-3.65Zm-4.77-10.64L386,61.1V59.85ZM370.83,23.38A13.39,13.39,0,0,1,394,33.44L393.68,38a.53.53,0,0,1-.17.36l-.1.09-1.77-7.29a.56.56,0,0,0,0-.12,6.45,6.45,0,0,0-5.62-3.9l-1.32-.06a.84.84,0,0,0-.71.35,12.18,12.18,0,0,1-11.22,5l-2.21-.23A1.39,1.39,0,0,0,369,33.47l-.4,5c-.28-.1-.61-.22-.9-.34a.26.26,0,0,1-.13-.22l-.31-4.44a13.27,13.27,0,0,1,3.57-10.06Zm-2.77,20.91v0a.85.85,0,0,0-.71-.81,2.62,2.62,0,0,1-2.09-3.18,1.68,1.68,0,0,1,1.07-1.21,2.11,2.11,0,0,0,.63.52l.07,0c2.22.89,2.44.75,2.75.56a.89.89,0,0,0,.4-.66l.45-5.64,1.92.21A13.84,13.84,0,0,0,385,28.72l.87,0a4.78,4.78,0,0,1,4.15,2.83l2.08,8.6a.86.86,0,0,0,.57.6.84.84,0,0,0,.8-.19l1.14-1.06a2.17,2.17,0,0,0,.36-.44,1.69,1.69,0,0,1,1,1.18,2.64,2.64,0,0,1,.08.62A2.57,2.57,0,0,1,394,43.46a.8.8,0,0,0-.65.81v0a12.62,12.62,0,0,1-25.24,0Zm12.58,14.28a13.14,13.14,0,0,0,3.69-.5v4.14l-3.66,2.47L377,62.22V58.09a13.71,13.71,0,0,0,3.61.48ZM371.1,80.23v-9.3s0,0,0-.07a8.09,8.09,0,0,0-2.95-5.55l4-1.43,3.78,5.05a.83.83,0,0,0,1.12.19l1.21-.79L376,80.23Zm2.06-18.53,6,4-2.46,1.64-3.52-4.67Zm2.21-.59-1.19-.79,1.19-.49ZM363.1,71A6.3,6.3,0,0,1,366.27,66,6.64,6.64,0,0,1,369.44,71v9.26H363.1Zm17.67,12.47-3.23-2.59L380.11,67l.55-.36.81.54L384,80.85Zm25.34.53a11.31,11.31,0,1,1,11.3-11.31A11.31,11.31,0,0,1,406.11,84Z"/><path class="cls-33" d="M411,68.61,404.53,75l-3.36-3.28a.83.83,0,0,0-.81-.21.81.81,0,0,0-.58.59.84.84,0,0,0,.23.8L404,76.72a.84.84,0,0,0,1.16,0l7.09-6.93a.84.84,0,0,0,.23-.8.82.82,0,0,0-.58-.6.86.86,0,0,0-.81.22Z"/><path class="cls-33" d="M45.45,365a1,1,0,0,0-.71.94v5.8a1,1,0,0,0,.71.94l3.51,1a25.94,25.94,0,0,0,.92,3.46l-2.54,2.59a1,1,0,0,0-.19,1.08,29.43,29.43,0,0,0,3,5.19,1,1,0,0,0,1,.37l3.52-.9A25.18,25.18,0,0,0,57.23,388l-.9,3.52a1,1,0,0,0,.37,1,29.43,29.43,0,0,0,5.19,3,1,1,0,0,0,1.08-.19l2.59-2.54a24.51,24.51,0,0,0,3.46.92l1,3.51a1,1,0,0,0,.94.71h5.8a1,1,0,0,0,.94-.71l1-3.51a24.15,24.15,0,0,0,3.46-.92l2.6,2.54a1,1,0,0,0,1.08.19,29.71,29.71,0,0,0,5.18-3,1,1,0,0,0,.38-1l-.9-3.52A25.08,25.08,0,0,0,93,385.47l3.52.91a1,1,0,0,0,1-.38,29.43,29.43,0,0,0,3-5.19,1,1,0,0,0-.19-1.08l-2.54-2.59a24.51,24.51,0,0,0,.92-3.46l3.51-1a1,1,0,0,0,.71-.94V366a1,1,0,0,0-.71-.94l-3.51-1a24.15,24.15,0,0,0-.92-3.46l2.54-2.6a1,1,0,0,0,.19-1.08,29.08,29.08,0,0,0-3-5.18,1,1,0,0,0-1-.38l-3.52.9a25,25,0,0,0-2.52-2.52l.9-3.52a1,1,0,0,0-.37-1,30.16,30.16,0,0,0-5.19-3,1,1,0,0,0-1.08.19l-2.6,2.54a24.38,24.38,0,0,0-3.45-.92l-1-3.51a1,1,0,0,0-.94-.71h-5.8a1,1,0,0,0-.94.71L69,344a24.51,24.51,0,0,0-3.46.92L63,342.36a1,1,0,0,0-1.08-.19,29.43,29.43,0,0,0-5.19,3,1,1,0,0,0-.37,1l.9,3.52a25.08,25.08,0,0,0-2.53,2.52l-3.52-.9a1,1,0,0,0-1,.38,29.71,29.71,0,0,0-3,5.18,1,1,0,0,0,.19,1.08l2.54,2.6A25.54,25.54,0,0,0,49,364Zm6.25-5.36-2.49-2.56a27.78,27.78,0,0,1,2.14-3.7l3.46.88a1,1,0,0,0,1-.32,23.89,23.89,0,0,1,3.14-3.14,1,1,0,0,0,.33-1l-.89-3.46a26.84,26.84,0,0,1,3.71-2.14l2.55,2.49a1,1,0,0,0,1,.22A23.63,23.63,0,0,1,70,345.79a1,1,0,0,0,.78-.7l1-3.38H76l1,3.38a1,1,0,0,0,.78.7A22.84,22.84,0,0,1,82,346.94a1,1,0,0,0,1-.22l2.56-2.49a26.73,26.73,0,0,1,3.7,2.14l-.88,3.46a1,1,0,0,0,.32,1A23.89,23.89,0,0,1,91.88,354a1,1,0,0,0,1,.32l3.46-.88a26.73,26.73,0,0,1,2.14,3.7L96,359.66a1,1,0,0,0-.21,1A23.6,23.6,0,0,1,96.91,365a1,1,0,0,0,.7.78l3.38.95V371l-3.38,1a1,1,0,0,0-.7.78A23.6,23.6,0,0,1,95.77,377a1,1,0,0,0,.21,1l2.49,2.56a27.33,27.33,0,0,1-2.14,3.7l-3.46-.89a1,1,0,0,0-1,.33,23.89,23.89,0,0,1-3.14,3.14,1,1,0,0,0-.32,1l.88,3.46a26.73,26.73,0,0,1-3.7,2.14L83,391a1,1,0,0,0-1-.22,23.63,23.63,0,0,1-4.29,1.15,1,1,0,0,0-.78.7L76,396H71.68l-1-3.38a1,1,0,0,0-.78-.7,23.63,23.63,0,0,1-4.29-1.15,1,1,0,0,0-1,.22l-2.55,2.49a26.84,26.84,0,0,1-3.71-2.14l.89-3.46a1,1,0,0,0-.33-1,24.51,24.51,0,0,1-3.14-3.14,1,1,0,0,0-1-.33l-3.46.89a27.89,27.89,0,0,1-2.14-3.71l2.49-2.55a1,1,0,0,0,.22-1,23.63,23.63,0,0,1-1.15-4.29,1,1,0,0,0-.69-.78l-3.39-1V366.7l3.39-.95a1,1,0,0,0,.69-.78,23.63,23.63,0,0,1,1.15-4.29A1,1,0,0,0,51.7,359.66Z"/><path class="cls-33" d="M73.84,388.36a19.5,19.5,0,1,0-19.5-19.5A19.5,19.5,0,0,0,73.84,388.36Zm-17.5-20.48a17.49,17.49,0,0,1,4.44-10.7l2,2,1.38-1.38-2-2a17.46,17.46,0,0,1,10.71-4.44v2.88h1.95v-2.88a17.44,17.44,0,0,1,10.7,4.44l-2,2,1.38,1.38,2-2a17.44,17.44,0,0,1,4.44,10.7H88.46v1.95h2.88a17.46,17.46,0,0,1-4.44,10.71l-2-2-1.38,1.38,2,2a17.49,17.49,0,0,1-10.7,4.44v-2.88H72.87v2.88a17.52,17.52,0,0,1-10.71-4.44l2-2-1.38-1.38-2,2a17.52,17.52,0,0,1-4.44-10.71h2.88v-1.95Z"/><path class="cls-33" d="M73.84,372.76a3.91,3.91,0,0,0,3.9-3.9,1.09,1.09,0,0,0,0-.18l4.72-7.08a1,1,0,0,0-1.35-1.35L74,365h-.18a3.9,3.9,0,0,0,0,7.8Zm0-5.85a1.27,1.27,0,0,1,.28,0,1,1,0,0,0,.69-.15l3.31-2.21-2.21,3.31a1.1,1.1,0,0,0-.15.71,1.15,1.15,0,0,1,0,.26,2,2,0,1,1-2-1.95Z"/><path class="cls-33" d="M405.69,666.55a13.79,13.79,0,0,0-1.82.12A17.85,17.85,0,0,0,369,670.8c-.36,0-.72,0-1.08,0a11.56,11.56,0,0,0,0,23.12H370V697a1,1,0,0,0,1,1.05h2.1v2.1H371a1,1,0,0,0-1,1.05v8.4a1,1,0,0,0,1,1h33.62a1,1,0,0,0,1.05-1v-8.4a1,1,0,0,0-1.05-1.05h-2.11v-2.1h2.11a1,1,0,0,0,1.05-1.05v-3.15a13.66,13.66,0,0,0,0-27.32Zm-2.11,42H372.07v-6.3h31.51Zm-3.15-8.4H375.22v-2.1h25.21Zm3.15-4.2H372.07v-6.31h31.51Zm2.11-4.21v-3.15a1,1,0,0,0-1.05-1.05H394.13v-9.45h9.65a3.15,3.15,0,1,0,0-2.1h-10.7a1,1,0,0,0-1.05,1v10.5h-5.25v-20h4.39a3.15,3.15,0,1,0,0-2.1h-5.44a1,1,0,0,0-1.05,1v21h-5.26v-7.35a1,1,0,0,0-1.05-1.05h-5.44a3.15,3.15,0,1,0,0,2.1h4.39v6.3H371a1,1,0,0,0-1,1.05v3.15h-2.1a9.45,9.45,0,1,1,0-18.9,9.35,9.35,0,0,1,1.9.19,1.08,1.08,0,0,0,.88-.22A1.1,1.1,0,0,0,371,672s0-.17,0-.2a15.75,15.75,0,0,1,31.06-3.69,1.05,1.05,0,0,0,1.24.79,11.55,11.55,0,0,1,4.73,22.62A11.74,11.74,0,0,1,405.69,691.76Zm0-14.7a1.05,1.05,0,1,1,1.05,1.05A1,1,0,0,1,405.69,677.06Zm-12.61-10.51a1.05,1.05,0,1,1,1.05,1.05A1,1,0,0,1,393.08,666.55ZM371,680.21a1,1,0,1,1-1-1.05A1,1,0,0,1,371,680.21Z"/><path class="cls-33" d="M731,349.41a4.87,4.87,0,0,0-4.86-4.87,4.77,4.77,0,0,0-.76.07,5.83,5.83,0,0,0-10.85,2,3.72,3.72,0,0,0-1.19.52,12.63,12.63,0,0,0-19-5,8.74,8.74,0,0,0-14.36,3.38,4.1,4.1,0,0,0-.5,0,6.81,6.81,0,1,0,0,13.61h2a8.76,8.76,0,0,0,8.69,7.79h10.7v9.57c-.32-.14-.64-.26-1-.37v-3.37H694v3.37a9,9,0,0,0-1.57.66l-2.39-2.39L686,378.52l2.38,2.38a9.9,9.9,0,0,0-.65,1.58h-3.37v1.94H672.63v1.95h11.68v1.94h3.37a9.9,9.9,0,0,0,.65,1.58L686,392.27l4.12,4.13,2.39-2.39a9,9,0,0,0,1.57.66V398h5.84v-3.37a9,9,0,0,0,1.57-.66l2.39,2.39,3.27-3.27c.2.13.41.25.62.36v2.6h5.83v-2.6a6.9,6.9,0,0,0,1-.55l2.26,1.31,2.92-5.06-2.26-1.3a5.21,5.21,0,0,0,0-.55,5.07,5.07,0,0,0,0-.55l.73-.42H731v-1.95H719.06l-2.3-4-2.26,1.3a6.9,6.9,0,0,0-1-.55v-2.6h-5.67l.07-.07-4.12-4.13-1,1v-8.51H716.4a7.78,7.78,0,0,0,6.07-12.65h3.66a4.87,4.87,0,0,0,4.86-4.86Zm-21.33,33.12v-2h2v2l.65.23a4.8,4.8,0,0,1,1.53.89l.53.44,1.73-1,1,1.69-1.73,1,.12.67a4.45,4.45,0,0,1,0,1.78l-.12.67,1.73,1-1,1.69-1.73-1-.53.45a5,5,0,0,1-1.53.88l-.65.23v2h-2v-2l-.64-.23a4.9,4.9,0,0,1-1.54-.88l-.52-.45-1.73,1-1-1.69,1.73-1-.12-.67a4.84,4.84,0,0,1,0-1.78l.12-.67-1.73-1,1-1.69,1.73,1,.52-.44a4.74,4.74,0,0,1,1.54-.89Zm-1.94-3.78v2.44a6.9,6.9,0,0,0-1,.55l-1.11-.64-.09-.19Zm-2.52-.23-2.08,2.08.41.66c.09.15.16.3.25.45l-2,3.45a4.85,4.85,0,1,0,0,.44l2.07,1.19a5.06,5.06,0,0,0,0,1.1l-2.26,1.3,2.44,4.24-.21.22-2.09-2.09-.65.42a7.6,7.6,0,0,1-2.41,1l-.76.17v2.94H696v-2.94l-.76-.17a8.09,8.09,0,0,1-2.41-1l-.65-.42-2.09,2.09-1.37-1.38,2.08-2.08-.41-.66a7.76,7.76,0,0,1-1-2.41l-.16-.75h-3v-1.95h3l.17-.75a7.51,7.51,0,0,1,1-2.41l.41-.66-2.08-2.08,1.37-1.38,2.09,2.09.65-.42a8.09,8.09,0,0,1,2.41-1l.76-.17V374.7h1.94v2.94l.76.17a8.09,8.09,0,0,1,2.41,1l.65.42,2.09-2.09Zm-5.33,6.88a2.92,2.92,0,1,1-2.92-2.92,2.91,2.91,0,0,1,2.92,2.92Zm15.56-37h1v-1a3.88,3.88,0,0,1,7.52-1.36l.34.89.9-.32a2.91,2.91,0,1,1,1,5.66h-6a7.7,7.7,0,0,0-5.72-.72,12.23,12.23,0,0,0-.42-2.55,1.92,1.92,0,0,1,1.41-.62Zm-40.85,3.89a4.87,4.87,0,0,1,4.86-4.87,4.79,4.79,0,0,1,1,.11l.92.19.22-.92a6.8,6.8,0,0,1,11.24-3.39,12.53,12.53,0,0,0-3.31,6,8.76,8.76,0,0,0-8.06,7.76h-2a4.87,4.87,0,0,1-4.86-4.86ZM716.4,365H690.14a6.81,6.81,0,1,1,0-13.62l1,0,.14-.82a10.69,10.69,0,0,1,21.24,1.78c0,.14,0,.29,0,.43l-.11,1.84,1.49-.72A5.84,5.84,0,1,1,716.4,365Z"/><path class="cls-33" d="M710.64,390.26a2.92,2.92,0,1,0-2.92-2.92,2.91,2.91,0,0,0,2.92,2.92Zm0-3.89a1,1,0,1,1-1,1,1,1,0,0,1,1-1Z"/><path class="cls-33" d="M372,359.08v22.29a5.17,5.17,0,0,0,1.76,3.89l12.58,11a2.24,2.24,0,0,0,3,0l12.58-11a5.18,5.18,0,0,0,1.77-3.89V359.08a2.26,2.26,0,0,0-2.26-2.26H374.25A2.26,2.26,0,0,0,372,359.08Zm26.72,22.15h-3.48v6h-6V368.48a1.57,1.57,0,0,0,1.37-1.55,1.58,1.58,0,0,0-3.16,0,1.57,1.57,0,0,0,1.37,1.55v7.62h-4.72a1.57,1.57,0,0,0-3.13.21,1.57,1.57,0,0,0,3.13.21h4.72v4.71H376.93V377l12.68-18.67h5.63v18.17h3.48Z"/><path class="cls-33" d="M355.32,416.66V405.23h3.11v11.43Z"/><path class="cls-33" d="M371.77,416.66h-4l-4.17-8.05h-.07c.1,1.27.15,2.23.15,2.9v5.15H360.9V405.23h4l4.15,7.94h.05c-.07-1.15-.11-2.07-.11-2.77v-5.17h2.75Z"/><path class="cls-33" d="M386.82,410.73a5.91,5.91,0,0,1-1.57,4.41,6.06,6.06,0,0,1-4.43,1.54h-3.69V405.26h3.95a6,6,0,0,1,4.25,1.41A5.32,5.32,0,0,1,386.82,410.73Zm-3.2.11a3.65,3.65,0,0,0-.62-2.33,2.3,2.3,0,0,0-1.89-.76h-.9v6.4h.69a2.47,2.47,0,0,0,2.06-.82A3.9,3.9,0,0,0,383.62,410.84Z"/><path class="cls-33" d="M395.88,416.68l-.56-2.14h-3.71l-.58,2.14h-3.39l3.72-11.47h4.12l3.78,11.47Zm-1.2-4.67-.5-1.88c-.11-.41-.25-.95-.41-1.61s-.28-1.14-.33-1.43c-.05.27-.14.71-.28,1.32s-.44,1.81-.91,3.6Z"/><path class="cls-33" d="M405.53,416.68h-3.09v-8.9h-2.79v-2.52h8.66v2.52h-2.78Z"/><path class="cls-33" d="M417,416.68l-.57-2.14h-3.71l-.58,2.14h-3.39l3.73-11.47h4.12l3.77,11.47ZM415.75,412l-.49-1.88c-.12-.41-.25-.95-.42-1.61s-.27-1.14-.32-1.43c0,.27-.14.71-.28,1.32s-.44,1.81-.92,3.6Z"/><text class="cls-34" transform="translate(353.5 106.85)">Compétence <tspan x="28.78" y="12.32">&amp; </tspan><tspan x="9.34" y="24.64">expert</tspan><tspan class="cls-35" x="43.91" y="24.64">i</tspan><tspan class="cls-36" x="47.04" y="24.64">se</tspan></text><text class="cls-34" transform="translate(38.46 420.87)">Ge<tspan class="cls-37" x="13.43" y="0">s</tspan><tspan x="19.33" y="0">tion de la </tspan><tspan x="1.19" y="12.32">performance</tspan></text><text class="cls-34" transform="translate(365.75 746.11)">Big <tspan class="cls-38" x="19.75" y="0">D</tspan><tspan class="cls-39" x="26.8" y="0">ata</tspan></text><text class="cls-34" transform="translate(689.22 420.87)"><tspan class="cls-40">D</tspan><tspan x="7.05" y="0">ata </tspan><tspan x="-21.01" y="12.32">management</tspan></text><circle class="cls-33" cx="366.27" cy="222.61" r="5.73"/><circle class="cls-33" cx="539.27" cy="484.33" r="5.73"/><circle class="cls-33" cx="539.27" cy="484.33" r="5.73"/><circle class="cls-33" cx="436.72" cy="622.55" r="5.73"/><circle class="cls-33" cx="207.02" cy="513.39" r="5.73"/><circle class="cls-33" cx="508.87" cy="203.11" r="5.73"/><path class="cls-41" d="M459.46,61.64l-5,28.17c-36.24-42.58-73.85-63.52-104.06-73.69L388.64,2.21,434.86,19Z"/><path class="cls-42" d="M772.46,377.75l-5,28.18c-36.23-42.59-73.84-63.53-104-73.7l38.21-13.91,46.21,16.83Z"/><path class="cls-43" d="M458.51,376.13l-5,28.18c-36.24-42.59-73.85-63.53-104-73.7l38.2-13.91,46.22,16.83Z"/><path class="cls-44" d="M458.78,689.54l-5,28.18c-36.24-42.59-73.84-63.53-104-73.7L388,630.11l46.21,16.83Z"/><path class="cls-45" d="M144.86,377.48l-5,28.18c-36.24-42.59-73.84-63.53-104-73.7l38.21-13.91,46.21,16.83Z"/><circle class="cls-24" cx="632.38" cy="135.42" r="8.65"/><circle class="cls-24" cx="634.55" cy="639.04" r="8.65"/><circle class="cls-24" cx="132.82" cy="639.99" r="8.65"/><circle class="cls-24" cx="136.97" cy="138.06" r="8.65"/><g class="cls-46"><path class="cls-33" d="M596,275.44v17.84h17.83V275.44Zm13.37,13.38h-8.91V279.9h8.91Z"/><rect class="cls-47" x="599.36" y="278.82" width="11.08" height="11.08"/></g><g class="cls-46"><path class="cls-33" d="M574.36,289.49v17.84H592.2V289.49Zm13.38,13.38h-8.92V294h8.92Z"/><rect class="cls-47" x="577.74" y="292.87" width="11.08" height="11.08"/></g><g class="cls-46"><path class="cls-33" d="M430.9,256.94v8.31h8.3v-8.31ZM433,259h4.16v4.15H433Z"/><rect class="cls-47" x="432.47" y="258.52" width="5.16" height="5.16"/></g><g class="cls-46"><path class="cls-33" d="M441,263.49v8.3h8.31v-8.3Zm2.08,2.07h4.15v4.16H443Z"/><rect class="cls-47" x="442.54" y="265.06" width="5.16" height="5.16"/></g><g class="cls-46"><path class="cls-33" d="M317.21,199.53l3.88,10.67,10.67-3.88-3.87-10.67Zm10.91,5.09-5.33,1.94-1.94-5.33,5.34-1.94Z"/><rect class="cls-47" x="320.96" y="199.4" width="7.05" height="7.05" transform="translate(-49.77 122.89) rotate(-19.95)"/></g><g class="cls-46"><path class="cls-33" d="M307.33,212.63l3.88,10.67,10.67-3.88L318,208.75Zm10.91,5.1-5.33,1.93L311,214.33l5.33-1.94Z"/><rect class="cls-47" x="311.08" y="212.5" width="7.05" height="7.05" transform="translate(-54.83 120.31) rotate(-19.95)"/></g><g class="cls-46"><path class="cls-33" d="M250.43,427.87l1.72,8.13,8.12-1.72-1.72-8.13Zm2.46,1.6,4.06-.86.86,4.06-4.06.86Z"/><rect class="cls-47" x="252.77" y="428.49" width="5.16" height="5.16" transform="translate(-83.8 62.28) rotate(-11.96)"/></g><g class="cls-46"><path class="cls-33" d="M261.63,432.19l1.72,8.12,8.13-1.72-1.72-8.12Zm2.46,1.6,4.07-.86L269,437l-4.07.86Z"/><rect class="cls-47" x="263.98" y="432.81" width="5.16" height="5.16" transform="translate(-84.45 64.7) rotate(-11.96)"/></g><g class="cls-46"><path class="cls-33" d="M433.13,499.88l2.52,7.91,7.91-2.53L441,497.35Zm2.61,1.34,3.95-1.26,1.27,4-4,1.27Z"/><rect class="cls-47" x="435.77" y="499.99" width="5.16" height="5.16" transform="translate(-132.1 157.15) rotate(-17.71)"/></g><g class="cls-46"><path class="cls-33" d="M444.71,503.05l2.52,7.91,7.92-2.53-2.53-7.91Zm2.61,1.34,3.95-1.26,1.27,4-4,1.26Z"/><rect class="cls-47" x="447.35" y="503.16" width="5.16" height="5.16" transform="translate(-132.51 160.82) rotate(-17.71)"/></g><g class="cls-46"><path class="cls-33" d="M315.14,525.11l13.78,11.32,11.32-13.79-13.79-11.31ZM334,523.26l-5.65,6.89-6.9-5.66,5.66-6.89Z"/><rect class="cls-47" x="322.15" y="518.34" width="11.08" height="11.08" transform="translate(-285.15 444.81) rotate(-50.62)"/></g><g class="cls-46"><path class="cls-33" d="M310.07,550.25l14,11,11-14-14-11ZM328.85,548l-5.51,7-7-5.51,5.51-7Z"/><rect class="cls-47" x="317.05" y="543.21" width="11.08" height="11.08" transform="translate(-308.19 463.31) rotate(-51.84)"/></g></g></g></g></svg>