<svg xmlns="http://www.w3.org/2000/svg" width="358.12371" height="312.71842" viewBox="0 0 358.12371 312.71842">
  <title>logo 4IN Data</title>
  <g>
    <path d="M87.94261,12.11061V131.7374a27.50362,27.50362,0,0,0,9.73366,20.91486l69.27641,59.128a12.67985,12.67985,0,0,0,16.38379,0l69.27629-59.128a27.50359,27.50359,0,0,0,9.73365-20.91484V12.11061A12.27408,12.27408,0,0,0,249.91516,0H100.37386A12.27408,12.27408,0,0,0,87.94261,12.11061ZM235.15167,130.98922H215.98431v32.14691H183.09368V62.605a8.68563,8.68563,0,1,0-2.3151,0v40.85128H154.76174a8.45938,8.45938,0,1,0,.00014,2.25538h26.0167v25.27752H115.13749V108.1777L184.9453,8.02241h31.039v97.50345h19.16736Z" style="fill: #fff"/>
    <path d="M0,312.59151V251.278H17.0913v61.3135Zm90.61822,0h-22.299L45.33057,269.39466h-.38621q.81838,10.19.81839,15.56054v27.63631H30.69445V251.278H52.90763l22.90283,42.6086h.25747q-.6023-9.26735-.60077-14.88867V251.278H90.61822Zm82.90964-31.83028q0,15.35-8.67438,23.65286-8.67132,8.30433-24.38637,8.30433H120.10529v-61.3135h21.78405q15.14952,0,23.39632,7.54885Q173.52939,266.50113,173.52786,280.76123Zm-17.64916.58826q0-8.42974-3.42071-12.4998-3.42531-4.06705-10.397-4.06706h-4.95022v34.34906h3.78853q7.74717,0,11.36252-4.38359Q155.88024,290.3675,155.8787,281.34949Zm67.54374,31.36893-3.09887-11.49049H199.87593l-3.18776,11.49049H178.006l20.53347-61.56732h22.68827l20.79094,61.56732Zm-6.62993-25.08021-2.71266-10.06315q-.94713-3.35487-2.30193-8.68356-1.35633-5.32571-1.787-7.63246-.38622,2.141-1.52645,7.04718-1.14483,4.90467-5.06057,19.332Zm59.7981,25.08021H259.58513V264.94985H244.21645V251.40492h47.69993v13.54493H276.59061Zm62.93681,0-3.09887-11.49049H315.98091l-3.18777,11.49049H294.111L314.6445,251.1511h22.68827l20.79094,61.56732Zm-6.62993-25.08021-2.71266-10.06315q-.94713-3.35487-2.30193-8.68356-1.35633-5.32571-1.787-7.63246-.38621,2.141-1.52644,7.04718-1.14485,4.90467-5.06057,19.332Z" style="fill: #fff"/>
  </g>
</svg>
