<?xml version="1.0" encoding="utf-8"?>
<!-- Generator: Adobe Illustrator 22.0.0, SVG Export Plug-In . SVG Version: 6.00 Build 0)  -->
<svg version="1.1" id="Calque_1" xmlns="http://www.w3.org/2000/svg" xmlns:xlink="http://www.w3.org/1999/xlink" x="0px" y="0px"
	 viewBox="0 0 775.7 773.5" style="enable-background:new 0 0 775.7 773.5;" xml:space="preserve">
<style type="text/css">
	.st0{opacity:5.000000e-02;fill:#231F20;enable-background:new    ;}
	.st1{opacity:0.1;fill:#231F20;enable-background:new    ;}
	.st2{fill:none;stroke:#FFFFFF;stroke-width:3.2422;stroke-linecap:round;stroke-miterlimit:10;stroke-dasharray:0,8.119;}
	.st3{fill:none;stroke:#FFFFFF;stroke-width:2.4316;stroke-linecap:round;stroke-miterlimit:10;stroke-dasharray:0,7.7573;}
	.st4{fill:none;stroke:#FFFFFF;stroke-width:1.6211;stroke-linecap:round;stroke-miterlimit:10;}
	.st5{fill:none;stroke:url(#SVGID_1_);stroke-width:2.4316;stroke-linecap:round;stroke-linejoin:round;}
	.st6{fill:none;stroke:url(#SVGID_2_);stroke-width:2.4316;stroke-linecap:round;stroke-linejoin:round;stroke-dasharray:0,7.0777;}
	.st7{fill:none;stroke:url(#SVGID_3_);stroke-width:2.4316;stroke-linecap:round;stroke-linejoin:round;}
	.st8{fill:none;stroke:url(#SVGID_4_);stroke-width:2.4316;stroke-linecap:round;stroke-linejoin:round;}
	.st9{fill:none;stroke:url(#SVGID_5_);stroke-width:2.4316;stroke-linecap:round;stroke-linejoin:round;stroke-dasharray:0,7.2126;}
	.st10{fill:none;stroke:url(#SVGID_6_);stroke-width:2.4316;stroke-linecap:round;stroke-linejoin:round;}
	.st11{fill:none;stroke:url(#SVGID_7_);stroke-width:2.4316;stroke-linecap:round;stroke-linejoin:round;}
	
		.st12{fill:none;stroke:url(#SVGID_8_);stroke-width:2.4316;stroke-linecap:round;stroke-linejoin:round;stroke-dasharray:0,7.2357;}
	.st13{fill:none;stroke:url(#SVGID_9_);stroke-width:2.4316;stroke-linecap:round;stroke-linejoin:round;}
	.st14{fill:none;stroke:url(#SVGID_10_);stroke-width:2.4316;stroke-linecap:round;stroke-linejoin:round;}
	
		.st15{fill:none;stroke:url(#SVGID_11_);stroke-width:2.4316;stroke-linecap:round;stroke-linejoin:round;stroke-dasharray:0,7.386;}
	.st16{fill:none;stroke:url(#SVGID_12_);stroke-width:2.4316;stroke-linecap:round;stroke-linejoin:round;}
	.st17{fill:none;stroke:url(#SVGID_13_);stroke-width:2.4316;stroke-linecap:round;stroke-linejoin:round;}
	.st18{fill:none;stroke:url(#SVGID_14_);stroke-width:2.4316;stroke-linecap:round;stroke-linejoin:round;stroke-dasharray:0,7.05;}
	.st19{fill:none;stroke:url(#SVGID_15_);stroke-width:2.4316;stroke-linecap:round;stroke-linejoin:round;}
	
		.st20{opacity:0.8;fill:none;stroke:#FFFFFF;stroke-width:6.4844;stroke-linecap:round;stroke-miterlimit:10;enable-background:new    ;}
	
		.st21{opacity:0.8;fill:none;stroke:#FFFFFF;stroke-width:1.6211;stroke-linecap:round;stroke-miterlimit:10;enable-background:new    ;}
	.st22{opacity:0.8;fill:none;stroke:#FFFFFF;stroke-width:1.6211;stroke-miterlimit:10;enable-background:new    ;}
	.st23{fill:none;stroke:#FFFFFF;stroke-width:1.6211;stroke-miterlimit:10;}
	.st24{fill:#000E34;}
	.st25{fill:url(#SVGID_16_);}
	.st26{fill:url(#SVGID_17_);}
	.st27{fill:url(#SVGID_18_);}
	.st28{fill:url(#SVGID_19_);}
	.st29{fill:url(#SVGID_20_);}
	.st30{fill:url(#SVGID_21_);}
	.st31{fill:#FFFFFF;}
	.st32{opacity:0.1;fill:url(#SVGID_22_);enable-background:new    ;}
	.st33{opacity:0.1;fill:url(#SVGID_23_);enable-background:new    ;}
	.st34{opacity:0.1;fill:url(#SVGID_24_);enable-background:new    ;}
	.st35{opacity:0.1;fill:url(#SVGID_25_);enable-background:new    ;}
	.st36{opacity:0.1;fill:url(#SVGID_26_);enable-background:new    ;}
	.st37{opacity:0.8;}
	.st38{opacity:0.3;fill:#FFFFFF;enable-background:new    ;}
</style>
<title>main_1</title>
<g>
	<g>
		<circle class="st0" cx="387.8" cy="386.8" r="169.7"/>
		<circle class="st1" cx="387.8" cy="386.8" r="315.1"/>
		<circle class="st2" cx="387.8" cy="386.8" r="314"/>
		<circle class="st3" cx="387.8" cy="386.8" r="96.3"/>
		<circle class="st4" cx="387.8" cy="386.8" r="113.9"/>
		<g>
			
				<linearGradient id="SVGID_1_" gradientUnits="userSpaceOnUse" x1="249.137" y1="216.6528" x2="354.0133" y2="216.6528" gradientTransform="matrix(1 0 0 -1 0 776)">
				<stop  offset="0" style="stop-color:#E6BC24"/>
				<stop  offset="0.4185" style="stop-color:#E6A727"/>
				<stop  offset="1" style="stop-color:#E5842B"/>
			</linearGradient>
			<line class="st5" x1="250.4" y1="559.3" x2="250.4" y2="559.3"/>
			
				<linearGradient id="SVGID_2_" gradientUnits="userSpaceOnUse" x1="249.1371" y1="192.1414" x2="354.0134" y2="192.1414" gradientTransform="matrix(1 0 0 -1 0 776)">
				<stop  offset="0" style="stop-color:#E6BC24"/>
				<stop  offset="0.4185" style="stop-color:#E6A727"/>
				<stop  offset="1" style="stop-color:#E5842B"/>
			</linearGradient>
			<path class="st6" d="M256,563.7c27.5,20.6,59.5,34.4,93.4,40.4"/>
			
				<linearGradient id="SVGID_3_" gradientUnits="userSpaceOnUse" x1="249.1371" y1="171.3676" x2="354.0134" y2="171.3676" gradientTransform="matrix(1 0 0 -1 0 776)">
				<stop  offset="0" style="stop-color:#E6BC24"/>
				<stop  offset="0.4185" style="stop-color:#E6A727"/>
				<stop  offset="1" style="stop-color:#E5842B"/>
			</linearGradient>
			<line class="st7" x1="352.8" y1="604.6" x2="352.8" y2="604.6"/>
		</g>
		<g>
			
				<linearGradient id="SVGID_4_" gradientUnits="userSpaceOnUse" x1="221.0764" y1="498.4387" x2="264.624" y2="498.4387" gradientTransform="matrix(1 0 0 -1 0 776)">
				<stop  offset="0" style="stop-color:#E6BC24"/>
				<stop  offset="0.4185" style="stop-color:#E6A727"/>
				<stop  offset="1" style="stop-color:#E5842B"/>
			</linearGradient>
			<line class="st8" x1="263.4" y1="277.6" x2="263.4" y2="277.6"/>
			
				<linearGradient id="SVGID_5_" gradientUnits="userSpaceOnUse" x1="221.0764" y1="388.0387" x2="264.624" y2="388.0387" gradientTransform="matrix(1 0 0 -1 0 776)">
				<stop  offset="0" style="stop-color:#E6BC24"/>
				<stop  offset="0.4185" style="stop-color:#E6A727"/>
				<stop  offset="1" style="stop-color:#E5842B"/>
			</linearGradient>
			<path class="st9" d="M258.8,283.1c-49.4,61.5-48.5,149.2,2,209.8"/>
			
				<linearGradient id="SVGID_6_" gradientUnits="userSpaceOnUse" x1="221.0764" y1="280.4122" x2="264.624" y2="280.4122" gradientTransform="matrix(1 0 0 -1 0 776)">
				<stop  offset="0" style="stop-color:#E6BC24"/>
				<stop  offset="0.4185" style="stop-color:#E6A727"/>
				<stop  offset="1" style="stop-color:#E5842B"/>
			</linearGradient>
			<line class="st10" x1="263.1" y1="495.6" x2="263.1" y2="495.6"/>
		</g>
		<g>
			
				<linearGradient id="SVGID_7_" gradientUnits="userSpaceOnUse" x1="444.6398" y1="417.9485" x2="567.0938" y2="417.9485" gradientTransform="matrix(1 0 0 -1 0 776)">
				<stop  offset="0" style="stop-color:#E6BC24"/>
				<stop  offset="0.4185" style="stop-color:#E6A727"/>
				<stop  offset="1" style="stop-color:#E5842B"/>
			</linearGradient>
			<line class="st11" x1="565.9" y1="358.1" x2="565.9" y2="358.1"/>
			
				<linearGradient id="SVGID_8_" gradientUnits="userSpaceOnUse" x1="444.6398" y1="491.9511" x2="567.0938" y2="491.9511" gradientTransform="matrix(1 0 0 -1 0 776)">
				<stop  offset="0" style="stop-color:#E6BC24"/>
				<stop  offset="0.4185" style="stop-color:#E6A727"/>
				<stop  offset="1" style="stop-color:#E5842B"/>
			</linearGradient>
			<path class="st12" d="M564.6,350.9c-12.5-61.6-56.2-112.3-115.3-133.8"/>
			
				<linearGradient id="SVGID_9_" gradientUnits="userSpaceOnUse" x1="444.6399" y1="560.0306" x2="567.0938" y2="560.0306" gradientTransform="matrix(1 0 0 -1 0 776)">
				<stop  offset="0" style="stop-color:#E6BC24"/>
				<stop  offset="0.4185" style="stop-color:#E6A727"/>
				<stop  offset="1" style="stop-color:#E5842B"/>
			</linearGradient>
			<line class="st13" x1="445.9" y1="216" x2="445.9" y2="216"/>
		</g>
		<g>
			
				<linearGradient id="SVGID_10_" gradientUnits="userSpaceOnUse" x1="172.6464" y1="608.7004" x2="369.4719" y2="608.7004" gradientTransform="matrix(1 0 0 -1 0 776)">
				<stop  offset="0" style="stop-color:#E6BC24"/>
				<stop  offset="0.4185" style="stop-color:#E6A727"/>
				<stop  offset="1" style="stop-color:#E5842B"/>
			</linearGradient>
			<line class="st14" x1="368.3" y1="167.3" x2="368.3" y2="167.3"/>
			
				<linearGradient id="SVGID_11_" gradientUnits="userSpaceOnUse" x1="172.6464" y1="526.7311" x2="369.4719" y2="526.7311" gradientTransform="matrix(1 0 0 -1 0 776)">
				<stop  offset="0" style="stop-color:#E6BC24"/>
				<stop  offset="0.4185" style="stop-color:#E6A727"/>
				<stop  offset="1" style="stop-color:#E5842B"/>
			</linearGradient>
			<path class="st15" d="M360.9,168.1c-90.1,11-163.5,76.4-186.1,162.4"/>
			
				<linearGradient id="SVGID_12_" gradientUnits="userSpaceOnUse" x1="172.6464" y1="441.9533" x2="369.4719" y2="441.9533" gradientTransform="matrix(1 0 0 -1 0 776)">
				<stop  offset="0" style="stop-color:#E6BC24"/>
				<stop  offset="0.4185" style="stop-color:#E6A727"/>
				<stop  offset="1" style="stop-color:#E5842B"/>
			</linearGradient>
			<line class="st16" x1="173.9" y1="334" x2="173.9" y2="334"/>
		</g>
		<g>
			
				<linearGradient id="SVGID_13_" gradientUnits="userSpaceOnUse" x1="569.7225" y1="233.812" x2="609.3441" y2="233.812" gradientTransform="matrix(1 0 0 -1 0 776)">
				<stop  offset="0" style="stop-color:#E6BC24"/>
				<stop  offset="0.4185" style="stop-color:#E6A727"/>
				<stop  offset="1" style="stop-color:#E5842B"/>
			</linearGradient>
			<line class="st17" x1="570.9" y1="542.2" x2="570.9" y2="542.2"/>
			
				<linearGradient id="SVGID_14_" gradientUnits="userSpaceOnUse" x1="569.7225" y1="264.7207" x2="609.3441" y2="264.7207" gradientTransform="matrix(1 0 0 -1 0 776)">
				<stop  offset="0" style="stop-color:#E6BC24"/>
				<stop  offset="0.4185" style="stop-color:#E6A727"/>
				<stop  offset="1" style="stop-color:#E5842B"/>
			</linearGradient>
			<path class="st18" d="M575.4,536.7c12.5-15.6,23-32.7,31.3-50.9"/>
			
				<linearGradient id="SVGID_15_" gradientUnits="userSpaceOnUse" x1="569.7225" y1="293.4123" x2="609.3441" y2="293.4123" gradientTransform="matrix(1 0 0 -1 0 776)">
				<stop  offset="0" style="stop-color:#E6BC24"/>
				<stop  offset="0.4185" style="stop-color:#E6A727"/>
				<stop  offset="1" style="stop-color:#E5842B"/>
			</linearGradient>
			<line class="st19" x1="608.1" y1="482.6" x2="608.1" y2="482.6"/>
		</g>
		<path class="st4" d="M171.7,431.8c6.1,29.3,18.1,57.1,35.3,81.6"/>
		<path class="st4" d="M437.8,622.5c27.2-5.7,53.1-16.2,76.8-30.8"/>
		<path class="st4" d="M539.7,484.3c12.5-19.3,21.1-40.9,25.4-63.5"/>
		<path class="st4" d="M508.9,203.1c-23.7-15.6-50.1-26.5-78-32.1"/>
		<path class="st4" d="M366.3,222.6c-26.1,3.4-51.1,13-72.7,28"/>
		<circle class="st20" cx="387.8" cy="386.8" r="282.1"/>
		<circle class="st21" cx="387.8" cy="386.8" r="292.1"/>
		<line class="st22" x1="387.8" y1="317" x2="387.8" y2="142.5"/>
		<line class="st22" x1="336.5" y1="337" x2="143.9" y2="144.4"/>
		<line class="st23" x1="316.3" y1="384.2" x2="145" y2="384.2"/>
		<line class="st22" x1="336.5" y1="436.6" x2="139.2" y2="633.8"/>
		<line class="st22" x1="387.8" y1="458.5" x2="387.8" y2="631"/>
		<line class="st22" x1="435" y1="440.1" x2="628.4" y2="633.5"/>
		<line class="st22" x1="458.3" y1="384.2" x2="632.8" y2="384.2"/>
		<line class="st22" x1="435.5" y1="334" x2="626.9" y2="142.6"/>
		<g>
			<polygon class="st24" points="435.1,520.9 340.6,520.9 268.2,460.2 251.7,367.1 299,285.2 387.8,252.9 476.6,285.2 523.9,367.1 
				507.5,460.2 			"/>
			
				<linearGradient id="SVGID_16_" gradientUnits="userSpaceOnUse" x1="246.589" y1="412.7791" x2="521.786" y2="357.3869" gradientTransform="matrix(1 0 0 -1 0 776)">
				<stop  offset="0" style="stop-color:#E6BC24"/>
				<stop  offset="0.4185" style="stop-color:#E6A727"/>
				<stop  offset="1" style="stop-color:#E5842B"/>
			</linearGradient>
			<path class="st25" d="M387.8,252.9l88.8,32.3l47.3,81.9l-16.4,93.1l-72.4,60.8h-94.5l-72.4-60.8l-16.4-93.1l47.3-81.9
				L387.8,252.9 M387.8,247.1c-0.7,0-1.4,0.1-2,0.4L297,279.7c-1.3,0.5-2.4,1.4-3,2.6l-47.3,81.9c-0.7,1.2-0.9,2.6-0.7,3.9
				l16.4,93.1c0.2,1.3,0.9,2.6,2,3.4l72.4,60.8c1,0.9,2.4,1.4,3.7,1.4h94.5c1.4,0,2.7-0.5,3.7-1.4l72.4-60.8c1-0.9,1.7-2.1,2-3.4
				l16.4-93.1c0.2-1.3,0-2.7-0.7-3.9l-47.3-81.9c-0.7-1.2-1.8-2.1-3-2.6l-88.8-32.3C389.2,247.2,388.5,247.1,387.8,247.1
				L387.8,247.1z"/>
		</g>
		<g>
			<polygon class="st24" points="412.4,142.5 363.2,142.5 325.6,110.9 317,62.4 341.6,19.8 387.8,3 434,19.8 458.6,62.4 
				450.1,110.9 			"/>
			
				<linearGradient id="SVGID_17_" gradientUnits="userSpaceOnUse" x1="314.3277" y1="715.5533" x2="457.5385" y2="686.7276" gradientTransform="matrix(1 0 0 -1 0 776)">
				<stop  offset="0" style="stop-color:#E6BC24"/>
				<stop  offset="0.4185" style="stop-color:#E6A727"/>
				<stop  offset="1" style="stop-color:#E5842B"/>
			</linearGradient>
			<path class="st26" d="M387.8,3l46.2,16.8l24.6,42.6l-8.5,48.4l-37.7,31.6h-49.2l-37.7-31.6L317,62.4l24.6-42.6L387.8,3 M387.8,0
				c-0.4,0-0.7,0.1-1,0.2L340.6,17c-0.7,0.2-1.2,0.7-1.6,1.3l-24.6,42.6c-0.4,0.6-0.5,1.3-0.4,2l8.5,48.4c0.1,0.7,0.5,1.3,1,1.8
				l37.7,31.6c0.5,0.5,1.2,0.7,1.9,0.7h49.2c0.7,0,1.4-0.3,1.9-0.7l37.7-31.6c0.5-0.5,0.9-1.1,1-1.8l8.5-48.4c0.1-0.7,0-1.4-0.4-2
				l-24.6-42.6c-0.4-0.6-0.9-1.1-1.6-1.3L388.9,0.2C388.5,0.1,388.2,0,387.8,0z"/>
		</g>
		<g>
			<polygon class="st24" points="144.7,378 136.1,426.4 98.4,458.1 49.2,458.1 11.6,426.4 3,378 27.6,335.4 73.8,318.6 120.1,335.4 
							"/>
			
				<linearGradient id="SVGID_18_" gradientUnits="userSpaceOnUse" x1="46.8113" y1="315.6534" x2="100.0673" y2="451.683" gradientTransform="matrix(1 0 0 -1 0 776)">
				<stop  offset="0" style="stop-color:#E6BC24"/>
				<stop  offset="0.4185" style="stop-color:#E6A727"/>
				<stop  offset="1" style="stop-color:#E5842B"/>
			</linearGradient>
			<path class="st27" d="M73.8,318.6l46.2,16.8l24.6,42.6l-8.5,48.4l-37.7,31.6H49.2l-37.7-31.6L3,378l24.6-42.6L73.8,318.6
				 M73.8,315.5c-0.4,0-0.7,0.1-1,0.2l-46.2,16.8c-0.7,0.2-1.2,0.7-1.6,1.3L0.4,376.5c-0.4,0.6-0.5,1.3-0.4,2L8.6,427
				c0.1,0.7,0.5,1.3,1,1.8l37.7,31.6c0.5,0.5,1.2,0.7,1.9,0.7h49.2c0.7,0,1.4-0.3,1.9-0.7l37.7-31.6c0.5-0.5,0.9-1.1,1-1.8l8.5-48.4
				c0.1-0.7,0-1.4-0.4-2l-24.6-42.6c-0.4-0.6-0.9-1.1-1.6-1.3l-46.2-16.8C74.5,315.6,74.2,315.5,73.8,315.5L73.8,315.5z"/>
		</g>
		<g>
			<polygon class="st24" points="341.6,647.8 387.8,631 434,647.8 458.6,690.4 450.1,738.9 412.4,770.5 363.2,770.5 325.6,738.9 
				317,690.4 			"/>
			
				<linearGradient id="SVGID_19_" gradientUnits="userSpaceOnUse" x1="461.849" y1="84.6193" x2="317.4159" y2="62.7257" gradientTransform="matrix(1 0 0 -1 0 776)">
				<stop  offset="0" style="stop-color:#E6BC24"/>
				<stop  offset="0.4185" style="stop-color:#E6A727"/>
				<stop  offset="1" style="stop-color:#E5842B"/>
			</linearGradient>
			<path class="st28" d="M387.8,631l46.2,16.8l24.6,42.6l-8.5,48.4l-37.7,31.6h-49.2l-37.7-31.6l-8.5-48.4l24.6-42.6L387.8,631
				 M387.8,628c-0.4,0-0.7,0.1-1,0.2L340.6,645c-0.7,0.2-1.2,0.7-1.6,1.3l-24.6,42.6c-0.4,0.6-0.5,1.3-0.4,2l8.5,48.4
				c0.1,0.7,0.5,1.3,1,1.8l37.7,31.6c0.5,0.5,1.2,0.7,1.9,0.7h49.2c0.7,0,1.4-0.3,1.9-0.7l37.7-31.6c0.5-0.5,0.9-1.1,1-1.8l8.5-48.4
				c0.1-0.7,0-1.4-0.4-2l-24.6-42.6c-0.4-0.6-0.9-1.1-1.6-1.3l-46.2-16.8C388.5,628,388.2,628,387.8,628L387.8,628z"/>
		</g>
		<g>
			<polygon class="st24" points="639.5,426.4 631,378 655.6,335.4 701.8,318.6 748,335.4 772.6,378 764.1,426.4 726.4,458.1 
				677.2,458.1 			"/>
			
				<linearGradient id="SVGID_20_" gradientUnits="userSpaceOnUse" x1="703.3169" y1="460.419" x2="699.7975" y2="314.3783" gradientTransform="matrix(1 0 0 -1 0 776)">
				<stop  offset="0" style="stop-color:#E6BC24"/>
				<stop  offset="0.4185" style="stop-color:#E6A727"/>
				<stop  offset="1" style="stop-color:#E5842B"/>
			</linearGradient>
			<path class="st29" d="M701.8,318.6l46.2,16.8l24.6,42.6l-8.5,48.4l-37.7,31.6h-49.2l-37.7-31.6L631,378l24.6-42.6L701.8,318.6
				 M701.8,315.5c-0.4,0-0.7,0.1-1,0.2l-46.2,16.8c-0.7,0.2-1.2,0.7-1.6,1.3l-24.6,42.6c-0.4,0.6-0.5,1.3-0.4,2l8.5,48.4
				c0.1,0.7,0.5,1.3,1,1.8l37.7,31.6c0.5,0.5,1.2,0.7,1.9,0.7h49.2c0.7,0,1.4-0.3,1.9-0.7l37.7-31.6c0.5-0.5,0.9-1.1,1-1.8l8.5-48.4
				c0.1-0.7,0-1.4-0.4-2l-24.6-42.6c-0.4-0.6-0.9-1.1-1.6-1.3l-46.2-16.8C702.5,315.6,702.2,315.5,701.8,315.5L701.8,315.5z"/>
		</g>
		<g>
			
				<linearGradient id="SVGID_21_" gradientUnits="userSpaceOnUse" x1="384.8615" y1="387.6292" x2="390.791" y2="386.4356" gradientTransform="matrix(1 0 0 -1 0 776)">
				<stop  offset="0" style="stop-color:#E6BC24"/>
				<stop  offset="0.4185" style="stop-color:#E6A727"/>
				<stop  offset="1" style="stop-color:#E5842B"/>
			</linearGradient>
			<path class="st30" d="M387.8,392c-1.7,0-3-1.4-3-3s1.4-3,3-3s3,1.4,3,3c0,0,0,0,0,0C390.8,390.6,389.5,392,387.8,392z"/>
			<path class="st24" d="M387.8,387.5c0.8,0,1.5,0.7,1.5,1.5c0,0.8-0.7,1.5-1.5,1.5c-0.8,0-1.5-0.7-1.5-1.5l0,0
				C386.3,388.1,387,387.5,387.8,387.5C387.8,387.5,387.8,387.5,387.8,387.5 M387.8,384.4c-2.5,0-4.5,2-4.5,4.5c0,2.5,2,4.5,4.5,4.5
				c2.5,0,4.5-2,4.5-4.5v0C392.4,386.5,390.3,384.4,387.8,384.4z"/>
		</g>
		<g>
			<path class="st31" d="M415.2,63.5c-2.4-2.4-5.7-3.8-9.1-3.8c-4,0-7.7,1.8-10.2,4.9c-0.2-0.1-0.3-0.2-0.5-0.3c0,0-0.1,0-0.1,0
				l-5.6-2v-2.2c0-0.3-0.2-0.6-0.4-0.7c0,0,0,0-0.1,0h0l-3.2-1.3v-0.5c5.2-2.1,8.7-7,8.9-12.6c2.1-0.7,3.2-2.9,2.7-5
				c-0.3-1.1-1.1-2.1-2.2-2.4l0.3-3.9c0.6-8.3-5.7-15.5-14-16.1c-4.5-0.3-8.9,1.4-12,4.8c-2.9,3-4.3,7.1-4,11.3l0.3,3.9
				c-1.1,0.4-2,1.3-2.2,2.4c-0.5,2.1,0.7,4.3,2.8,5c0.3,5.6,3.8,10.5,9,12.6V58l-3.3,1.3l0,0c0,0-0.1,0-0.1,0
				c-0.3,0.1-0.5,0.4-0.5,0.7v2.2l-5.6,2c0,0,0,0-0.1,0c-2.5,1.3-4.2,3.7-4.4,6.5c0,0,0,0,0,0.1V81c0,0.5,0.4,0.8,0.8,0.9h13.9
				l4.1,3.3c0.3,0.2,0.7,0.2,1,0l4.1-3.3H397c5.1,5,13.3,5,18.3-0.1C420.4,76.7,420.3,68.5,415.2,63.5z M382.9,66.2l-0.8-0.5l5.9-4
				v0.9l-3.5,4.7L382.9,66.2L382.9,66.2L382.9,66.2z M380.7,64.7l-3.6-2.5v-4.1c1.2,0.3,2.4,0.5,3.6,0.5c1.3,0,2.5-0.2,3.7-0.5v4.1
				L380.7,64.7z M387.2,60.3l-1.2,0.8v-1.3L387.2,60.3z M370.8,23.4c5-5.4,13.5-5.7,18.9-0.7c2.9,2.8,4.5,6.7,4.2,10.7l-0.3,4.5
				c0,0.1-0.1,0.3-0.2,0.4l-0.1,0.1l-1.8-7.3c0,0,0-0.1,0-0.1c-1-2.3-3.2-3.8-5.6-3.9l-1.3-0.1c-0.3,0-0.5,0.1-0.7,0.4
				c-2.5,3.6-6.8,5.5-11.2,5l-2.2-0.2c-0.8-0.1-1.4,0.5-1.5,1.2c0,0,0,0,0,0l-0.4,5c-0.3-0.1-0.6-0.2-0.9-0.3
				c-0.1,0-0.1-0.1-0.1-0.2l-0.3-4.4C367,29.7,368.3,26.1,370.8,23.4z M368.1,44.3L368.1,44.3c0-0.4-0.3-0.8-0.7-0.8
				c-1.4-0.3-2.4-1.6-2.1-3.1c0,0,0-0.1,0-0.1c0.1-0.6,0.5-1,1.1-1.2c0.2,0.2,0.4,0.4,0.6,0.5c0,0,0,0,0.1,0
				c2.2,0.9,2.4,0.8,2.8,0.6c0.2-0.1,0.4-0.4,0.4-0.7l0.5-5.6l1.9,0.2c4.8,0.5,9.5-1.5,12.5-5.4l0.9,0c1.8,0.1,3.4,1.2,4.1,2.8
				l2.1,8.6c0.1,0.4,0.6,0.7,1,0.6c0.1,0,0.3-0.1,0.4-0.2l1.1-1.1c0.1-0.1,0.3-0.3,0.4-0.4c0.5,0.2,0.9,0.7,1,1.2
				c0,0.2,0.1,0.4,0.1,0.6c0,1.3-0.9,2.3-2.1,2.6c-0.4,0.1-0.7,0.4-0.7,0.8v0c0,7-5.7,12.6-12.6,12.6
				C373.7,56.9,368.1,51.3,368.1,44.3z M375.4,59.8v1.3l-1.2-0.8L375.4,59.8z M373.2,61.7l6,4l-2.5,1.6l-3.5-4.7V61.7z M369.4,80.2
				h-6.3V71c0.2-2.1,1.4-3.9,3.2-4.9c1.8,1.1,2.9,2.9,3.2,4.9V80.2z M376,80.2h-4.9v-9.3c0,0,0,0,0-0.1c-0.2-2.2-1.3-4.2-3-5.5
				l4-1.4l3.8,5c0.3,0.4,0.8,0.4,1.1,0.2l1.2-0.8L376,80.2z M380.8,83.4l-3.2-2.6l2.6-13.8l0.5-0.4l0.8,0.5l2.5,13.6L380.8,83.4z
				 M390.3,70.9v9.3h-4.7l-2.2-11.7l0.9,0.6c0.4,0.3,0.9,0.2,1.1-0.2l3.8-5l4,1.4C391.5,66.7,390.5,68.7,390.3,70.9
				C390.3,70.9,390.3,70.9,390.3,70.9z M391.9,80.2V71c0.2-2,1.3-3.7,3-4.8c-1.1,2-1.7,4.2-1.7,6.5c0,2.7,0.9,5.3,2.4,7.5H391.9z
				 M406.1,84c-6.3,0-11.3-5.1-11.3-11.3c0-6.2,5.1-11.3,11.3-11.3c6.2,0,11.3,5.1,11.3,11.3C417.4,78.9,412.3,84,406.1,84z"/>
			<path class="st31" d="M411,68.6l-6.5,6.4l-3.4-3.3c-0.3-0.3-0.8-0.3-1.2,0c-0.3,0.3-0.3,0.8,0,1.2c0,0,0,0,0,0l3.9,3.8
				c0.3,0.3,0.8,0.3,1.2,0l7.1-6.9c0.3-0.3,0.3-0.8,0-1.2C411.9,68.3,411.4,68.3,411,68.6C411.1,68.6,411,68.6,411,68.6L411,68.6z"
				/>
		</g>
		<g>
			<path class="st31" d="M45.5,365c-0.4,0.1-0.7,0.5-0.7,0.9v5.8c0,0.4,0.3,0.8,0.7,0.9l3.5,1c0.2,1.2,0.5,2.3,0.9,3.5l-2.5,2.6
				c-0.3,0.3-0.4,0.7-0.2,1.1c0.8,1.8,1.8,3.6,3,5.2c0.2,0.3,0.6,0.5,1,0.4l3.5-0.9c0.8,0.9,1.6,1.7,2.5,2.5l-0.9,3.5
				c-0.1,0.4,0,0.8,0.4,1c1.6,1.2,3.4,2.2,5.2,3c0.4,0.2,0.8,0.1,1.1-0.2l2.6-2.5c1.1,0.4,2.3,0.7,3.5,0.9l1,3.5
				c0.1,0.4,0.5,0.7,0.9,0.7h5.8c0.4,0,0.8-0.3,0.9-0.7l1-3.5c1.2-0.2,2.3-0.5,3.5-0.9l2.6,2.5c0.3,0.3,0.7,0.4,1.1,0.2
				c1.8-0.8,3.6-1.8,5.2-3c0.3-0.2,0.5-0.6,0.4-1l-0.9-3.5c0.9-0.8,1.7-1.6,2.5-2.5l3.5,0.9c0.4,0.1,0.8,0,1-0.4
				c1.2-1.6,2.2-3.4,3-5.2c0.2-0.4,0.1-0.8-0.2-1.1l-2.5-2.6c0.4-1.1,0.7-2.3,0.9-3.5l3.5-1c0.4-0.1,0.7-0.5,0.7-0.9V366
				c0-0.4-0.3-0.8-0.7-0.9l-3.5-1c-0.2-1.2-0.5-2.3-0.9-3.5l2.5-2.6c0.3-0.3,0.4-0.7,0.2-1.1c-0.8-1.8-1.8-3.6-3-5.2
				c-0.2-0.3-0.6-0.5-1-0.4l-3.5,0.9c-0.8-0.9-1.6-1.7-2.5-2.5l0.9-3.5c0.1-0.4,0-0.8-0.4-1c-1.6-1.2-3.4-2.2-5.2-3
				c-0.4-0.2-0.8-0.1-1.1,0.2l-2.6,2.5c-1.1-0.4-2.3-0.7-3.5-0.9l-1-3.5c-0.1-0.4-0.5-0.7-0.9-0.7h-5.8c-0.4,0-0.8,0.3-0.9,0.7
				l-1,3.5c-1.2,0.2-2.3,0.5-3.5,0.9l-2.6-2.5c-0.3-0.3-0.7-0.4-1.1-0.2c-1.8,0.8-3.6,1.8-5.2,3c-0.3,0.2-0.5,0.6-0.4,1l0.9,3.5
				c-0.9,0.8-1.7,1.6-2.5,2.5l-3.5-0.9c-0.4-0.1-0.8,0-1,0.4c-1.2,1.6-2.2,3.4-3,5.2c-0.2,0.4-0.1,0.8,0.2,1.1l2.5,2.6
				c-0.4,1.1-0.7,2.3-0.9,3.5L45.5,365z M51.7,359.7l-2.5-2.6c0.6-1.3,1.3-2.5,2.1-3.7l3.5,0.9c0.4,0.1,0.8,0,1-0.3
				c0.9-1.1,2-2.2,3.1-3.1c0.3-0.2,0.4-0.6,0.3-1l-0.9-3.5c1.2-0.8,2.4-1.5,3.7-2.1l2.6,2.5c0.3,0.3,0.7,0.3,1,0.2
				c1.4-0.5,2.8-0.9,4.3-1.1c0.4-0.1,0.7-0.3,0.8-0.7l1-3.4H76l1,3.4c0.1,0.4,0.4,0.6,0.8,0.7c1.5,0.2,2.9,0.6,4.3,1.1
				c0.4,0.1,0.8,0,1-0.2l2.6-2.5c1.3,0.6,2.5,1.3,3.7,2.1l-0.9,3.5c-0.1,0.4,0,0.8,0.3,1c1.1,0.9,2.2,2,3.1,3.1
				c0.2,0.3,0.6,0.4,1,0.3l3.5-0.9c0.8,1.2,1.5,2.4,2.1,3.7l-2.5,2.6c-0.3,0.3-0.3,0.7-0.2,1c0.5,1.4,0.9,2.8,1.1,4.3
				c0.1,0.4,0.3,0.7,0.7,0.8l3.4,1v4.3l-3.4,1c-0.4,0.1-0.6,0.4-0.7,0.8c-0.2,1.5-0.6,2.9-1.1,4.3c-0.1,0.4,0,0.8,0.2,1l2.5,2.6
				c-0.6,1.3-1.3,2.5-2.1,3.7l-3.5-0.9c-0.4-0.1-0.8,0-1,0.3c-0.9,1.1-2,2.2-3.1,3.1c-0.3,0.2-0.4,0.6-0.3,1l0.9,3.5
				c-1.2,0.8-2.4,1.5-3.7,2.1L83,391c-0.3-0.3-0.7-0.3-1-0.2c-1.4,0.5-2.8,0.9-4.3,1.1c-0.4,0.1-0.7,0.3-0.8,0.7l-1,3.4h-4.3l-1-3.4
				c-0.1-0.4-0.4-0.6-0.8-0.7c-1.5-0.2-2.9-0.6-4.3-1.1c-0.4-0.1-0.8,0-1,0.2l-2.6,2.5c-1.3-0.6-2.5-1.3-3.7-2.1l0.9-3.5
				c0.1-0.4,0-0.8-0.3-1c-1.1-0.9-2.2-2-3.1-3.1c-0.2-0.3-0.6-0.4-1-0.3l-3.5,0.9c-0.8-1.2-1.5-2.4-2.1-3.7l2.5-2.6
				c0.3-0.3,0.3-0.7,0.2-1c-0.5-1.4-0.9-2.8-1.1-4.3c-0.1-0.4-0.3-0.7-0.7-0.8l-3.4-1v-4.3l3.4-1c0.4-0.1,0.6-0.4,0.7-0.8
				c0.2-1.5,0.6-2.9,1.1-4.3C52.1,360.3,52,359.9,51.7,359.7L51.7,359.7z"/>
			<path class="st31" d="M73.8,388.4c10.8,0,19.5-8.7,19.5-19.5c0-10.8-8.7-19.5-19.5-19.5c-10.8,0-19.5,8.7-19.5,19.5
				C54.3,379.6,63.1,388.4,73.8,388.4C73.8,388.4,73.8,388.4,73.8,388.4z M56.3,367.9c0.2-4,1.8-7.7,4.4-10.7l2,2l1.4-1.4l-2-2
				c3-2.7,6.7-4.2,10.7-4.4v2.9h1.9v-2.9c4,0.2,7.7,1.8,10.7,4.4l-2,2l1.4,1.4l2-2c2.7,3,4.2,6.7,4.4,10.7h-2.9v1.9h2.9
				c-0.2,4-1.8,7.7-4.4,10.7l-2-2l-1.4,1.4l2,2c-3,2.7-6.7,4.2-10.7,4.4v-2.9h-1.9v2.9c-4-0.2-7.7-1.8-10.7-4.4l2-2l-1.4-1.4l-2,2
				c-2.7-3-4.2-6.7-4.4-10.7h2.9v-1.9H56.3z"/>
			<path class="st31" d="M73.8,372.8c2.2,0,3.9-1.7,3.9-3.9c0-0.1,0-0.1,0-0.2l4.7-7.1c0.3-0.4,0.2-1.1-0.3-1.4
				c-0.3-0.2-0.8-0.2-1.1,0L74,365c-0.1,0-0.1,0-0.2,0c-2.2,0-3.9,1.7-3.9,3.9S71.7,372.8,73.8,372.8z M73.8,366.9
				c0.1,0,0.2,0,0.3,0c0.2,0,0.5,0,0.7-0.2l3.3-2.2l-2.2,3.3c-0.1,0.2-0.2,0.5-0.2,0.7c0,0.1,0,0.2,0,0.3c0,1.1-0.9,1.9-1.9,1.9
				s-1.9-0.9-1.9-1.9C71.9,367.8,72.8,366.9,73.8,366.9C73.8,366.9,73.8,366.9,73.8,366.9L73.8,366.9z"/>
		</g>
		<path class="st31" d="M405.7,666.6c-0.6,0-1.2,0-1.8,0.1c-2.8-9.4-12.8-14.8-22.2-12c-7.2,2.2-12.3,8.6-12.7,16.1
			c-0.4,0-0.7-0.1-1.1-0.1c-6.4,0-11.6,5.2-11.6,11.5c0,6.4,5.2,11.6,11.5,11.6c0,0,0,0,0,0h2.1v3.2c0,0.6,0.5,1.1,1.1,1.1l0,0h2.1
			v2.1H371c-0.6,0-1.1,0.5-1.1,1.1l0,0v8.4c0,0.6,0.5,1.1,1.1,1.1l0,0h33.6c0.6,0,1.1-0.5,1.1-1.1l0,0v-8.4c0-0.6-0.5-1.1-1.1-1.1
			l0,0h-2.1v-2.1h2.1c0.6,0,1.1-0.5,1.1-1.1l0,0v-3.2c7.5,0,13.6-6.1,13.6-13.7C419.3,672.7,413.2,666.6,405.7,666.6L405.7,666.6z
			 M403.6,708.6h-31.5v-6.3h31.5V708.6z M400.4,700.2h-25.2v-2.1h25.2V700.2z M403.6,696h-31.5v-6.3h31.5V696z M405.7,691.8v-3.2
			c0-0.6-0.5-1.1-1.1-1.1l0,0h-10.5v-9.5h9.6c0.6,1.6,2.4,2.5,4,1.9s2.5-2.4,1.9-4s-2.4-2.5-4-1.9c-0.9,0.3-1.6,1-1.9,1.9h-10.7
			c-0.6,0-1.1,0.5-1.1,1.1l0,0v10.5h-5.3v-20h4.4c0.6,1.6,2.4,2.5,4,1.9c1.6-0.6,2.5-2.4,1.9-4c-0.6-1.6-2.4-2.5-4-1.9
			c-0.9,0.3-1.6,1-1.9,1.9h-5.4c-0.6,0-1.1,0.5-1.1,1.1l0,0v21h-5.3v-7.4c0-0.6-0.5-1.1-1.1-1.1h-5.4c-0.6-1.6-2.4-2.5-4-1.9
			s-2.5,2.4-1.9,4s2.4,2.5,4,1.9c0.9-0.3,1.6-1,1.9-1.9h4.4v6.3H371c-0.6,0-1.1,0.5-1.1,1.1l0,0v3.2h-2.1c-5.2,0-9.4-4.3-9.4-9.5
			c0-5.2,4.2-9.4,9.4-9.4c0.6,0,1.3,0.1,1.9,0.2c0.3,0.1,0.6,0,0.9-0.2c0.2-0.2,0.4-0.5,0.4-0.8c0,0,0-0.2,0-0.2
			c0-8.7,7-15.8,15.7-15.8c7.3,0,13.6,5,15.3,12.1c0.1,0.6,0.7,0.9,1.2,0.8c6.2-1.3,12.4,2.7,13.7,8.9c1.3,6.2-2.7,12.4-8.9,13.7
			C407.3,691.7,406.5,691.8,405.7,691.8L405.7,691.8z M405.7,677.1c0-0.6,0.5-1.1,1.1-1.1c0.6,0,1.1,0.5,1.1,1.1
			c0,0.6-0.5,1.1-1.1,1.1C406.2,678.1,405.7,677.6,405.7,677.1L405.7,677.1z M393.1,666.6c0-0.6,0.5-1.1,1.1-1.1
			c0.6,0,1.1,0.5,1.1,1.1c0,0.6-0.5,1.1-1.1,1.1C393.6,667.6,393.1,667.1,393.1,666.6L393.1,666.6z M371,680.2
			c0,0.6-0.5,1.1-1.1,1.1s-1.1-0.5-1.1-1.1c0-0.6,0.5-1.1,1.1-1.1S371,679.6,371,680.2C371,680.2,371,680.2,371,680.2z"/>
		<g>
			<path class="st31" d="M731,349.4c0-2.7-2.2-4.9-4.9-4.9c-0.3,0-0.5,0-0.8,0.1c-1.6-2.8-5.1-3.8-7.9-2.2c-1.6,0.9-2.7,2.4-2.9,4.2
				c-0.4,0.1-0.8,0.3-1.2,0.5c-2.9-6.4-10.3-9.2-16.7-6.3c-0.8,0.4-1.6,0.8-2.3,1.4c-3.5-3.4-9-3.3-12.4,0.2c-0.9,0.9-1.6,2-2,3.2
				c-0.2,0-0.3,0-0.5,0c-3.8,0-6.8,3-6.8,6.8s3,6.8,6.8,6.8h2c0.5,4.4,4.2,7.8,8.7,7.8h10.7v9.6c-0.3-0.1-0.6-0.3-1-0.4v-3.4H694
				v3.4c-0.5,0.2-1.1,0.4-1.6,0.7l-2.4-2.4l-4.1,4.1l2.4,2.4c-0.3,0.5-0.5,1-0.7,1.6h-3.4v1.9h-11.7v1.9h11.7v1.9h3.4
				c0.2,0.5,0.4,1.1,0.7,1.6l-2.4,2.4l4.1,4.1l2.4-2.4c0.5,0.3,1,0.5,1.6,0.7v3.4h5.8v-3.4c0.5-0.2,1.1-0.4,1.6-0.7l2.4,2.4l3.3-3.3
				c0.2,0.1,0.4,0.3,0.6,0.4v2.6h5.8v-2.6c0.3-0.2,0.6-0.3,0.9-0.5l2.3,1.3l2.9-5.1l-2.3-1.3c0-0.2,0-0.4,0-0.5s0-0.4,0-0.5l0.7-0.4
				H731v-1.9h-11.9l-2.3-4l-2.3,1.3c-0.3-0.2-0.6-0.4-0.9-0.5v-2.6h-5.7l0.1-0.1l-4.1-4.1l-1,1v-8.5h13.6c4.3,0,7.8-3.5,7.8-7.8
				c0-1.8-0.6-3.5-1.7-4.9h3.7C728.8,354.3,731,352.1,731,349.4L731,349.4z M709.7,382.5v-2h1.9v2l0.6,0.2c0.6,0.2,1.1,0.5,1.5,0.9
				l0.5,0.4l1.7-1l1,1.7l-1.7,1l0.1,0.7c0.1,0.6,0.1,1.2,0,1.8l-0.1,0.7l1.7,1l-1,1.7l-1.7-1l-0.5,0.4c-0.5,0.4-1,0.7-1.5,0.9
				l-0.6,0.2v2h-1.9v-2l-0.6-0.2c-0.6-0.2-1.1-0.5-1.5-0.9l-0.5-0.4l-1.7,1l-1-1.7l1.7-1l-0.1-0.7c-0.1-0.6-0.1-1.2,0-1.8l0.1-0.7
				l-1.7-1l1-1.7l1.7,1l0.5-0.4c0.5-0.4,1-0.7,1.5-0.9L709.7,382.5z M707.7,378.8v2.4c-0.3,0.2-0.6,0.3-0.9,0.5l-1.1-0.6
				c0-0.1-0.1-0.1-0.1-0.2L707.7,378.8z M705.2,378.5l-2.1,2.1l0.4,0.7c0.1,0.1,0.2,0.3,0.2,0.5l-2,3.4c-0.1-2.7-2.4-4.7-5.1-4.6
				c-2.7,0.1-4.7,2.4-4.6,5.1s2.4,4.7,5.1,4.6c2.5-0.1,4.5-2.1,4.6-4.6l2.1,1.2c0,0.2,0,0.4,0,0.5c0,0.2,0,0.4,0,0.5l-2.3,1.3
				l2.4,4.2l-0.2,0.2l-2.1-2.1l-0.7,0.4c-0.7,0.5-1.6,0.8-2.4,1l-0.8,0.2v2.9H696v-2.9l-0.8-0.2c-0.9-0.2-1.7-0.5-2.4-1l-0.7-0.4
				l-2.1,2.1l-1.4-1.4l2.1-2.1l-0.4-0.7c-0.5-0.7-0.8-1.6-1-2.4l-0.2-0.8h-2.9v-1.9h2.9l0.2-0.8c0.2-0.9,0.5-1.7,1-2.4l0.4-0.7
				l-2.1-2.1l1.4-1.4l2.1,2.1l0.7-0.4c0.7-0.5,1.6-0.8,2.4-1l0.8-0.2v-2.9h1.9v2.9l0.8,0.2c0.9,0.2,1.7,0.5,2.4,1l0.7,0.4l2.1-2.1
				L705.2,378.5z M699.9,385.4c0,1.6-1.3,2.9-2.9,2.9c-1.6,0-2.9-1.3-2.9-2.9c0-1.6,1.3-2.9,2.9-2.9l0,0
				C698.6,382.5,699.9,383.8,699.9,385.4C699.9,385.4,699.9,385.4,699.9,385.4z M715.4,348.4h1v-1c0-2.1,1.7-3.9,3.9-3.9
				c1.6,0,3.1,1,3.6,2.5l0.3,0.9l0.9-0.3c0.3-0.1,0.6-0.2,1-0.2c1.6,0,2.9,1.3,2.9,2.9c0,1.6-1.3,2.9-2.9,2.9c0,0,0,0,0,0h-6
				c-1.7-1-3.8-1.2-5.7-0.7c0-0.9-0.2-1.7-0.4-2.6C714.4,348.7,714.9,348.4,715.4,348.4L715.4,348.4z M674.6,352.3
				c0-2.7,2.2-4.9,4.9-4.9c0.3,0,0.7,0,1,0.1l0.9,0.2l0.2-0.9c0.9-3.6,4.5-5.9,8.2-5c1.1,0.3,2.2,0.8,3.1,1.6
				c-1.6,1.7-2.8,3.7-3.3,6c-4.2,0.3-7.6,3.6-8.1,7.8h-2C676.8,357.2,674.6,355,674.6,352.3L674.6,352.3z M716.4,365h-26.3
				c-3.8,0-6.8-3.1-6.8-6.8c0-3.8,3.1-6.8,6.8-6.8l1,0l0.1-0.8c1-5.8,6.5-9.8,12.3-8.8c5.2,0.9,8.9,5.3,8.9,10.6c0,0.1,0,0.3,0,0.4
				l-0.1,1.8l1.5-0.7c2.9-1.4,6.4-0.2,7.8,2.7c1.4,2.9,0.2,6.4-2.7,7.8C718.2,364.8,717.3,365,716.4,365L716.4,365z"/>
			<path class="st31" d="M710.6,390.3c1.6,0,2.9-1.3,2.9-2.9s-1.3-2.9-2.9-2.9c-1.6,0-2.9,1.3-2.9,2.9
				C707.7,389,709,390.3,710.6,390.3C710.6,390.3,710.6,390.3,710.6,390.3z M710.6,386.4c0.5,0,1,0.4,1,1s-0.4,1-1,1
				c-0.5,0-1-0.4-1-1c0,0,0,0,0,0C709.7,386.8,710.1,386.4,710.6,386.4z"/>
		</g>
		<g>
			<path class="st31" d="M348.5,318.1v55.4c0,3.7,1.6,7.2,4.4,9.7l31.3,27.4c2.1,1.9,5.3,1.9,7.4,0l31.3-27.4c2.8-2.4,4.4-6,4.4-9.7
				v-55.4c0-3.1-2.5-5.6-5.6-5.6l0,0h-67.5C351,312.5,348.5,315,348.5,318.1z M414.9,373.2h-8.7V388h-14.8v-46.6
				c2.1-0.3,3.6-2.3,3.4-4.4c-0.3-2.1-2.3-3.6-4.4-3.4s-3.6,2.3-3.4,4.4c0.2,1.7,1.6,3.1,3.4,3.4v18.9h-11.7
				c-0.3-2.1-2.3-3.6-4.4-3.4c-2.1,0.3-3.6,2.3-3.4,4.4c0.3,2.1,2.3,3.6,4.4,3.4c1.7-0.2,3.1-1.6,3.4-3.4h11.7v11.7h-29.6v-10.6
				l31.5-46.4h14v45.2h8.7V373.2z"/>
			<g>
				<path class="st31" d="M307,461.3v-28.4h7.7v28.4H307z"/>
				<path class="st31" d="M347.9,461.3h-10.1l-10.4-20h-0.2c0.2,3.1,0.4,5.6,0.4,7.2v12.8h-6.8v-28.4h10l10.3,19.7h0.1
					c-0.2-2.9-0.3-5.2-0.3-6.9v-12.8h6.8L347.9,461.3z"/>
				<path class="st31" d="M385.3,446.5c0,4.7-1.3,8.4-3.9,11c-2.6,2.6-6.3,3.8-11,3.8h-9.2v-28.4h9.8c4.6,0,8.1,1.2,10.6,3.5
					C384.1,438.7,385.3,442.1,385.3,446.5z M377.4,446.8c0-2.6-0.5-4.5-1.5-5.8c-1.2-1.3-2.9-2-4.7-1.9h-2.2V455h1.7
					c2.3,0,4-0.7,5.1-2C376.8,451.6,377.4,449.6,377.4,446.8L377.4,446.8z"/>
				<path class="st31" d="M407.8,461.3l-1.4-5.3h-9.2l-1.4,5.3h-8.4l9.3-28.5h10.2l9.4,28.5L407.8,461.3z M404.9,449.7l-1.2-4.7
					c-0.3-1-0.6-2.4-1-4c-0.4-1.6-0.7-2.8-0.8-3.5c-0.1,0.7-0.3,1.7-0.7,3.3c-0.3,1.5-1.1,4.5-2.3,9L404.9,449.7z"/>
				<path class="st31" d="M431.8,461.3h-7.7v-22.1h-6.9v-6.3h21.5v6.3h-6.9V461.3z"/>
				<path class="st31" d="M460.3,461.3l-1.4-5.3h-9.2l-1.4,5.3h-8.4l9.3-28.5h10.2l9.4,28.5H460.3z M457.3,449.7L456,445
					c-0.3-1-0.6-2.4-1-4c-0.4-1.6-0.7-2.8-0.8-3.5c-0.1,0.7-0.3,1.7-0.7,3.3c-0.3,1.5-1.1,4.5-2.3,9L457.3,449.7z"/>
			</g>
		</g>
		<g>
			<path class="st31" d="M354.1,103.9v-3.7c0-2,1.1-3.1,3-3.1c1.9,0,3,1.1,3.1,3.1h-2c-0.1-0.9-0.4-1.2-1.1-1.2
				c-0.6,0-0.9,0.4-0.9,1.2v3.7c0,0.8,0.3,1.2,0.9,1.2c0.8,0,1.1-0.4,1.2-1.2h2c0.2,1.6-1,3-2.5,3.1c-0.2,0-0.4,0-0.6,0
				C355.2,107,354.1,105.9,354.1,103.9z"/>
			<path class="st31" d="M361,104.1v-1.9c0-1.9,1-2.9,2.7-2.9c1.7,0,2.7,1,2.7,2.9v1.9c0,1.9-1,2.9-2.7,2.9
				C362,107,361,106,361,104.1z M364.5,104.1v-1.9c0-0.8-0.3-1.1-0.8-1.1s-0.8,0.3-0.8,1.1v1.9c0,0.8,0.3,1.1,0.8,1.1
				S364.5,104.9,364.5,104.1L364.5,104.1z"/>
			<path class="st31" d="M376.1,102.4v4.5h-1.9v-4.5c0-0.9-0.2-1.2-0.7-1.2c-0.5,0-0.8,0.4-0.8,1.1v4.6h-1.9v-4.5
				c0-0.9-0.2-1.2-0.7-1.2c-0.5,0-0.8,0.4-0.8,1.1v4.6h-1.9v-7.3h1.2l0.1,0.7c0.4-0.6,1-1,1.7-0.9c0.7,0,1.3,0.3,1.6,0.9
				c0.4-0.6,1-0.9,1.7-0.9C375.3,99.4,376.1,100.4,376.1,102.4z"/>
			<path class="st31" d="M382.7,102.3v1.9c0,1.7-1,2.9-2.4,2.9c-0.4,0-0.8-0.1-1.1-0.4v2.7h-1.8v-9.8h1.3l0.1,0.6
				c0.4-0.5,1-0.8,1.6-0.8C381.7,99.4,382.7,100.5,382.7,102.3z M380.8,102.3c0-0.7-0.3-1.1-0.7-1.1c-0.5,0-0.8,0.4-0.8,1.1v1.9
				c0,0.7,0.3,1.1,0.8,1.1c0.5,0,0.7-0.4,0.7-1.1V102.3z"/>
			<path class="st31" d="M389.1,104.5c0,1.4-1.2,2.5-2.6,2.5c-0.1,0-0.1,0-0.2,0c-1.6,0-2.6-1.1-2.6-2.9v-1.9
				c-0.1-1.5,1-2.7,2.5-2.8c1.5-0.1,2.7,1,2.8,2.5c0,0.1,0,0.2,0,0.3v1.6h-3.4v0.3c0,0.8,0.3,1.1,0.8,1.1c0.5,0,0.7-0.2,0.8-0.7
				H389.1z M386.8,98.5h-1.3l1-1.9h1.6L386.8,98.5z M385.6,102.2v0.4h1.6v-0.4c0-0.7-0.3-1.1-0.8-1.1
				C385.9,101.1,385.6,101.4,385.6,102.2L385.6,102.2z"/>
			<path class="st31" d="M393.7,105.2v1.8h-0.6c-1.3,0.1-2.5-0.9-2.6-2.3c0-0.1,0-0.2,0-0.4v-3.1h-1v-1.7h1v-1.8h1.9v1.8h1.2v1.7
				h-1.2v3.1c0,0.6,0.3,0.9,0.8,0.9L393.7,105.2z"/>
			<path class="st31" d="M400,104.5c0,1.4-1.2,2.5-2.6,2.5c-0.1,0-0.1,0-0.2,0c-1.6,0-2.6-1.1-2.6-2.9v-1.9c-0.1-1.5,1-2.7,2.5-2.8
				c1.5-0.1,2.7,1,2.8,2.5c0,0.1,0,0.2,0,0.3v1.6h-3.4v0.3c0,0.8,0.3,1.1,0.8,1.1c0.5,0,0.7-0.2,0.8-0.7H400z M396.5,102.2v0.4h1.6
				v-0.4c0-0.7-0.3-1.1-0.8-1.1C396.8,101.1,396.5,101.4,396.5,102.2L396.5,102.2z"/>
			<path class="st31" d="M406.4,102.4v4.5h-1.9v-4.5c0-0.9-0.2-1.2-0.7-1.2c-0.5,0-0.8,0.4-0.8,1.1v4.6h-1.9v-7.3h1.2l0.1,0.7
				c0.4-0.6,1-1,1.7-0.9C405.6,99.4,406.4,100.4,406.4,102.4z"/>
			<path class="st31" d="M407.5,104.3v-2.2c-0.2-1.3,0.8-2.6,2.1-2.7c0.2,0,0.3,0,0.5,0c1.4-0.1,2.6,0.9,2.7,2.3c0,0.2,0,0.3,0,0.5
				h-1.9c0-0.6-0.3-0.9-0.8-0.9s-0.7,0.3-0.7,0.9v2.2c0,0.6,0.3,1,0.7,1c0.5,0,0.7-0.3,0.8-1h1.9c0.1,1.4-0.9,2.6-2.3,2.7
				c-0.1,0-0.3,0-0.4,0c-1.4,0.1-2.5-0.9-2.6-2.3C407.5,104.6,407.5,104.4,407.5,104.3z"/>
			<path class="st31" d="M419,104.5c0,1.4-1.2,2.5-2.6,2.5c-0.1,0-0.1,0-0.2,0c-1.6,0-2.6-1.1-2.6-2.9v-1.9c-0.1-1.5,1-2.7,2.5-2.8
				c1.5-0.1,2.7,1,2.8,2.5c0,0.1,0,0.2,0,0.3v1.6h-3.4v0.3c0,0.8,0.3,1.1,0.8,1.1c0.5,0,0.7-0.2,0.8-0.7H419z M415.5,102.2v0.4h1.6
				v-0.4c0-0.7-0.3-1.1-0.8-1.1C415.8,101.1,415.5,101.4,415.5,102.2L415.5,102.2z"/>
			<path class="st31" d="M388.2,119.2l-0.4-0.6c-0.6,0.5-1.3,0.8-2.1,0.8c-1.3,0.1-2.5-1-2.6-2.3c0-0.1,0-0.1,0-0.2
				c0.1-1.1,0.6-2.1,1.4-2.9c-0.5-0.7-0.8-1.5-0.9-2.4c-0.1-1.2,0.8-2.2,2.1-2.3c0.1,0,0.1,0,0.2,0c1.2-0.1,2.2,0.8,2.2,1.9
				c0,0.1,0,0.2,0,0.3c-0.1,1.1-0.6,2-1.4,2.7c0.3,0.4,0.6,0.9,1.1,1.5c0.1-0.2,0.2-0.4,0.2-0.7h1.7c-0.2,0.8-0.5,1.5-0.9,2.2
				c0.4,0.6,0.8,1.2,1.3,1.9L388.2,119.2z M386.8,117.2c-0.5-0.6-0.9-1.2-1.3-1.7c-0.4,0.3-0.6,0.8-0.6,1.3c0,0.4,0.3,0.8,0.7,0.9
				c0,0,0.1,0,0.1,0C386.2,117.6,386.5,117.4,386.8,117.2L386.8,117.2z M385.3,111.7c0,0.4,0.2,0.8,0.5,1.2c0.4-0.3,0.6-0.8,0.7-1.3
				c0-0.3-0.1-0.7-0.6-0.7C385.6,110.9,385.3,111.1,385.3,111.7L385.3,111.7z"/>
			<path class="st31" d="M368.7,129.2c0,1.4-1.2,2.5-2.6,2.5c-0.1,0-0.1,0-0.2,0c-1.6,0-2.6-1.1-2.6-2.9v-1.9
				c-0.1-1.5,1-2.7,2.5-2.8c1.5-0.1,2.7,1,2.8,2.5c0,0.1,0,0.2,0,0.3v1.6h-3.4v0.3c0,0.8,0.3,1.1,0.8,1.1c0.5,0,0.7-0.2,0.8-0.7
				H368.7z M365.3,126.8v0.4h1.6v-0.4c0-0.7-0.3-1.1-0.8-1.1C365.5,125.7,365.3,126.1,365.3,126.8L365.3,126.8z"/>
			<path class="st31" d="M373.2,131.5l-1-2.1l-1,2.1h-2.1l1.9-3.7l-1.7-3.6h2.1l0.8,2l0.8-2h2.1l-1.7,3.6l1.9,3.7H373.2z"/>
			<path class="st31" d="M381.2,126.9v1.9c0,1.7-1,2.9-2.4,2.9c-0.4,0-0.8-0.1-1.1-0.4v2.7h-1.8v-9.8h1.3l0.1,0.6
				c0.4-0.5,1-0.8,1.6-0.8C380.2,124,381.2,125.2,381.2,126.9z M379.2,126.9c0-0.7-0.3-1.1-0.7-1.1c-0.5,0-0.8,0.4-0.8,1.1v1.9
				c0,0.7,0.3,1.1,0.8,1.1c0.5,0,0.7-0.4,0.7-1.1V126.9z"/>
			<path class="st31" d="M387.6,129.2c0,1.4-1.2,2.5-2.6,2.5c-0.1,0-0.1,0-0.2,0c-1.6,0-2.6-1.1-2.6-2.9v-1.9
				c-0.1-1.5,1-2.7,2.5-2.8c1.5-0.1,2.7,1,2.8,2.5c0,0.1,0,0.2,0,0.3v1.6h-3.4v0.3c0,0.8,0.3,1.1,0.8,1.1c0.5,0,0.7-0.2,0.8-0.7
				H387.6z M384.1,126.8v0.4h1.6v-0.4c0-0.7-0.3-1.1-0.8-1.1C384.4,125.7,384.1,126.1,384.1,126.8L384.1,126.8z"/>
			<path class="st31" d="M392.7,124.2v1.8c-0.3-0.1-0.6-0.2-0.9-0.2c-0.8,0-1.3,0.4-1.3,1.4v4.3h-1.9v-7.3h1.2l0.2,0.8
				c0.4-0.7,1.1-1,1.8-1C392.2,124,392.5,124.1,392.7,124.2z"/>
			<path class="st31" d="M397,129.8v1.8h-0.6c-1.3,0.1-2.5-0.9-2.6-2.3c0-0.1,0-0.2,0-0.4v-3.1h-1v-1.7h1v-1.8h1.9v1.8h1.2v1.7h-1.2
				v3.1c0,0.6,0.3,0.9,0.8,0.9H397z"/>
			<path class="st31" d="M398,122.1c0-0.6,0.4-1,1-1c0,0,0,0,0.1,0c0.6,0,1,0.4,1,1c0,0,0,0,0,0c0,0.6-0.5,1-1,1
				C398.5,123.1,398,122.7,398,122.1C398,122.1,398,122.1,398,122.1z M398.1,124.2h1.9v7.3h-1.9L398.1,124.2z"/>
			<path class="st31" d="M400.8,129.2h1.9c0,0.5,0.4,0.8,0.8,0.8c0,0,0.1,0,0.1,0c0.5,0,0.8-0.2,0.8-0.6c0-1.1-3.4-0.8-3.4-3.3
				c0-1.3,1-2.1,2.5-2.1c1.3-0.1,2.4,0.8,2.6,2.1c0,0.1,0,0.2,0,0.3h-1.8c0-0.5-0.2-0.8-0.8-0.8c-0.4,0-0.7,0.2-0.7,0.5
				c0,1,3.4,0.6,3.4,3.3c0,1.3-1,2.3-2.2,2.3c-0.1,0-0.2,0-0.4,0c-1.4,0.1-2.7-0.9-2.8-2.3C400.8,129.3,400.8,129.2,400.8,129.2z"/>
			<path class="st31" d="M412.4,129.2c0,1.4-1.2,2.5-2.6,2.5c-0.1,0-0.1,0-0.2,0c-1.6,0-2.6-1.1-2.6-2.9v-1.9
				c-0.1-1.5,1-2.7,2.5-2.8c1.5-0.1,2.7,1,2.8,2.5c0,0.1,0,0.2,0,0.3v1.6h-3.4v0.3c0,0.8,0.3,1.1,0.8,1.1c0.5,0,0.7-0.2,0.8-0.7
				H412.4z M408.9,126.8v0.4h1.6v-0.4c0-0.7-0.3-1.1-0.8-1.1C409.2,125.7,408.9,126.1,408.9,126.8L408.9,126.8z"/>
		</g>
		<g>
			<path class="st31" d="M39,417.9v-3.7c-0.2-1.5,0.9-2.9,2.4-3.1c0.2,0,0.4,0,0.6,0c1.9,0,2.9,1.1,2.9,3.1h-2c0-0.9-0.3-1.2-1-1.2
				c-0.7,0-1,0.4-1,1.2v3.7c0,0.9,0.3,1.2,1,1.2c0.7,0,1.1-0.4,1.1-1.2v-0.7H42v-1.7h3.1v2.4c-0.1,2-1.1,3.1-3,3.1
				c-1.5,0.2-2.9-1-3.1-2.5C39,418.3,39,418.1,39,417.9z"/>
			<path class="st31" d="M51.5,418.5c0,1.4-1.2,2.5-2.6,2.5c-0.1,0-0.1,0-0.2,0c-1.6,0-2.6-1.1-2.6-2.9v-1.9c-0.1-1.5,1-2.7,2.5-2.8
				c1.5-0.1,2.7,1,2.8,2.5c0,0.1,0,0.2,0,0.3v1.6H48v0.3c0,0.8,0.3,1.1,0.8,1.1c0.5,0,0.7-0.2,0.8-0.7L51.5,418.5z M48,416.2v0.4
				h1.6v-0.4c0-0.7-0.3-1.1-0.8-1.1C48.3,415.1,48,415.4,48,416.2z"/>
			<path class="st31" d="M52.1,418.5H54c0,0.5,0.4,0.8,0.8,0.8c0,0,0.1,0,0.1,0c0.5,0,0.8-0.2,0.8-0.6c0-1.1-3.4-0.8-3.4-3.3
				c0-1.3,1-2.1,2.5-2.1c1.3-0.1,2.4,0.8,2.6,2.1c0,0.1,0,0.2,0,0.3h-1.8c0-0.5-0.2-0.8-0.8-0.8c-0.4,0-0.7,0.2-0.7,0.5
				c0,1,3.4,0.6,3.4,3.3c0,1.3-1,2.3-2.2,2.3c-0.1,0-0.2,0-0.4,0c-1.4,0.1-2.7-0.9-2.8-2.3C52.1,418.7,52.1,418.6,52.1,418.5z"/>
			<path class="st31" d="M62,419.2v1.8h-0.6c-1.3,0.1-2.5-0.9-2.6-2.3c0-0.1,0-0.2,0-0.4v-3.1h-1v-1.7h1v-1.8h1.9v1.8h1.2v1.7h-1.2
				v3.1c0,0.6,0.3,0.9,0.8,0.9H62z"/>
			<path class="st31" d="M63,411.5c0-0.6,0.4-1,1-1c0,0,0,0,0.1,0c0.6,0,1,0.4,1,1c0,0,0,0,0,0c0,0.6-0.5,1-1,1
				C63.5,412.5,63,412.1,63,411.5C63,411.5,63,411.5,63,411.5z M63.1,413.6H65v7.3h-1.9L63.1,413.6z"/>
			<path class="st31" d="M66.2,418.1v-1.9c0-1.9,1-2.9,2.7-2.9c1.7,0,2.7,1,2.7,2.9v1.9c0,1.9-1,2.9-2.7,2.9
				C67.2,421,66.2,420,66.2,418.1z M69.7,418.1v-1.9c0-0.8-0.3-1.1-0.8-1.1s-0.8,0.3-0.8,1.1v1.9c0,0.8,0.3,1.1,0.8,1.1
				S69.7,418.9,69.7,418.1z"/>
			<path class="st31" d="M78.1,416.4v4.5h-1.9v-4.5c0-0.9-0.2-1.2-0.7-1.2c-0.5,0-0.8,0.4-0.8,1.1v4.6h-1.9v-7.3h1.2l0.1,0.7
				c0.4-0.6,1-1,1.7-0.9C77.3,413.4,78.1,414.4,78.1,416.4z"/>
			<path class="st31" d="M87.3,410.9v10H86l-0.1-0.6c-0.4,0.5-1,0.8-1.6,0.8c-1.4,0-2.4-1.2-2.4-2.9v-1.9c0-1.7,1-2.9,2.4-2.9
				c0.4,0,0.8,0.1,1.1,0.4v-2.9H87.3z M85.5,416.2c0-0.7-0.3-1.1-0.8-1.1c-0.5,0-0.7,0.4-0.7,1.1v1.9c0,0.7,0.3,1.1,0.7,1.1
				c0.5,0,0.8-0.4,0.8-1.1V416.2z"/>
			<path class="st31" d="M93.9,418.5c0,1.4-1.2,2.5-2.6,2.5c-0.1,0-0.1,0-0.2,0c-1.6,0-2.6-1.1-2.6-2.9v-1.9c-0.1-1.5,1-2.7,2.5-2.8
				c1.5-0.1,2.7,1,2.8,2.5c0,0.1,0,0.2,0,0.3v1.6h-3.4v0.3c0,0.8,0.3,1.1,0.8,1.1c0.5,0,0.7-0.2,0.8-0.7L93.9,418.5z M90.4,416.2
				v0.4H92v-0.4c0-0.7-0.3-1.1-0.8-1.1C90.7,415.1,90.4,415.4,90.4,416.2z"/>
			<path class="st31" d="M97.6,410.9h1.9v10h-1.9V410.9z"/>
			<path class="st31" d="M105.8,416.2v4.6h-1.5l-0.1-0.7c-0.3,0.6-0.9,0.9-1.6,0.9c-1.2,0-2.1-0.9-2.2-2c0-0.1,0-0.2,0-0.2
				c0-1.6,1.2-2.3,2.8-2.3h0.7v-0.3c0-0.6-0.1-1-0.6-1c-0.4,0-0.7,0.3-0.7,0.6h-1.9c0-1.3,1-2.4,2.3-2.5c0.1,0,0.2,0,0.3,0
				C105,413.4,105.8,414.4,105.8,416.2z M103.9,418h-0.6c-0.6,0-0.9,0.3-0.9,0.8c0,0.4,0.2,0.7,0.6,0.7c0,0,0.1,0,0.1,0
				c0.4,0,0.8-0.3,0.8-0.8c0,0,0-0.1,0-0.1V418z"/>
			<path class="st31" d="M45.6,428.6v1.9c0,1.7-1,2.9-2.4,2.9c-0.4,0-0.8-0.1-1.1-0.4v2.7h-1.8v-9.8h1.3l0.1,0.6
				c0.4-0.5,1-0.8,1.6-0.8C44.7,425.7,45.6,426.9,45.6,428.6z M43.7,428.6c0-0.7-0.3-1.1-0.7-1.1c-0.5,0-0.8,0.4-0.8,1.1v1.9
				c0,0.7,0.3,1.1,0.8,1.1c0.5,0,0.7-0.4,0.7-1.1V428.6z"/>
			<path class="st31" d="M52.1,430.9c0,1.4-1.2,2.5-2.6,2.5c-0.1,0-0.1,0-0.2,0c-1.6,0-2.6-1.1-2.6-2.9v-1.9c-0.1-1.5,1-2.7,2.5-2.8
				c1.5-0.1,2.7,1,2.8,2.5c0,0.1,0,0.2,0,0.3v1.6h-3.4v0.3c0,0.8,0.3,1.1,0.8,1.1c0.5,0,0.7-0.2,0.8-0.7H52.1z M48.6,428.5v0.4h1.6
				v-0.4c0-0.7-0.3-1.1-0.8-1.1C48.8,427.4,48.6,427.8,48.6,428.5z"/>
			<path class="st31" d="M57.2,425.9v1.8c-0.3-0.1-0.6-0.2-0.9-0.2c-0.8,0-1.3,0.4-1.3,1.4v4.3h-1.9v-7.3h1.2l0.2,0.8
				c0.4-0.7,1.1-1.1,1.8-1C56.7,425.7,56.9,425.7,57.2,425.9z"/>
			<path class="st31" d="M60.3,425.7v0.2h1.2v1.7h-1.2v5.6h-1.9v-5.6h-1v-1.7h1v-0.2c-0.1-1.3,0.8-2.6,2.2-2.7c0.2,0,0.4,0,0.6,0
				h0.5v1.7h-0.5C60.5,424.7,60.3,425,60.3,425.7z"/>
			<path class="st31" d="M62.2,430.5v-1.9c0-1.9,1-2.9,2.7-2.9c1.7,0,2.7,1,2.7,2.9v1.9c0,1.9-1,2.9-2.7,2.9
				C63.2,433.4,62.2,432.3,62.2,430.5z M65.7,430.5v-1.9c0-0.8-0.3-1.1-0.8-1.1s-0.8,0.3-0.8,1.1v1.9c0,0.8,0.3,1.1,0.8,1.1
				S65.7,431.2,65.7,430.5z"/>
			<path class="st31" d="M72.9,425.9v1.8c-0.3-0.1-0.6-0.2-0.9-0.2c-0.8,0-1.3,0.4-1.3,1.4v4.3h-1.9v-7.3h1.2l0.2,0.8
				c0.4-0.7,1.1-1.1,1.8-1C72.3,425.7,72.6,425.7,72.9,425.9z"/>
			<path class="st31" d="M82.1,428.7v4.5h-1.9v-4.5c0-0.9-0.2-1.2-0.7-1.2c-0.5,0-0.8,0.4-0.8,1.1v4.6h-1.9v-4.5
				c0-0.9-0.2-1.2-0.7-1.2c-0.5,0-0.8,0.4-0.8,1.1v4.6h-1.9v-7.3h1.2l0.1,0.7c0.4-0.6,1-1,1.7-0.9c0.7,0,1.3,0.3,1.6,0.9
				c0.4-0.6,1-0.9,1.7-0.9C81.3,425.7,82.1,426.7,82.1,428.7z"/>
			<path class="st31" d="M88.4,428.5v4.6h-1.5l-0.1-0.7c-0.3,0.6-0.9,0.9-1.6,0.9c-1.2,0-2.1-0.9-2.2-2c0-0.1,0-0.2,0-0.2
				c0-1.6,1.2-2.3,2.8-2.3h0.7v-0.3c0-0.6-0.1-1-0.6-1c-0.4,0-0.7,0.3-0.7,0.6h-1.9c0-1.3,1-2.4,2.3-2.5c0.1,0,0.2,0,0.3,0
				C87.6,425.7,88.4,426.7,88.4,428.5z M86.5,430.3h-0.6c-0.6,0-0.9,0.3-0.9,0.8c0,0.4,0.2,0.7,0.6,0.7c0,0,0.1,0,0.1,0
				c0.4,0,0.8-0.3,0.8-0.8c0,0,0-0.1,0-0.1V430.3z"/>
			<path class="st31" d="M95,428.7v4.5h-1.9v-4.5c0-0.9-0.2-1.2-0.7-1.2c-0.5,0-0.8,0.4-0.8,1.1v4.6h-1.9v-7.3H91l0.1,0.7
				c0.4-0.6,1-1,1.7-0.9C94.2,425.7,95,426.7,95,428.7z"/>
			<path class="st31" d="M96.2,430.6v-2.2c-0.2-1.3,0.8-2.6,2.1-2.7c0.2,0,0.3,0,0.5,0c1.4-0.1,2.6,0.9,2.7,2.3c0,0.2,0,0.3,0,0.5
				h-1.9c0-0.6-0.3-0.9-0.8-0.9s-0.7,0.3-0.7,0.9v2.2c0,0.6,0.3,1,0.7,1c0.5,0,0.7-0.3,0.8-1h1.9c0.1,1.4-0.9,2.6-2.3,2.7
				c-0.1,0-0.3,0-0.4,0c-1.4,0.1-2.5-0.9-2.6-2.3C96.1,430.9,96.1,430.8,96.2,430.6z"/>
			<path class="st31" d="M107.6,430.9c0,1.4-1.2,2.5-2.6,2.5c-0.1,0-0.1,0-0.2,0c-1.6,0-2.6-1.1-2.6-2.9v-1.9
				c-0.1-1.5,1-2.7,2.5-2.8c1.5-0.1,2.7,1,2.8,2.5c0,0.1,0,0.2,0,0.3v1.6h-3.4v0.3c0,0.8,0.3,1.1,0.8,1.1c0.5,0,0.7-0.2,0.8-0.7
				H107.6z M104.1,428.5v0.4h1.6v-0.4c0-0.7-0.3-1.1-0.8-1.1C104.4,427.4,104.1,427.8,104.1,428.5z"/>
		</g>
		<g>
			<path class="st31" d="M372.5,743.2c0.1,1.5-1.1,2.8-2.6,2.9c-0.1,0-0.2,0-0.3,0h-3v-9.6h3c1.4,0,2.5,1.1,2.6,2.5
				c0,0.1,0,0.2,0,0.2c0,0.7-0.3,1.4-0.8,2C372.1,741.6,372.5,742.4,372.5,743.2z M368.6,738.3v2h0.8c0.6,0,0.8-0.4,0.8-1
				c0-0.6-0.3-1-0.9-1H368.6z M370.5,743.2c0-0.7-0.4-1.1-1.1-1.1h-0.8v2.1h0.7C370.1,744.3,370.5,743.9,370.5,743.2L370.5,743.2z"
				/>
			<path class="st31" d="M373.5,736.7c0-0.6,0.4-1,1-1c0,0,0,0,0.1,0c0.6,0,1,0.4,1,1c0,0,0,0,0,0c0,0.6-0.5,1-1,1
				C374,737.7,373.5,737.3,373.5,736.7C373.5,736.7,373.5,736.7,373.5,736.7z M373.6,738.8h1.9v7.3h-1.9V738.8z"/>
			<path class="st31" d="M382.1,738.8v7.5c-0.1,1.4-1.3,2.5-2.7,2.4c-1.3-0.1-2.4-1.1-2.4-2.4h1.9c0,0.4,0.2,0.7,0.7,0.7
				c0.3,0,0.6-0.2,0.7-0.6c0,0,0-0.1,0-0.1v-0.9c-0.3,0.2-0.7,0.3-1.1,0.3c-1.4-0.1-2.4-1.2-2.4-2.6c0,0,0-0.1,0-0.1v-1.6
				c-0.1-1.4,0.8-2.6,2.2-2.7c0,0,0.1,0,0.1,0c0.6,0,1.2,0.2,1.6,0.6l0.1-0.4H382.1z M380.1,743v-1.6c0-0.6-0.3-0.9-0.8-0.9
				c-0.5,0-0.7,0.3-0.7,0.9v1.6c0,0.6,0.2,1,0.7,1C379.9,744,380.1,743.6,380.1,743L380.1,743z"/>
			<path class="st31" d="M386.4,736.5h2.6c1.6-0.1,3,1.1,3.1,2.6c0,0.2,0,0.4,0,0.6v3.2c0,2.1-1.1,3.3-3.1,3.3h-2.7V736.5z
				 M389,744.2c0.7,0,1.1-0.5,1.1-1.4v-3.2c0-0.9-0.4-1.3-1.1-1.3h-0.7v5.9H389z"/>
			<path class="st31" d="M398.2,741.5v4.6h-1.5l-0.1-0.7c-0.3,0.6-0.9,0.9-1.6,0.9c-1.2,0-2.1-0.9-2.2-2c0-0.1,0-0.2,0-0.2
				c0-1.6,1.2-2.3,2.8-2.3h0.7v-0.3c0-0.6-0.1-1-0.6-1c-0.4,0-0.7,0.3-0.7,0.6h-1.9c0-1.3,1-2.4,2.3-2.5c0.1,0,0.2,0,0.3,0
				C397.5,738.6,398.2,739.6,398.2,741.5z M396.3,743.2h-0.6c-0.6,0-0.9,0.3-0.9,0.8c0,0.4,0.2,0.7,0.6,0.7c0,0,0.1,0,0.1,0
				c0.4,0,0.8-0.3,0.8-0.8c0,0,0-0.1,0-0.1V743.2z"/>
			<path class="st31" d="M403.1,744.5v1.8h-0.6c-1.3,0.1-2.5-0.9-2.6-2.3c0-0.1,0-0.2,0-0.4v-3.1h-1v-1.7h1V737h1.9v1.8h1.2v1.7
				h-1.2v3.1c0,0.6,0.3,0.9,0.8,0.9H403.1z"/>
			<path class="st31" d="M409.2,741.5v4.6h-1.5l-0.1-0.7c-0.3,0.6-0.9,0.9-1.6,0.9c-1.2,0-2.1-0.9-2.2-2c0-0.1,0-0.2,0-0.2
				c0-1.6,1.2-2.3,2.8-2.3h0.7v-0.3c0-0.6-0.1-1-0.6-1c-0.4,0-0.7,0.3-0.7,0.6h-1.9c0-1.3,1-2.4,2.3-2.5c0.1,0,0.2,0,0.3,0
				C408.5,738.6,409.2,739.6,409.2,741.5z M407.3,743.2h-0.6c-0.6,0-0.9,0.3-0.9,0.8c0,0.4,0.2,0.7,0.6,0.7c0,0,0.1,0,0.1,0
				c0.4,0,0.8-0.3,0.8-0.8c0,0,0-0.1,0-0.1V743.2z"/>
		</g>
		<g>
			<path class="st31" d="M690.1,411.2h2.6c1.6-0.1,3,1.1,3.1,2.6c0,0.2,0,0.4,0,0.6v3.2c0,2.1-1.1,3.3-3.1,3.3h-2.7V411.2z
				 M692.7,419c0.7,0,1.1-0.5,1.1-1.4v-3.2c0-0.9-0.4-1.3-1.1-1.3H692v5.9H692.7z"/>
			<path class="st31" d="M702,416.2v4.6h-1.5l-0.1-0.7c-0.3,0.6-0.9,0.9-1.6,0.9c-1.2,0-2.1-0.9-2.2-2c0-0.1,0-0.2,0-0.2
				c0-1.6,1.2-2.3,2.8-2.3h0.7v-0.3c0-0.6-0.1-1-0.6-1c-0.4,0-0.7,0.3-0.7,0.6h-1.9c0-1.3,1-2.4,2.3-2.5c0.1,0,0.2,0,0.3,0
				C701.2,413.4,702,414.4,702,416.2z M700.1,418h-0.6c-0.6,0-0.9,0.3-0.9,0.8c0,0.4,0.2,0.7,0.6,0.7c0,0,0.1,0,0.1,0
				c0.4,0,0.8-0.3,0.8-0.8c0,0,0-0.1,0-0.1V418z"/>
			<path class="st31" d="M706.8,419.2v1.8h-0.6c-1.3,0.1-2.5-0.9-2.6-2.3c0-0.1,0-0.2,0-0.4v-3.1h-1v-1.7h1v-1.8h1.9v1.8h1.2v1.7
				h-1.2v3.1c0,0.6,0.3,0.9,0.8,0.9H706.8z"/>
			<path class="st31" d="M712.9,416.2v4.6h-1.5l-0.1-0.7c-0.3,0.6-0.9,0.9-1.6,0.9c-1.2,0-2.1-0.9-2.2-2c0-0.1,0-0.2,0-0.2
				c0-1.6,1.2-2.3,2.8-2.3h0.7v-0.3c0-0.6-0.1-1-0.6-1c-0.4,0-0.7,0.3-0.7,0.6h-1.9c0-1.3,1-2.4,2.3-2.5c0.1,0,0.2,0,0.3,0
				C712.2,413.4,712.9,414.4,712.9,416.2z M711,418h-0.6c-0.6,0-0.9,0.3-0.9,0.8c0,0.4,0.2,0.7,0.6,0.7c0,0,0.1,0,0.1,0
				c0.4,0,0.8-0.3,0.8-0.8c0,0,0-0.1,0-0.1V418z"/>
			<path class="st31" d="M677.3,428.7v4.5h-1.9v-4.5c0-0.9-0.2-1.2-0.7-1.2c-0.5,0-0.8,0.4-0.8,1.1v4.6h-1.9v-4.5
				c0-0.9-0.2-1.2-0.7-1.2c-0.5,0-0.8,0.4-0.8,1.1v4.6h-1.9v-7.3h1.2l0.1,0.7c0.4-0.6,1-1,1.7-0.9c0.7,0,1.3,0.3,1.6,0.9
				c0.4-0.6,1-0.9,1.7-0.9C676.6,425.7,677.3,426.7,677.3,428.7z"/>
			<path class="st31" d="M683.6,428.5v4.6h-1.5l-0.1-0.7c-0.3,0.6-0.9,0.9-1.6,0.9c-1.2,0-2.1-0.9-2.2-2c0-0.1,0-0.2,0-0.2
				c0-1.6,1.2-2.3,2.8-2.3h0.7v-0.3c0-0.6-0.1-1-0.6-1c-0.4,0-0.7,0.3-0.7,0.6h-1.9c0-1.3,1-2.4,2.3-2.5c0.1,0,0.2,0,0.3,0
				C682.9,425.7,683.6,426.7,683.6,428.5z M681.8,430.3h-0.6c-0.6,0-0.9,0.3-0.9,0.8c0,0.4,0.2,0.7,0.6,0.7c0,0,0.1,0,0.1,0
				c0.4,0,0.8-0.3,0.8-0.8c0,0,0-0.1,0-0.1V430.3z"/>
			<path class="st31" d="M690.3,428.7v4.5h-1.9v-4.5c0-0.9-0.2-1.2-0.7-1.2c-0.5,0-0.8,0.4-0.8,1.1v4.6H685v-7.3h1.2l0.1,0.7
				c0.4-0.6,1-1,1.7-0.9C689.5,425.7,690.3,426.7,690.3,428.7z"/>
			<path class="st31" d="M696.6,428.5v4.6h-1.5l-0.1-0.7c-0.3,0.6-0.9,0.9-1.6,0.9c-1.2,0-2.1-0.9-2.2-2c0-0.1,0-0.2,0-0.2
				c0-1.6,1.2-2.3,2.8-2.3h0.7v-0.3c0-0.6-0.1-1-0.6-1c-0.4,0-0.7,0.3-0.7,0.6h-1.9c0-1.3,1-2.4,2.3-2.5c0.1,0,0.2,0,0.3,0
				C695.8,425.7,696.6,426.7,696.6,428.5z M694.7,430.3H694c-0.6,0-0.9,0.3-0.9,0.8c0,0.4,0.2,0.7,0.6,0.7c0,0,0.1,0,0.1,0
				c0.4,0,0.8-0.3,0.8-0.8c0,0,0-0.1,0-0.1V430.3z"/>
			<path class="st31" d="M703.1,425.9v7.5c-0.1,1.4-1.3,2.5-2.7,2.4c-1.3-0.1-2.4-1.1-2.4-2.4h1.9c0,0.4,0.2,0.7,0.7,0.7
				c0.3,0,0.6-0.2,0.7-0.6c0,0,0-0.1,0-0.1v-0.9c-0.3,0.2-0.7,0.3-1.1,0.3c-1.4-0.1-2.4-1.2-2.4-2.6c0,0,0-0.1,0-0.1v-1.6
				c-0.1-1.4,0.8-2.6,2.2-2.7c0,0,0.1,0,0.1,0c0.6,0,1.2,0.2,1.6,0.6l0.1-0.4L703.1,425.9z M701.2,430.1v-1.6c0-0.6-0.3-0.9-0.8-0.9
				c-0.5,0-0.7,0.3-0.7,0.9v1.6c0,0.6,0.2,1,0.7,1C701,431,701.2,430.7,701.2,430.1z"/>
			<path class="st31" d="M709.7,430.9c0,1.4-1.2,2.5-2.6,2.5c-0.1,0-0.1,0-0.2,0c-1.6,0-2.6-1.1-2.6-2.9v-1.9
				c-0.1-1.5,1-2.7,2.5-2.8c1.5-0.1,2.7,1,2.8,2.5c0,0.1,0,0.2,0,0.3v1.6h-3.4v0.3c0,0.8,0.3,1.1,0.8,1.1c0.5,0,0.7-0.2,0.8-0.7
				H709.7z M706.2,428.5v0.4h1.6v-0.4c0-0.7-0.3-1.1-0.8-1.1C706.5,427.4,706.2,427.8,706.2,428.5L706.2,428.5z"/>
			<path class="st31" d="M719.3,428.7v4.5h-1.9v-4.5c0-0.9-0.2-1.2-0.7-1.2c-0.5,0-0.8,0.4-0.8,1.1v4.6h-1.9v-4.5
				c0-0.9-0.2-1.2-0.7-1.2c-0.5,0-0.8,0.4-0.8,1.1v4.6h-1.9v-7.3h1.2l0.1,0.7c0.4-0.6,1-1,1.7-0.9c0.7,0,1.3,0.3,1.6,0.9
				c0.4-0.6,1-0.9,1.7-0.9C718.5,425.7,719.3,426.7,719.3,428.7z"/>
			<path class="st31" d="M725.8,430.9c0,1.4-1.2,2.5-2.6,2.5c-0.1,0-0.1,0-0.2,0c-1.6,0-2.6-1.1-2.6-2.9v-1.9
				c-0.1-1.5,1-2.7,2.5-2.8c1.5-0.1,2.7,1,2.8,2.5c0,0.1,0,0.2,0,0.3v1.6h-3.4v0.3c0,0.8,0.3,1.1,0.8,1.1c0.5,0,0.7-0.2,0.8-0.7
				H725.8z M722.3,428.5v0.4h1.6v-0.4c0-0.7-0.3-1.1-0.8-1.1C722.6,427.4,722.3,427.8,722.3,428.5z"/>
			<path class="st31" d="M732.1,428.7v4.5h-1.9v-4.5c0-0.9-0.2-1.2-0.7-1.2c-0.5,0-0.8,0.4-0.8,1.1v4.6h-1.9v-7.3h1.2l0.1,0.7
				c0.4-0.6,1-1,1.7-0.9C731.3,425.7,732.1,426.7,732.1,428.7z"/>
			<path class="st31" d="M737,431.5v1.8h-0.6c-1.3,0.1-2.5-0.9-2.6-2.3c0-0.1,0-0.2,0-0.4v-3.1h-1v-1.7h1v-1.8h1.9v1.8h1.2v1.7h-1.2
				v3.1c0,0.6,0.3,0.9,0.8,0.9H737z"/>
		</g>
		<circle class="st31" cx="366.3" cy="222.6" r="5.7"/>
		<circle class="st31" cx="539.3" cy="484.3" r="5.7"/>
		<circle class="st31" cx="539.3" cy="484.3" r="5.7"/>
		<circle class="st31" cx="436.7" cy="622.5" r="5.7"/>
		<circle class="st31" cx="207" cy="513.4" r="5.7"/>
		<circle class="st31" cx="508.9" cy="203.1" r="5.7"/>
		
			<linearGradient id="SVGID_22_" gradientUnits="userSpaceOnUse" x1="386.9502" y1="692.3408" x2="429.1713" y2="775.8914" gradientTransform="matrix(1 0 0 -1 0 776)">
			<stop  offset="0" style="stop-color:#FFFFFF"/>
			<stop  offset="0.1472" style="stop-color:#FCFCFC"/>
			<stop  offset="0.2757" style="stop-color:#F1F1F1"/>
			<stop  offset="0.3972" style="stop-color:#DFDFDF"/>
			<stop  offset="0.5145" style="stop-color:#C6C6C6"/>
			<stop  offset="0.6287" style="stop-color:#A5A5A5"/>
			<stop  offset="0.7406" style="stop-color:#7D7D7D"/>
			<stop  offset="0.8507" style="stop-color:#4E4E4E"/>
			<stop  offset="0.9566" style="stop-color:#181818"/>
			<stop  offset="1" style="stop-color:#000000"/>
		</linearGradient>
		<path class="st32" d="M459.5,61.6l-5,28.2c-36.2-42.6-73.8-63.5-104.1-73.7l38.2-13.9L434.9,19L459.5,61.6z"/>
		
			<linearGradient id="SVGID_23_" gradientUnits="userSpaceOnUse" x1="699.9556" y1="376.2282" x2="742.1767" y2="459.7789" gradientTransform="matrix(1 0 0 -1 0 776)">
			<stop  offset="0" style="stop-color:#FFFFFF"/>
			<stop  offset="0.1472" style="stop-color:#FCFCFC"/>
			<stop  offset="0.2757" style="stop-color:#F1F1F1"/>
			<stop  offset="0.3972" style="stop-color:#DFDFDF"/>
			<stop  offset="0.5145" style="stop-color:#C6C6C6"/>
			<stop  offset="0.6287" style="stop-color:#A5A5A5"/>
			<stop  offset="0.7406" style="stop-color:#7D7D7D"/>
			<stop  offset="0.8507" style="stop-color:#4E4E4E"/>
			<stop  offset="0.9566" style="stop-color:#181818"/>
			<stop  offset="1" style="stop-color:#000000"/>
		</linearGradient>
		<path class="st33" d="M772.5,377.8l-5,28.2c-36.2-42.6-73.8-63.5-104.1-73.7l38.2-13.9l46.2,16.8L772.5,377.8z"/>
		
			<linearGradient id="SVGID_24_" gradientUnits="userSpaceOnUse" x1="384.325" y1="367.2015" x2="465.4579" y2="527.7542" gradientTransform="matrix(1 0 0 -1 0 776)">
			<stop  offset="0" style="stop-color:#FFFFFF"/>
			<stop  offset="0.1472" style="stop-color:#FCFCFC"/>
			<stop  offset="0.2757" style="stop-color:#F1F1F1"/>
			<stop  offset="0.3972" style="stop-color:#DFDFDF"/>
			<stop  offset="0.5145" style="stop-color:#C6C6C6"/>
			<stop  offset="0.6287" style="stop-color:#A5A5A5"/>
			<stop  offset="0.7406" style="stop-color:#7D7D7D"/>
			<stop  offset="0.8507" style="stop-color:#4E4E4E"/>
			<stop  offset="0.9566" style="stop-color:#181818"/>
			<stop  offset="1" style="stop-color:#000000"/>
		</linearGradient>
		<path class="st34" d="M523.7,366.5l-9.5,54.1c-69.6-81.8-141.9-122.1-200-141.6l73.4-26.7l88.8,32.3L523.7,366.5z"/>
		
			<linearGradient id="SVGID_25_" gradientUnits="userSpaceOnUse" x1="386.2747" y1="64.4387" x2="428.4958" y2="147.9893" gradientTransform="matrix(1 0 0 -1 0 776)">
			<stop  offset="0" style="stop-color:#FFFFFF"/>
			<stop  offset="0.1472" style="stop-color:#FCFCFC"/>
			<stop  offset="0.2757" style="stop-color:#F1F1F1"/>
			<stop  offset="0.3972" style="stop-color:#DFDFDF"/>
			<stop  offset="0.5145" style="stop-color:#C6C6C6"/>
			<stop  offset="0.6287" style="stop-color:#A5A5A5"/>
			<stop  offset="0.7406" style="stop-color:#7D7D7D"/>
			<stop  offset="0.8507" style="stop-color:#4E4E4E"/>
			<stop  offset="0.9566" style="stop-color:#181818"/>
			<stop  offset="1" style="stop-color:#000000"/>
		</linearGradient>
		<path class="st35" d="M458.8,689.5l-5,28.2c-36.2-42.6-73.8-63.5-104.1-73.7l38.2-13.9l46.2,16.8L458.8,689.5z"/>
		
			<linearGradient id="SVGID_26_" gradientUnits="userSpaceOnUse" x1="72.3552" y1="376.4984" x2="114.5763" y2="460.049" gradientTransform="matrix(1 0 0 -1 0 776)">
			<stop  offset="0" style="stop-color:#FFFFFF"/>
			<stop  offset="0.1472" style="stop-color:#FCFCFC"/>
			<stop  offset="0.2757" style="stop-color:#F1F1F1"/>
			<stop  offset="0.3972" style="stop-color:#DFDFDF"/>
			<stop  offset="0.5145" style="stop-color:#C6C6C6"/>
			<stop  offset="0.6287" style="stop-color:#A5A5A5"/>
			<stop  offset="0.7406" style="stop-color:#7D7D7D"/>
			<stop  offset="0.8507" style="stop-color:#4E4E4E"/>
			<stop  offset="0.9566" style="stop-color:#181818"/>
			<stop  offset="1" style="stop-color:#000000"/>
		</linearGradient>
		<path class="st36" d="M144.9,377.5l-5,28.2C103.7,363.1,66,342.1,35.8,332L74,318.1l46.2,16.8L144.9,377.5z"/>
		<circle class="st22" cx="632.4" cy="135.4" r="8.6"/>
		<circle class="st22" cx="634.5" cy="639" r="8.6"/>
		<circle class="st22" cx="132.8" cy="640" r="8.6"/>
		<circle class="st22" cx="137" cy="138.1" r="8.6"/>
		<g class="st37">
			<path class="st31" d="M596,275.4v17.8h17.8v-17.8H596z M609.4,288.8h-8.9v-8.9h8.9V288.8z"/>
			<rect x="599.4" y="278.8" class="st38" width="11.1" height="11.1"/>
		</g>
		<g class="st37">
			<path class="st31" d="M574.4,289.5v17.8h17.8v-17.8H574.4z M587.7,302.9h-8.9V294h8.9V302.9z"/>
			<rect x="577.7" y="292.9" class="st38" width="11.1" height="11.1"/>
		</g>
		<g class="st37">
			<path class="st31" d="M317.2,199.5l3.9,10.7l10.7-3.9l-3.9-10.7L317.2,199.5z M328.1,204.6l-5.3,1.9l-1.9-5.3l5.3-1.9
				L328.1,204.6z"/>
			
				<rect x="321" y="199.4" transform="matrix(0.94 -0.3412 0.3412 0.94 -49.7663 122.8947)" class="st38" width="7.1" height="7.1"/>
		</g>
		<g class="st37">
			<path class="st31" d="M310.1,550.2l14,11l11-14l-14-11L310.1,550.2z M328.9,548l-5.5,7l-7-5.5l5.5-7L328.9,548z"/>
			
				<rect x="317.1" y="543.2" transform="matrix(0.6179 -0.7862 0.7862 0.6179 -308.1938 463.3084)" class="st38" width="11.1" height="11.1"/>
		</g>
	</g>
</g>
</svg>
