<svg xmlns="http://www.w3.org/2000/svg" viewBox="0 0 520.24 77.93"><defs><style>.cls-1,.cls-2{fill:#fff;}.cls-2{font-size:31.39px;font-family:Aileron-Light, Aileron;font-weight:300;}.cls-3{letter-spacing:-0.01em;}.cls-4{letter-spacing:-0.01em;}.cls-5{letter-spacing:-0.07em;}.cls-6{fill:none;stroke:#fff;stroke-linecap:round;stroke-miterlimit:10;stroke-width:2.24px;}</style></defs><title>slogan</title><g id="Layer_2" data-name="Layer 2"><g id="Calque_1" data-name="Calque 1"><path class="cls-1" d="M21.29,4.05V33a6.65,6.65,0,0,0,2.36,5.06L40.42,52.4a3.07,3.07,0,0,0,4,0L61.16,38.08A6.65,6.65,0,0,0,63.52,33v-29a3,3,0,0,0-3-2.93H24.3A3,3,0,0,0,21.29,4.05ZM56.93,32.84H52.29v7.78h-8V16.28a2.1,2.1,0,1,0-.56,0v9.89h-6.3a2,2,0,1,0,0,.55h6.3v6.12H27.88V27.31L44.78,3.06h7.51V26.67h4.64Z"/><path class="cls-1" d="M0,76.8V62H4.14V76.8Zm21.94,0h-5.4L11,66.35h-.1c.13,1.64.2,2.9.2,3.76V76.8H7.43V62h5.38l5.54,10.32h.07c-.1-1.5-.15-2.7-.15-3.61V62h3.67ZM42,69.1a7.54,7.54,0,0,1-2.1,5.72,8.18,8.18,0,0,1-5.9,2H29.08V62h5.27A8.09,8.09,0,0,1,40,63.82,6.8,6.8,0,0,1,42,69.1Zm-4.27.14a4.66,4.66,0,0,0-.83-3,3.12,3.12,0,0,0-2.52-1H33.2v8.32h.91a3.35,3.35,0,0,0,2.75-1.07A5,5,0,0,0,37.74,69.24Zm16.35,7.59-.75-2.78h-5l-.77,2.78H43.1l5-14.9h5.49l5,14.9Zm-1.6-6.07-.66-2.43c-.15-.55-.34-1.25-.56-2.11s-.36-1.47-.43-1.84c-.06.34-.18.91-.37,1.7s-.59,2.35-1.22,4.68ZM67,76.83H62.85V65.27H59.13V62H70.68v3.28H67Zm15.23,0-.75-2.78h-5l-.77,2.78H71.21l5-14.9h5.49l5,14.9Zm-1.6-6.07-.66-2.43c-.15-.55-.34-1.25-.55-2.11S79,64.75,79,64.38c-.06.34-.18.91-.37,1.7s-.59,2.35-1.22,4.68Z"/><text class="cls-2" transform="translate(151.27 48.74)">AIn<tspan class="cls-3" x="45.05" y="0">t</tspan><tspan x="53.71" y="0">elligence who p</tspan><tspan class="cls-4" x="268.52" y="0">r</tspan><tspan x="277.75" y="0">o</tspan><tspan class="cls-5" x="295.77" y="0">T</tspan><tspan x="312.53" y="0">ects</tspan></text><line class="cls-6" x1="121.96" y1="1.12" x2="121.96" y2="76.8"/></g></g></svg>